<svg xmlns="http://www.w3.org/2000/svg" xmlns:xlink="http://www.w3.org/1999/xlink" xmlns:inkscape="http://www.inkscape.org/namespaces/inkscape" version="1.1" width="8538" height="5235" viewBox="0 0 8538 5235">
<g>
<path d="M159.855 4845.965C134.266 4846.727 113.352 4850.277 104.695 4851.902V4926.906C152.277 4917.066 220.648 4914.094 223.574 4969.828 125.109 4952.312 82.57 4986.359 82.5 5037.957 82.406 5112.375 166.051 5126.695 207.914 5076.578 222.645 5056.09 229.039 5035.625 230.375 5020.398L239.547 5020.457C235.297 5106.07 194.965 5122.23 138.453 5131.02L144.219 5168.074C179.902 5162.523 263.723 5156.793 364.758 5199.477L392.711 5106.074C353.246 5092.957 315.297 5088.832 283.84 5092.262 306.348 5065.688 321.176 5032.418 321.18 4992.586V4973.598C321.18 4875.094 248.641 4849.926 186.723 4846.312 177.434 4845.77 168.383 4845.715 159.855 4845.969ZM223.672 4977.344V5006.004C223.102 5018.156 214.301 5035.414 200.332 5035.516 161.184 5035.801 164.32 4977.293 223.672 4977.344ZM223.672 4977.344" fill-rule="evenodd"/>
<path d="M6135.496 906.012V1003.516H6215.195V1266.016H6312.699V1003.516H6392.398V906.012ZM6135.496 906.012" fill-rule="evenodd"/>
<path d="M6467.406 906.012V1153.324C6467.406 1214.23 6526.301 1266.016 6592.926 1266.016 6659.57 1266.016 6718.449 1214.203 6718.449 1153.324V906.012H6620.938V1153.324C6620.938 1184.863 6601.375 1191.016 6592.926 1191.016 6584.473 1191.016 6564.914 1184.867 6564.914 1153.324V906.012ZM6467.406 906.012" fill-rule="evenodd"/>
<path d="M3893.332 906.012V1266.016H4005.844L3950.855 1032.805 3960.879 1028.82 4059.77 1266.016H4157.281V906.012H4044.77L4099.754 1139.223 4089.742 1143.203 3990.855 906.012ZM3893.332 906.012" fill-rule="evenodd"/>
<path d="M782.156 1788.535C693.969 1788.535 638.805 1839.879 638.805 1918.617 638.805 1997.355 692.379 2048.699 782.156 2048.699 851.832 2048.699 899.703 2019.426 917.648 1967.531L824.039 1941.055C816.887 1960.293 800.824 1973.699 782.156 1973.699 756.84 1973.699 736.312 1949.039 736.312 1918.617 736.312 1888.195 756.84 1863.535 782.156 1863.535 800.824 1863.535 816.887 1876.941 824.039 1896.176L918.305 1869.516C900.672 1816.871 851.676 1788.535 782.156 1788.535ZM782.156 1788.535" fill-rule="evenodd"/>
<path d="M1440.078 1788.535C1351.891 1788.535 1296.727 1839.879 1296.727 1918.617 1296.727 1997.355 1350.301 2048.699 1440.078 2048.699 1509.754 2048.699 1557.621 2019.426 1575.566 1967.531L1481.379 1942.559C1473.965 1960.988 1458.258 1973.699 1440.078 1973.699 1417.906 1973.699 1399.414 1954.789 1395.156 1929.66L1583.043 1929.145C1583.305 1925.223 1583.434 1921.211 1583.434 1917.117 1583.434 1834.137 1528.266 1788.535 1440.078 1788.535ZM1440.078 1863.535C1462.246 1863.535 1480.742 1882.438 1485 1907.562L1395.105 1907.879C1399.262 1882.598 1417.816 1863.535 1440.078 1863.535ZM1440.078 1863.535" fill-rule="evenodd"/>
<path d="M1830.652 1688.695C1670.109 1688.695 1663.93 1753.793 1663.93 1820.977H1639.062L1639.223 1842.758H1663.93V2048.699H1761.434V1842.758H1786.301L1786.137 1820.977H1685.711C1685.711 1777.023 1733.93 1763.695 1830.742 1763.695ZM1830.652 1688.695" fill-rule="evenodd"/>
<path d="M316.012 1688.695V2048.699H413.52V1999.848H419.59C431.488 2028.539 459.582 2048.699 492.344 2048.699 570.918 2048.699 583.172 1977.246 583.172 1919.41 583.172 1861.578 571.832 1788.535 492.344 1788.535 442.719 1788.977 413.52 1824.121 413.52 1874.43L404.348 1874.371C414.918 1812.297 413.52 1751.262 413.52 1688.695ZM443.594 1875.129C460.203 1875.129 473.664 1894.598 473.664 1918.617 473.664 1942.633 460.203 1962.102 443.594 1962.105 426.984 1962.105 413.52 1942.633 413.52 1918.617 413.52 1894.598 426.984 1875.129 443.594 1875.129ZM443.594 1875.129" fill-rule="evenodd"/>
<path d="M99.059 1788.594C73.473 1789.352 52.559 1792.906 43.898 1794.531V1869.531C91.484 1859.691 159.852 1856.719 162.777 1912.453 64.316 1894.938 21.773 1928.984 21.703 1980.586 21.609 2055 105.254 2069.324 147.117 2019.203 161.848 1998.715 168.246 1978.254 169.578 1963.023L178.75 1963.082C178.75 1987.266 167.766 2032.988 162.879 2048.695H260.383V1916.223C260.383 1817.719 187.844 1792.551 125.926 1788.938 116.637 1788.398 107.59 1788.34 99.059 1788.594ZM162.879 1919.973V1948.629C162.305 1960.781 153.504 1978.039 139.535 1978.141 100.387 1978.426 103.523 1919.918 162.879 1919.973ZM162.879 1919.973" fill-rule="evenodd"/>
<path d="M1241.094 2048.699V1688.695H1143.59V1837.383H1137.516C1125.621 1808.691 1097.527 1788.535 1064.762 1788.535 986.191 1788.535 973.934 1859.988 973.934 1917.82 973.934 1975.656 985.273 2048.699 1064.762 2048.699 1114.387 2048.258 1143.59 2013.109 1143.59 1962.805L1152.762 1962.863C1152.762 1995.609 1147.145 2024.711 1143.59 2048.699ZM1113.516 1962.105C1096.906 1962.102 1083.441 1942.633 1083.441 1918.617 1083.441 1894.598 1096.906 1875.129 1113.516 1875.129 1130.125 1875.129 1143.59 1894.598 1143.59 1918.617 1143.59 1942.633 1130.125 1962.105 1113.516 1962.105ZM1113.516 1962.105" fill-rule="evenodd"/>
<path d="M2249.711 1688.695V2048.699H2347.215V1918.672C2347.215 1918.645 2347.215 1918.637 2347.215 1918.617 2347.215 1861.758 2407.363 1861.75 2407.363 1918.617V2048.699H2516.871V1919.414C2516.871 1861.578 2505.531 1788.535 2426.043 1788.535 2376.418 1788.977 2347.219 1824.121 2347.219 1874.43L2338.043 1874.371C2348.613 1812.297 2347.219 1751.262 2347.219 1688.695ZM2249.711 1688.695" fill-rule="evenodd"/>
<path d="M3944.668 1788.535V2048.699H4042.172V1918.617C4042.172 1861.754 4102.32 1861.75 4102.32 1918.617V2048.699H4211.828V1919.41C4211.828 1861.578 4200.488 1788.535 4121 1788.535 4071.375 1788.977 4042.172 1824.121 4042.172 1874.43L4033 1874.371C4033 1836.742 4038.617 1811.988 4042.172 1788.531ZM3944.668 1788.535" fill-rule="evenodd"/>
<path d="M3452.219 1788.535V2048.699H3549.723V1918.617C3549.723 1861.754 3609.871 1861.75 3609.871 1918.617V2048.699H3719.379V1918.617C3719.379 1861.754 3779.527 1861.75 3779.527 1918.617V2048.699H3889.035V1919.41C3889.035 1861.578 3877.695 1788.535 3798.207 1788.535 3748.582 1788.977 3719.379 1824.121 3719.379 1874.43L3710.207 1874.371C3710.207 1830.973 3688.098 1788.531 3628.551 1788.531 3578.926 1788.973 3549.723 1824.121 3549.723 1874.43L3540.551 1874.367C3540.551 1836.738 3546.168 1811.988 3549.723 1788.531ZM3452.219 1788.535" fill-rule="evenodd"/>
<path d="M4410.812 1788.535C4322.625 1788.535 4267.457 1839.879 4267.457 1918.617 4267.457 1997.352 4321.031 2048.699 4410.812 2048.699 4500.59 2048.699 4554.164 2000.098 4554.164 1917.117 4554.164 1834.137 4499 1788.535 4410.812 1788.535ZM4410.812 1863.535C4436.133 1863.535 4456.656 1888.195 4456.656 1918.617 4456.656 1949.039 4436.133 1973.699 4410.812 1973.699 4385.492 1973.699 4364.969 1949.035 4364.969 1918.617 4364.969 1888.195 4385.492 1863.535 4410.812 1863.535ZM4410.812 1863.535" fill-rule="evenodd"/>
<path d="M5199.746 2148.539V1788.535H5102.242V1837.383H5096.172C5084.273 1808.691 5056.18 1788.535 5023.418 1788.535 4944.844 1788.535 4932.586 1859.988 4932.586 1917.82 4932.586 1975.656 4943.926 2048.699 5023.418 2048.699 5073.043 2048.258 5102.242 2013.109 5102.242 1962.805L5111.414 1962.863C5100.844 2024.934 5102.242 2085.973 5102.242 2148.539ZM5072.168 1962.105C5055.559 1962.102 5042.094 1942.633 5042.094 1918.617 5042.094 1894.598 5055.559 1875.129 5072.168 1875.129 5088.777 1875.129 5102.242 1894.598 5102.242 1918.617 5102.242 1942.633 5088.777 1962.105 5072.168 1962.105ZM5072.168 1962.105" fill-rule="evenodd"/>
<path d="M4609.797 1788.535V2148.539H4707.301V1999.848H4713.371C4725.27 2028.539 4753.363 2048.699 4786.129 2048.699 4864.699 2048.699 4876.957 1977.246 4876.957 1919.41 4876.957 1861.578 4865.617 1788.535 4786.129 1788.535 4736.504 1788.977 4707.301 1824.121 4707.301 1874.43L4698.129 1874.371C4698.129 1841.621 4703.746 1812.523 4707.301 1788.531ZM4737.375 1875.129C4753.984 1875.129 4767.449 1894.598 4767.449 1918.617 4767.449 1942.633 4753.984 1962.102 4737.375 1962.105 4720.766 1962.105 4707.301 1942.633 4707.301 1918.617 4707.301 1894.598 4720.766 1875.129 4737.375 1875.129ZM4737.375 1875.129" fill-rule="evenodd"/>
<path d="M5255.379 1788.535V2048.699H5352.883V1918.676C5352.883 1918.645 5352.883 1918.637 5352.883 1918.617 5351.844 1853.02 5449.441 1862.152 5482.039 1871.035V1796.035C5468.012 1788.535 5453.688 1788.535 5431.711 1788.535 5382.086 1788.977 5352.883 1824.121 5352.883 1874.43L5343.711 1874.371C5343.711 1836.742 5349.328 1811.992 5352.883 1788.535ZM5255.379 1788.535" fill-rule="evenodd"/>
<path d="M6336.398 2048.699V1788.535H6238.895V1918.617C6238.895 1975.477 6178.75 1975.484 6178.75 1918.617L6178.746 1788.535H6069.238V1917.82C6069.238 1975.656 6080.578 2048.699 6160.066 2048.699 6209.691 2048.258 6238.895 2013.109 6238.895 1962.805L6248.066 1962.863C6248.066 2000.492 6242.449 2025.242 6238.895 2048.699ZM6336.398 2048.699" fill-rule="evenodd"/>
<path d="M6576.242 2048.699 6659.191 1788.531H6549.684L6527.633 1973.699H6523.586L6501.539 1788.531H6392.031L6474.98 2048.699ZM6576.242 2048.699" fill-rule="evenodd"/>
<path d="M7538.031 1788.535 7620.984 2048.699H7700.461C7686.168 2091.594 7626.875 2105.98 7530.062 2105.98V2180.98C7674.77 2180.98 7700.461 2112.438 7722.242 2048.699L7805.195 1788.535H7707.691L7680.465 1973.699H7674.77L7647.539 1788.535ZM7538.031 1788.535" fill-rule="evenodd"/>
<path d="M7860.824 1788.535V1886.031H8025.098L7860.824 1951.203V2048.699H8085.848V1951.203H7921.57L8085.848 1886.031V1788.535ZM7860.824 1788.535" fill-rule="evenodd"/>
<path d="M2029.727 1787.918C1941.535 1787.918 1886.371 1839.262 1886.371 1918 1886.371 1973.414 1912.91 2015.262 1959.926 2035.191 1959.184 2035.387 1958.449 2035.59 1957.715 2035.789 1890.898 2054.246 1872.074 2153.246 1992.617 2155.602 2068.148 2157.078 2165.805 2136.016 2171.578 2177.008H2194.082C2194.535 2028.711 1993.5 2054.777 1950.551 2081.004L1944.34 2069.18C1962.93 2055.602 1992.66 2048.535 2026.051 2048.055 2027.27 2048.082 2028.492 2048.082 2029.727 2048.082 2119.504 2048.082 2173.078 1999.477 2173.078 1916.5 2173.078 1887.898 2166.527 1863.742 2154.328 1844.359 2153.758 1843.449 2153.172 1842.555 2152.578 1841.668 2147.754 1833.547 2146.949 1824.434 2172.691 1824.434L2172.602 1788.531C2141.629 1788.531 2132.887 1804.129 2133.242 1820.027 2108.48 1798.945 2073.094 1787.914 2029.727 1787.914ZM2029.727 1862.918C2055.043 1862.918 2075.57 1887.578 2075.57 1918 2075.57 1948.422 2055.043 1973.082 2029.727 1973.082 2004.406 1973.082 1983.883 1948.422 1983.883 1918 1983.883 1887.578 2004.406 1862.918 2029.727 1862.918ZM2029.727 1862.918" fill-rule="evenodd"/>
<path d="M2631.863 1688.695C2599.078 1688.695 2572.504 1701.391 2572.504 1732.824 2572.504 1764.258 2599.078 1776.953 2631.863 1776.953 2664.648 1776.953 2691.223 1762.934 2691.223 1732.824 2691.223 1702.715 2664.648 1688.695 2631.863 1688.695ZM2581.609 1788.535V2048.699H2679.117V1788.535ZM2581.609 1788.535" fill-rule="evenodd"/>
<path d="M2861.066 1688.695C2828.281 1688.695 2801.703 1701.391 2801.703 1732.824 2801.703 1764.258 2828.281 1776.953 2861.066 1776.953 2893.848 1776.953 2920.426 1762.934 2920.426 1732.824 2920.426 1702.715 2893.848 1688.695 2861.066 1688.695ZM2810.809 1788.535V1991.523C2810.809 2012.051 2805.102 2025.73 2796.516 2034.68 2787.934 2043.633 2774.676 2051.035 2746.855 2051.035V2148.539C2795.02 2148.539 2838.125 2132.168 2866.895 2102.164 2895.668 2072.16 2908.32 2031.707 2908.32 1991.523V1788.535ZM2810.809 1788.535" fill-rule="evenodd"/>
<path d="M3299.082 1688.695H3396.586V2048.699H3299.082Z" fill-rule="evenodd"/>
<path d="M2976.059 1688.695V2048.699H3073.562V1935.238H3079.527L3145.945 2048.699H3243.449L3153.066 1918.617 3229.199 1788.535H3131.695L3079.605 1910.859H3073.562V1688.695ZM2976.059 1688.695" fill-rule="evenodd"/>
<path d="M6714.82 1788.535 6797.773 2048.699H6899.031L6933.23 1941.438 6967.43 2048.699H7068.691L7151.641 1788.535H7042.133L7014.906 1973.699H7009.211L6981.984 1788.535H6884.48L6857.254 1973.699H6851.555L6824.328 1788.535ZM6714.82 1788.535" fill-rule="evenodd"/>
<path d="M7207.27 1788.535 7290.223 1918.617 7207.27 2048.699H7316.777L7338.828 1956.117H7342.875L7364.926 2048.699H7474.434L7391.48 1918.617 7474.434 1788.535H7364.926L7342.875 1881.117H7338.828L7316.777 1788.535ZM7207.27 1788.535" fill-rule="evenodd"/>
<path d="M5653.348 1788.875C5628.41 1789.164 5604.051 1792.707 5583.984 1801.789 5512.926 1833.949 5533.195 1893.023 5580.832 1913.887 5601.781 1923.062 5626.902 1926.859 5650.73 1931.059 5665.301 1933.629 5679.387 1936.344 5691.742 1940.531 5701.242 1943.754 5717.887 1958.094 5693.836 1968.98 5676.16 1976.98 5596.199 1976.281 5538.504 1956.277V2030.656C5597.098 2047.285 5666 2058.711 5720.129 2035.906 5790.586 2004.02 5773.977 1941.953 5715.602 1920.742 5698.266 1914.445 5678.695 1911.047 5659.676 1907.73 5642.832 1904.793 5626.422 1901.922 5612.371 1897.16 5602.871 1893.938 5586.227 1879.598 5610.277 1868.711 5628.809 1860.328 5707.91 1855.754 5765.594 1878.473V1803.957C5738.062 1796.949 5694.906 1788.395 5653.348 1788.875ZM5653.348 1788.875" fill-rule="evenodd"/>
<path d="M5874.16 1704.531C5874.16 1746.535 5870.773 1788.535 5843.367 1788.535H5822.129L5822.305 1810.312H5843.367V1983.242C5854.184 2063.613 5958.391 2055.703 6013.609 2034.07V1959.691C6006.672 1962.902 5940.875 1991.062 5940.875 1938.051V1810.312H5984.484L5984.301 1788.535H5884.879L5884.715 1779.535C5920.539 1779.535 5940.871 1762.195 5940.871 1704.531ZM5874.16 1704.531" fill-rule="evenodd"/>
<path d="M102.293 906.012 19.344 1266.016H128.852L137.172 1158.434H168.672L176.996 1266.016H286.504L203.555 906.012ZM150.898 981.012H154.945L166.93 1135.934H138.914ZM150.898 981.012" fill-rule="evenodd"/>
<path d="M6977.664 1266.016 7060.617 906.012H6951.109L6929.059 1191.016H6925.012L6902.961 906.012H6793.453L6876.406 1266.016ZM6977.664 1266.016" fill-rule="evenodd"/>
<path d="M7135.625 906.012 7218.574 1266.016H7319.836L7348.031 1143.645 7376.227 1266.016H7477.488L7560.441 906.012H7450.934L7428.883 1191.016H7424.836L7402.785 906.012H7293.277L7271.227 1191.016H7267.18L7245.133 906.012ZM7135.625 906.012" fill-rule="evenodd"/>
<path d="M7635.449 906.012 7718.398 1086.016 7635.449 1266.016H7744.957L7767.004 1123.516H7771.051L7793.102 1266.016H7902.609L7819.656 1086.016 7902.609 906.012H7793.102L7771.051 1048.516H7767.004L7744.957 906.012ZM7635.449 906.012" fill-rule="evenodd"/>
<path d="M7977.617 906.012 8062.438 1086.012V1266.016H8159.953V1086.012L8244.777 906.012H8135.27L8113.219 1048.516H8109.172L8087.125 906.012ZM7977.617 906.012" fill-rule="evenodd"/>
<path d="M2519.105 906.012V1266.016H2616.617V1103.352H2686.703V1266.016H2784.207V906.012H2686.703V1080.852H2616.617V906.012ZM2519.105 906.012" fill-rule="evenodd"/>
<path d="M2859.215 906.012H2956.727V1266.016H2859.215Z" fill-rule="evenodd"/>
<path d="M3095.688 906.012V1109.004C3095.688 1129.531 3089.98 1143.207 3081.395 1152.16 3072.812 1161.109 3059.559 1168.52 3031.734 1168.52V1266.016C3079.898 1266.016 3123.004 1249.645 3151.777 1219.645 3180.547 1189.641 3193.199 1149.188 3193.199 1109.004V906.012ZM3095.688 906.012" fill-rule="evenodd"/>
<path d="M8289.781 906.012V1003.512H8501.613L8289.781 1168.516V1266.016H8538V1168.516H8326.172L8538 1003.512V906.012ZM8289.781 906.012" fill-rule="evenodd"/>
<path d="M4684.801 906.012V1266.016H4782.312V1113.676H4827.402C4880.426 1113.676 4923.41 1067.191 4923.41 1009.844 4923.41 952.5 4880.426 906.012 4827.402 906.012ZM4782.312 1003.512H4793.648V1003.516C4818.09 1003.516 4837.902 1023.141 4837.902 1047.348 4837.902 1071.555 4818.09 1091.176 4793.648 1091.176H4782.312ZM4782.312 1003.512" fill-rule="evenodd"/>
<path d="M361.512 906.012V1266.016H514.988C647.59 1266.016 642.766 1072.758 537.867 1072.758V1063.758C623.289 1063.758 630.164 906.012 514.988 906.012ZM459.016 1003.516H479.523C495.398 1003.598 508.238 1015.844 508.238 1030.934 508.238 1046.055 495.348 1058.316 479.434 1058.352H459.016ZM459.016 1080.852H479.363C503.801 1080.852 523.613 1100.477 523.613 1124.684 523.613 1148.832 503.898 1168.422 479.539 1168.516H459.016ZM459.016 1080.852" fill-rule="evenodd"/>
<path d="M4421.008 906.012C4163.371 906.012 4175.465 1266.016 4421.008 1266.016 4663.387 1266.016 4681.891 906.012 4421.008 906.012ZM4421.008 981.012C4534.906 981.012 4534.211 1191.016 4421.008 1191.016 4308.066 1191.016 4307.367 981.012 4421.008 981.012ZM4421.008 981.012" fill-rule="evenodd"/>
<path d="M879.344 906.012C621.707 906.012 633.805 1266.016 879.344 1266.016 961.223 1266.016 1017.551 1224.938 1046.195 1170.531L959.426 1123.516C948.93 1160.922 922.199 1191.016 879.344 1191.016 766.402 1191.016 765.703 981.012 879.344 981.012 922.465 981.012 949.16 1011.109 959.547 1048.516L1052.266 1005.852C1026.676 949.297 969.809 906.012 879.344 906.012ZM879.344 906.012" fill-rule="evenodd"/>
<path d="M2271.176 906.012C2013.539 906.012 2015.508 1266.016 2261.051 1266.016 2326.012 1266.016 2354.223 1197.523 2357.234 1191.211H2366.234C2356.531 1216.145 2346.645 1232.312 2346.586 1265.707L2444.098 1266.016V1080.852H2264.285V1103.352H2346.586C2346.586 1153.418 2327.75 1191.016 2271.176 1191.016 2158.234 1191.016 2157.535 981.012 2271.176 981.012 2314.293 981.012 2340.988 1011.109 2351.375 1048.516L2444.098 1005.852C2418.508 949.297 2361.637 906.012 2271.176 906.012ZM2271.176 906.012" fill-rule="evenodd"/>
<path d="M1537.355 906.012V1266.016H1732.375V1168.516H1634.871V1103.352H1694.188V1080.852H1634.871V1003.516H1732.375V906.012ZM1537.355 906.012" fill-rule="evenodd"/>
<path d="M1807.383 906.012V1266.016H1904.895V1103.352H1964.215V1080.852H1904.895V1003.516H2002.402V906.012ZM1807.383 906.012" fill-rule="evenodd"/>
<path d="M1127.273 906.012V1266.016H1273.562C1515.941 1266.016 1534.445 906.012 1273.562 906.012ZM1224.785 981.012H1273.562C1387.461 981.012 1386.766 1191.016 1273.562 1191.016H1224.785ZM1224.785 981.012" fill-rule="evenodd"/>
<path d="M3268.207 906.012V1266.016H3365.719V1124.688H3373.406L3440.395 1266.016H3548.301L3465.473 1091.27 3530.332 906.012H3427.02L3376.719 1049.684H3365.719V906.012ZM3268.207 906.012" fill-rule="evenodd"/>
<path d="M3623.309 906.012V1266.016H3818.324V1168.516H3720.82V906.012ZM3623.309 906.012" fill-rule="evenodd"/>
<path d="M5187.137 906.012C4929.5 906.012 4941.594 1266.016 5187.137 1266.016 5215.117 1266.016 5270.984 1289.785 5316.812 1370.969L5385.023 1301.301C5345.066 1261.113 5301.895 1252.297 5248.031 1252.297V1243.297H5248.379C5402.586 1242.742 5449.086 906.012 5187.137 906.012ZM5187.137 981.012C5301.035 981.012 5300.34 1191.016 5187.137 1191.016 5074.195 1191.016 5073.496 981.012 5187.137 981.012ZM5187.137 981.012" fill-rule="evenodd"/>
<path d="M5450.93 906.012V1266.016H5548.441V1113.676H5593.531C5646.555 1113.676 5689.539 1067.191 5689.539 1009.844 5689.539 952.5 5646.555 906.012 5593.531 906.012ZM5548.441 1003.512H5559.777V1003.516C5584.219 1003.516 5604.031 1023.141 5604.031 1047.348 5604.031 1071.555 5584.219 1091.176 5559.777 1091.176H5548.441ZM5559.738 1113.68C5559.738 1169.738 5581.207 1266.016 5693.219 1266.016L5693.645 1168.547C5627.527 1170.293 5582.238 1137.031 5582.238 1113.68ZM5559.738 1113.68" fill-rule="evenodd"/>
<path d="M5916.18 906.039C5884.379 906.441 5853.312 911.348 5827.719 923.93 5737.094 968.488 5762.945 1050.336 5823.699 1079.238 5867.156 1099.914 5923.078 1100.664 5965.145 1116.156 5977.266 1120.617 5998.488 1144.988 5967.816 1160.07 5945.277 1171.152 5843.301 1170.184 5769.715 1142.469V1241.02C5844.445 1264.059 5932.32 1279.887 6001.352 1248.293 6091.207 1204.113 6070.023 1118.125 5995.574 1088.738 5953.562 1072.152 5902.438 1070.246 5863.922 1056.062 5851.805 1051.602 5830.578 1027.23 5861.254 1012.148 5884.887 1000.531 5963.266 994.199 6036.832 1025.672V926.934C6001.719 917.223 5969.18 905.371 5916.18 906.039ZM5916.18 906.039" fill-rule="evenodd"/>
<path d="M193.711 2429.156C-63.926 2429.152-51.832 2789.16 193.711 2789.16 436.09 2789.16 454.594 2429.156 193.711 2429.156ZM193.711 2504.156C307.609 2504.156 306.914 2714.156 193.711 2714.16 80.77 2714.16 80.07 2504.156 193.711 2504.156ZM193.711 2504.156" fill-rule="evenodd"/>
<path d="M489.668 2429.156C489.668 2436.953 486.43 2450.297 481.852 2456.855 477.27 2463.41 475.539 2467.074 457.504 2467.074V2564.57C468.699 2564.57 479.48 2563.168 489.668 2560.625V2789.16H587.176V2429.156ZM489.668 2429.156" fill-rule="evenodd"/>
<path d="M785.484 2429.184C732.484 2428.516 699.949 2440.367 664.836 2450.074V2548.816C705.195 2531.547 747.004 2525.66 780.426 2525.781 811.652 2525.895 859.664 2530.742 856.062 2559.805 850.555 2604.27 662.184 2619.348 662.184 2740.031V2789.16H931.949V2691.656H703.516C725.934 2652.836 834.512 2629.059 877.965 2608.383 909.836 2593.219 932.102 2561.84 932.988 2528.992 933.793 2499.227 917.031 2468.258 873.945 2447.074 848.355 2434.492 817.289 2429.582 785.484 2429.184ZM785.484 2429.184" fill-rule="evenodd"/>
<path d="M1128.676 2429.18C1075.676 2428.516 1043.137 2440.367 1008.023 2450.074V2548.812C1048.383 2531.547 1090.191 2525.781 1123.613 2525.781 1192 2525.781 1175.934 2599.992 1131.512 2603.84 1130.328 2603.941 1129.125 2603.996 1127.906 2603.996V2626.496C1175.02 2626.496 1193.82 2692.531 1123.613 2692.531 1090.191 2692.531 1048.383 2686.766 1008.023 2669.5V2768.238C1043.137 2777.949 1075.676 2789.801 1128.676 2789.133 1234.305 2787.805 1276.219 2736.938 1274.902 2690.211 1273.766 2650.074 1240.73 2612.996 1188.766 2612.996V2603.996C1231.027 2603.996 1263.316 2560.398 1260.98 2516.746 1258.672 2473.582 1222.516 2430.363 1128.676 2429.184ZM1128.676 2429.18" fill-rule="evenodd"/>
<path d="M1482.262 2429.156 1349.938 2626.5V2701.5H1482.262V2789.16H1579.773V2701.5H1606.293V2626.5H1579.773V2429.156ZM1482.262 2469.559V2626.5H1377.031ZM1482.262 2469.559" fill-rule="evenodd"/>
<path d="M1700.996 2428.91 1693.449 2603.754 1715.93 2604.723C1782.082 2573.219 1831.246 2607.766 1831.258 2649.609 1831.285 2715.43 1704.328 2692.688 1681.297 2665.855V2764.402C1704.465 2778.371 1748.211 2789.688 1796.043 2789.398 1895.438 2788.801 1935.398 2736.652 1936.84 2682.238 1939.992 2563.301 1780.289 2536.66 1717.219 2574.895L1719.289 2526.898H1929.762V2429.398H1712.238ZM1700.996 2428.91" fill-rule="evenodd"/>
<path d="M2381.043 2429.156V2526.652L2505.219 2527.629H2543.164C2516.383 2577.016 2416.762 2648.359 2416.762 2789.16H2514.27C2514.27 2657.938 2596.98 2577.746 2596.98 2477.902V2429.156ZM2381.043 2429.156" fill-rule="evenodd"/>
<path d="M2021.375 2535.832C2008.586 2574.566 1981.312 2789.789 2160.836 2789.789 2258.156 2789.789 2306.035 2735.812 2306.035 2681.832 2306.035 2551.98 2144.254 2546.953 2098.746 2599.707 2100.828 2562.082 2148.172 2490.348 2286.301 2549.445V2450.707C2238.336 2429.766 2070.535 2386.906 2021.375 2535.832ZM2160.836 2604.625C2186.152 2604.625 2206.68 2629.285 2206.68 2659.707 2206.68 2690.129 2186.152 2714.789 2160.836 2714.789 2098.832 2714.789 2107.809 2604.625 2160.836 2604.625ZM2160.836 2604.625" fill-rule="evenodd"/>
<path d="M3303.727 2682.484C3316.516 2643.746 3343.789 2428.523 3164.266 2428.523 3066.945 2428.523 3019.066 2482.504 3019.066 2536.484 3019.066 2666.336 3180.848 2671.359 3226.355 2618.605 3224.273 2656.234 3176.926 2727.965 3038.801 2668.871V2767.609C3086.766 2788.547 3254.566 2831.406 3303.727 2682.484ZM3164.266 2613.691C3138.945 2613.691 3118.422 2589.027 3118.422 2558.609 3118.422 2528.188 3138.945 2503.527 3164.266 2503.527 3226.27 2503.523 3217.293 2613.691 3164.266 2613.691ZM3164.266 2613.691" fill-rule="evenodd"/>
<path d="M2749.434 2586.914V2595.914C2645.348 2595.914 2629.086 2787.816 2807.941 2789.172 2988.395 2790.539 2969.562 2595.914 2866.441 2595.914V2586.914C2952.188 2586.914 2968.078 2431.227 2807.938 2429.156 2644.938 2427.047 2665.832 2586.914 2749.434 2586.914ZM2807.773 2526.672H2808.094C2823.969 2526.754 2836.809 2539 2836.809 2554.09 2836.809 2569.211 2823.918 2581.473 2808.004 2581.508H2807.859C2791.945 2581.473 2779.059 2569.211 2779.055 2554.09 2779.055 2539 2791.895 2526.754 2807.77 2526.672ZM2807.938 2604.008C2832.379 2604.012 2852.191 2623.633 2852.191 2647.84 2852.191 2671.988 2832.473 2691.578 2808.113 2691.672H2807.762C2783.402 2691.578 2763.684 2671.988 2763.684 2647.84 2763.688 2623.633 2783.496 2604.012 2807.938 2604.008ZM2807.938 2604.008" fill-rule="evenodd"/>
<path d="M612.285 4009.543 452.902 4125.918 452.898 4148.418 612.285 4264.793 625.559 4246.621 475.648 4137.168 625.559 4027.711ZM612.285 4009.543" fill-rule="evenodd"/>
<path d="M39.004 3172.523 76.508 3412.527H99.012L136.512 3172.523ZM39.004 3172.523" fill-rule="evenodd"/>
<path d="M136.512 3483.777C136.512 3517.039 114.684 3532.527 87.758 3532.527 60.832 3532.527 39.004 3518.5 39.004 3483.777 39.004 3449.051 60.832 3435.027 87.758 3435.027 114.684 3435.027 136.512 3450.516 136.512 3483.777ZM136.512 3483.777" fill-rule="evenodd"/>
<path d="M251.047 3172.523C224.121 3172.523 202.293 3186.547 202.293 3221.273 202.293 3255.996 224.121 3270.023 251.047 3270.023 252.766 3270.023 254.465 3269.961 256.137 3269.832 249.074 3278.305 239.602 3287.215 226.832 3295.758L239.348 3314.461C297.203 3275.754 299.805 3229.309 299.805 3221.273 299.805 3188.012 277.973 3172.52 251.047 3172.52ZM251.047 3172.523" fill-rule="evenodd"/>
<path d="M360.836 3172.523C333.91 3172.523 312.082 3186.547 312.082 3221.273 312.082 3255.996 333.91 3270.023 360.836 3270.023 362.555 3270.023 364.254 3269.961 365.926 3269.832 358.867 3278.305 349.391 3287.215 336.621 3295.758L349.137 3314.461C406.992 3275.754 409.594 3229.309 409.594 3221.273 409.594 3188.012 387.766 3172.52 360.836 3172.52ZM360.836 3172.523" fill-rule="evenodd"/>
<path d="M518.324 3172.523 499.777 3259.941H476.707V3282.441H495.004L465.27 3422.605H437.422V3445.105H460.496L441.949 3532.527H539.457L558 3445.105H628.512L609.965 3532.527H707.473L726.02 3445.105H749.094V3422.605H730.793L760.531 3282.441H788.379V3259.941H765.301L783.848 3172.523H686.344L667.797 3259.941H597.285L615.832 3172.523ZM592.512 3282.441H663.023L633.285 3422.605H562.773ZM592.512 3282.441" fill-rule="evenodd"/>
<path d="M1011.777 3150.023V3172.969C984.527 3174.418 958.309 3179.562 936.18 3190.441 845.555 3234.996 871.406 3316.848 932.16 3345.75 956.352 3357.262 984.402 3362.594 1011.777 3367.734V3433.023C971.344 3431.891 920.141 3424.785 878.176 3408.977V3507.531C920.434 3520.559 966.898 3531.281 1011.777 3532.426V3555.027H1034.281V3532.156C1060.793 3530.785 1086.387 3525.523 1109.812 3514.801 1199.664 3470.625 1178.484 3384.637 1104.035 3355.246 1082.227 3346.641 1057.961 3341.984 1034.281 3337.516V3269.168C1066.898 3269.582 1106.754 3275.695 1145.293 3292.184V3193.445C1112.359 3184.336 1081.691 3173.344 1034.281 3172.566V3150.023ZM1011.777 3269.82V3333.148C997.852 3330.277 984.492 3327.035 972.383 3322.574 960.266 3318.109 939.039 3293.742 969.715 3278.66 977.941 3274.617 992.797 3271.215 1011.777 3269.82ZM1034.281 3372.09C1048.121 3374.941 1061.441 3378.188 1073.605 3382.664 1085.723 3387.129 1106.949 3411.5 1076.277 3426.578 1069.125 3430.094 1053.98 3432.398 1034.281 3433.02ZM1034.281 3372.09" fill-rule="evenodd"/>
<path d="M1306.512 3172.523C1247.246 3172.523 1210.176 3207.027 1210.176 3259.941 1210.176 3312.855 1246.176 3347.363 1306.512 3347.363 1366.848 3347.363 1402.852 3314.699 1402.852 3258.934 1402.852 3203.168 1365.777 3172.523 1306.512 3172.523ZM1504.047 3172.523 1288.023 3532.527H1310.527L1526.547 3172.523ZM1306.512 3222.926C1323.527 3222.926 1337.324 3239.5 1337.324 3259.941 1337.324 3280.387 1323.527 3296.961 1306.512 3296.961 1289.496 3296.961 1275.703 3280.387 1275.703 3259.941 1275.703 3239.5 1289.496 3222.926 1306.512 3222.926ZM1508.059 3357.688C1448.793 3357.688 1411.719 3392.195 1411.719 3445.109 1411.719 3498.023 1447.723 3532.527 1508.059 3532.527 1568.395 3532.527 1604.395 3499.863 1604.395 3444.098 1604.395 3388.336 1567.324 3357.688 1508.059 3357.688ZM1508.059 3408.09C1525.074 3408.09 1538.867 3424.664 1538.867 3445.109 1538.867 3465.555 1525.074 3482.125 1508.059 3482.125 1491.043 3482.125 1477.25 3465.551 1477.25 3445.109 1477.25 3424.664 1491.043 3408.09 1508.059 3408.09ZM1508.059 3408.09" fill-rule="evenodd"/>
<path d="M1851.18 3172.547V3172.551C1757.344 3173.73 1721.184 3216.949 1718.875 3260.113 1716.539 3303.766 1748.828 3347.363 1791.09 3347.363V3356.363C1739.129 3356.363 1706.09 3393.441 1704.957 3433.582 1703.637 3480.305 1740.801 3532.527 1868.176 3532.527 1892.578 3532.527 1929.734 3521.355 1952.301 3486.996L2000.922 3532.527H2030.887L1962.375 3467.496C1968.285 3452.566 1971.832 3434.527 1971.832 3412.867H1949.332C1949.332 3427.117 1947.43 3439.488 1944.121 3450.168L1825.492 3337.566C1799.91 3308.48 1801.574 3269.148 1856.242 3269.148 1889.668 3269.148 1931.473 3274.914 1971.832 3292.18V3193.441C1936.719 3183.734 1904.184 3171.883 1851.18 3172.547ZM1834.406 3376.598 1934.93 3470.727C1918.203 3498.094 1890.109 3508.555 1868.176 3508.555 1789.777 3508.555 1799.695 3404.371 1834.406 3376.598ZM1834.406 3376.598" fill-rule="evenodd"/>
<path d="M2130.195 3172.523C2103.266 3172.523 2081.438 3186.547 2081.438 3221.273 2081.438 3255.996 2103.266 3270.023 2130.195 3270.023 2131.91 3270.023 2133.609 3269.961 2135.281 3269.832 2128.223 3278.305 2118.746 3287.215 2105.98 3295.758L2118.492 3314.461C2176.348 3275.754 2178.949 3229.309 2178.949 3221.273 2178.949 3188.012 2157.121 3172.52 2130.195 3172.52ZM2130.195 3172.523" fill-rule="evenodd"/>
<path d="M2241.984 3358.82C2241.363 3509.75 2294.879 3589.793 2383.523 3589.793V3567.293C2358.527 3567.293 2338.262 3473.957 2338.262 3358.82 2338.262 3243.684 2358.527 3150.348 2383.523 3150.348V3127.844C2288.68 3127.844 2242.602 3207.887 2241.984 3358.82ZM2241.984 3358.82" fill-rule="evenodd"/>
<path d="M2607.043 3358.82C2607.66 3509.75 2554.145 3589.793 2465.5 3589.793V3567.293C2490.5 3567.293 2510.766 3473.957 2510.766 3358.82 2510.766 3243.684 2490.5 3150.348 2465.5 3150.348V3127.844C2560.344 3127.844 2606.422 3207.887 2607.043 3358.82ZM2607.043 3358.82" fill-rule="evenodd"/>
<path d="M2685.547 3172.523 2689.594 3190.48 2676.062 3177.996 2653.562 3216.969 2671.141 3222.441 2653.562 3227.918 2676.062 3266.887 2689.594 3254.402 2685.547 3272.363H2730.551L2726.504 3254.402 2740.031 3266.887 2762.535 3227.918 2744.957 3222.441 2762.535 3216.969 2740.031 3177.996 2726.504 3190.48 2730.551 3172.523ZM2685.547 3172.523" fill-rule="evenodd"/>
<path d="M2897.352 3260.148H2919.852V3457.488H2897.352Z" fill-rule="evenodd"/>
<path d="M2809.922 3347.57H3007.281V3370.07H2809.922Z" fill-rule="evenodd"/>
<path d="M3196.039 3347.57H3393.398V3370.07H3196.039Z" fill-rule="evenodd"/>
<path d="M3084.289 3435.027C3057.363 3435.027 3035.535 3449.051 3035.535 3483.777 3035.535 3518.5 3057.363 3532.527 3084.289 3532.527 3086.008 3532.527 3087.703 3532.465 3089.375 3532.34 3082.316 3540.812 3072.844 3549.719 3060.074 3558.262L3072.586 3576.965C3130.445 3538.258 3133.043 3491.812 3133.043 3483.777 3133.043 3450.516 3111.215 3435.027 3084.289 3435.027ZM3084.289 3435.027" fill-rule="evenodd"/>
<path d="M3577.637 3483.777C3577.637 3517.039 3555.809 3532.527 3528.883 3532.527 3501.953 3532.527 3480.125 3518.5 3480.125 3483.777 3480.125 3449.051 3501.953 3435.027 3528.883 3435.027 3555.809 3435.027 3577.637 3450.516 3577.637 3483.777ZM3577.637 3483.777" fill-rule="evenodd"/>
<path d="M3927.066 3172.523 3711.047 3532.527H3733.551L3949.57 3172.523ZM3927.066 3172.523" fill-rule="evenodd"/>
<path d="M97.508 4262.332C97.508 4295.594 75.68 4311.082 48.754 4311.082 21.828 4311.082 0 4297.055 0 4262.332 0 4227.605 21.828 4213.582 48.754 4213.582 75.68 4213.582 97.508 4229.07 97.508 4262.332ZM97.508 4262.332" fill-rule="evenodd"/>
<path d="M97.508 4099.668C97.508 4132.93 75.68 4148.418 48.754 4148.418 21.828 4148.418 0 4134.391 0 4099.668 0 4064.941 21.828 4050.918 48.754 4050.918 75.68 4050.918 97.508 4066.406 97.508 4099.668ZM97.508 4099.668" fill-rule="evenodd"/>
<path d="M234.023 4099.668C234.023 4132.93 212.195 4148.418 185.27 4148.418 158.344 4148.418 136.512 4134.391 136.512 4099.668 136.512 4064.941 158.344 4050.918 185.27 4050.918 212.195 4050.918 234.023 4066.406 234.023 4099.668ZM234.023 4099.668" fill-rule="evenodd"/>
<path d="M185.27 4213.582C158.34 4213.582 136.512 4227.609 136.512 4262.332 136.512 4297.055 158.34 4311.082 185.27 4311.082 186.988 4311.082 188.684 4311.02 190.355 4310.895 183.297 4319.367 173.824 4328.273 161.055 4336.816L173.566 4355.52C231.422 4316.812 234.023 4270.367 234.023 4262.332 234.023 4229.07 212.195 4213.582 185.27 4213.582ZM185.27 4213.582" fill-rule="evenodd"/>
<path d="M877.742 4009.543 1037.129 4125.918V4148.418L877.742 4264.793 864.473 4246.621 1014.379 4137.168 864.473 4027.711ZM877.742 4009.543" fill-rule="evenodd"/>
<path d="M638.914 4075.895V4098.395H836.27V4075.895ZM638.914 4175.941V4198.441H836.27V4175.941ZM638.914 4175.941" fill-rule="evenodd"/>
<path d="M1397.762 4050.918C1396.879 4083.762 1374.613 4115.145 1342.742 4130.305 1299.285 4150.98 1273.625 4153.309 1273.625 4191.082H1251.125C1251.125 4122.891 1315.328 4126.195 1320.84 4081.727 1324.859 4049.258 1254.551 4028.195 1155.113 4070.738V3972C1195.027 3958.535 1230.473 3949.398 1266.875 3951.078 1318.805 3953.469 1399.598 3982.91 1397.762 4050.918ZM1397.762 4050.918" fill-rule="evenodd"/>
<path d="M1311.129 4262.332C1311.129 4295.594 1289.301 4311.082 1262.375 4311.082 1235.449 4311.082 1213.621 4297.055 1213.621 4262.332 1213.621 4227.605 1235.449 4213.582 1262.375 4213.582 1289.301 4213.582 1311.129 4229.07 1311.129 4262.332ZM1311.129 4262.332" fill-rule="evenodd"/>
<path d="M1618.344 3950.68C1518.945 3950.68 1438.133 4031.492 1438.133 4130.879 1438.133 4230.27 1518.945 4311.082 1618.344 4311.082V4288.582C1531.109 4288.582 1460.633 4218.109 1460.633 4130.879 1460.633 4043.652 1531.109 3973.18 1618.344 3973.18 1705.582 3973.18 1776.059 4043.652 1776.059 4130.879 1776.059 4162.215 1767.352 4191.102 1752.844 4211.562 1746.949 4219.875 1716.285 4237.668 1716.285 4191.082V4128.953C1716.285 4048.113 1656.754 4027.457 1605.938 4024.492 1598.316 4024.047 1590.891 4024.004 1583.891 4024.211V4024.207C1562.891 4024.832 1545.727 4027.746 1538.621 4029.082V4090.633C1577.672 4082.559 1633.781 4080.117 1636.184 4125.855 1555.379 4111.484 1520.465 4139.426 1520.41 4181.773 1520.328 4242.844 1588.977 4254.598 1623.332 4213.465 1635.418 4196.652 1640.668 4179.859 1641.766 4167.359L1649.289 4167.41C1649.289 4176.262 1646.691 4191.934 1644.348 4204.066 1640.27 4223.492 1644.121 4240.387 1654.344 4251.465 1664.574 4262.543 1679.574 4267.043 1694.887 4266.879 1726.684 4266.531 1753.426 4249.637 1771.199 4224.574 1788.973 4199.512 1798.562 4166.324 1798.562 4130.879 1798.562 4031.492 1717.742 3950.676 1618.344 3950.676ZM1636.266 4132.027V4155.547C1635.793 4165.523 1628.57 4179.684 1617.109 4179.766 1584.98 4180.004 1587.555 4131.984 1636.266 4132.027ZM1636.266 4132.027" fill-rule="evenodd"/>
<path d="M1875.949 3906.078V4355.285H2019.969V4332.785H1973.461V3928.578H2019.969V3906.078ZM1875.949 3906.078" fill-rule="evenodd"/>
<path d="M2523.383 3906.078V4355.285H2379.363V4332.785H2425.871V3928.578H2379.363V3906.078ZM2523.383 3906.078" fill-rule="evenodd"/>
<path d="M3413.422 3906.078H3435.922V4355.2849H3413.422Z" fill-rule="evenodd"/>
<path d="M2649.68 3951.078 2620.125 4050.918H2643.594L2660.465 3993.91 2677.34 4050.918H2700.809L2671.254 3951.078ZM2649.68 3951.078" fill-rule="evenodd"/>
<path d="M2746.426 4311.082H2943.781V4333.582H2746.426Z" fill-rule="evenodd"/>
<path d="M2944.309 3951.078 3022.227 4050.918H3045.695L3016.141 3951.078ZM2944.309 3951.078" fill-rule="evenodd"/>
<path d="M3288.41 3906.078C3241.297 3906.078 3216.402 3931.953 3216.402 3970.664V4050.918C3216.402 4080.152 3216.402 4125.918 3169.895 4125.918V4148.418C3216.402 4148.418 3216.402 4194.184 3216.402 4223.418V4303.668C3216.402 4342.383 3241.297 4368.258 3288.41 4368.258H3360.422V4345.758C3330.172 4345.758 3314.289 4332.293 3314.289 4303.668L3313.914 4216.316C3313.914 4168.965 3300.328 4141.316 3238.156 4141.316V4132.316C3300.328 4132.316 3313.914 4104.668 3313.914 4057.316L3314.289 3970.664C3314.289 3942.043 3330.172 3928.578 3360.422 3928.578V3906.078ZM3288.41 3906.078" fill-rule="evenodd"/>
<path d="M3593.152 3906.078C3640.266 3906.078 3665.16 3931.953 3665.16 3970.664V4050.918C3665.16 4080.152 3665.16 4125.918 3711.668 4125.918V4148.418C3665.16 4148.418 3665.16 4194.184 3665.16 4223.418V4303.668C3665.16 4342.383 3640.266 4368.258 3593.152 4368.258H3521.141V4345.758C3551.391 4345.758 3567.273 4332.293 3567.273 4303.668L3567.648 4216.316C3567.648 4168.965 3581.234 4141.316 3643.406 4141.316V4132.316C3581.234 4132.316 3567.648 4104.668 3567.648 4057.316L3567.273 3970.664C3567.273 3942.043 3551.391 3928.578 3521.141 3928.578V3906.078ZM3593.152 3906.078" fill-rule="evenodd"/>
<path d="M2104.082 3951.078 2320.102 4311.082H2297.602L2081.578 3951.078ZM2104.082 3951.078" fill-rule="evenodd"/>
<path d="M3992.836 4026.078V4051.422C3913.352 4056.902 3864.336 4106.781 3864.336 4181 3864.336 4255.293 3912.031 4305.199 3992.836 4310.594V4333.582H4015.336V4310.961C4080.867 4308.883 4125.898 4279.891 4143.18 4229.914L4049.57 4203.438C4043.418 4219.988 4030.668 4232.227 4015.336 4235.32V4126.68C4030.668 4129.773 4043.418 4142.008 4049.57 4158.559L4143.836 4131.898C4126.859 4081.207 4080.797 4053.051 4015.336 4051.035V4026.078ZM3992.836 4128.875V4233.125C3974.809 4225.711 3961.848 4205.172 3961.848 4181 3961.848 4156.824 3974.809 4136.289 3992.836 4128.875ZM3992.836 4128.875" fill-rule="evenodd"/>
<path d="M4228.117 3951.078 4312.941 4131.078V4133.785H4277.066V4156.285H4312.941V4179.832H4277.066V4202.332H4312.941V4311.082H4410.453V4202.332H4446.328V4179.832H4410.453V4156.285H4446.328V4133.785H4410.453V4131.078L4495.277 3951.078H4385.77L4363.719 4093.582H4359.676L4337.625 3951.078ZM4228.117 3951.078" fill-rule="evenodd"/>
<path d="M4661.98 3999.828C4661.98 4033.09 4640.152 4048.578 4613.227 4048.578 4586.301 4048.578 4564.473 4034.555 4564.473 3999.828 4564.473 3965.105 4586.301 3951.078 4613.227 3951.078 4640.152 3951.078 4661.98 3966.566 4661.98 3999.828ZM4661.98 3999.828" fill-rule="evenodd"/>
<path d="M4773.363 3999.828C4773.363 4033.09 4751.535 4048.578 4724.609 4048.578 4697.68 4048.578 4675.852 4034.555 4675.852 3999.828 4675.852 3965.105 4697.68 3951.078 4724.609 3951.078 4751.535 3951.078 4773.363 3966.566 4773.363 3999.828ZM4773.363 3999.828" fill-rule="evenodd"/>
<path d="M4929.879 3951.078 4851.965 4050.918H4828.496L4858.047 3951.078ZM4929.879 3951.078" fill-rule="evenodd"/>
<path d="M5080.957 3951.078 5003.043 4050.918H5074.875L5092.691 3990.719 5110.512 4050.918H5182.344L5104.426 3951.078ZM5080.957 3951.078" fill-rule="evenodd"/>
<path d="M5304.48 4050.918 5226.562 3951.078H5298.395L5316.215 4011.273 5334.031 3951.078H5405.863L5327.949 4050.918ZM5304.48 4050.918" fill-rule="evenodd"/>
<path d="M5505.543 3951.078C5492.578 3951.078 5479.738 3954.312 5469.844 3962.793 5459.953 3971.27 5454.164 3984.781 5454.164 4001 5454.164 4017.219 5459.953 4030.723 5469.844 4039.203 5479.738 4047.68 5492.578 4050.918 5505.543 4050.918 5518.703 4050.918 5531.562 4047.254 5541.34 4038.68 5551.113 4030.105 5556.926 4016.746 5556.926 4001 5556.926 3985.254 5551.113 3971.887 5541.34 3963.312 5531.562 3954.738 5518.703 3951.078 5505.543 3951.078ZM5505.543 3973.578C5514.543 3973.578 5521.75 3976.062 5526.5 3980.227 5531.246 3984.391 5534.422 3990.359 5534.422 4001 5534.422 4011.637 5531.246 4017.602 5526.5 4021.766 5521.75 4025.93 5514.543 4028.418 5505.543 4028.418 5496.344 4028.418 5489.121 4026.09 5484.492 4022.121 5479.859 4018.152 5476.668 4012.324 5476.668 4001 5476.668 3989.676 5479.859 3983.844 5484.492 3979.871 5489.121 3975.902 5496.344 3973.578 5505.543 3973.578ZM5505.543 3973.578" fill-rule="evenodd"/>
<path d="M5597.332 3995.613C5628.547 3954.867 5646.492 4006.418 5680.316 4004.105 5702.012 4001.273 5717.996 3981.125 5731.605 3966.34L5721.746 3958.395C5713.707 3967.379 5705.023 3975.621 5694 3975.641 5674.445 3975.672 5668.41 3947.828 5632.855 3951.395 5612.773 3954.855 5600.398 3973.98 5587.574 3987.559ZM5597.332 3995.613"/>
<path d="M5973.582 3951.078C5864.727 3951.078 5804.023 4015.344 5788.734 4089.566H5745.637V4112.07H5785.508C5784.137 4128.715 5784.949 4145.582 5787.918 4162.09H5745.637V4184.59H5793.379C5814.637 4253.609 5875.473 4311.082 5973.582 4311.082 6055.457 4311.082 6111.789 4270.004 6140.43 4215.598L6053.66 4168.578C6043.168 4205.984 6016.438 4236.082 5973.582 4236.082 5937.137 4236.082 5912.379 4214.215 5899.379 4184.59H5942.996V4162.09H5892.047C5888.395 4145.918 5887.652 4128.664 5889.832 4112.07H5942.996V4089.566H5894.75C5905.867 4054.047 5932.109 4026.078 5973.582 4026.078 6016.699 4026.078 6043.395 4056.176 6053.781 4093.578L6146.504 4050.918C6120.914 3994.363 6064.043 3951.078 5973.582 3951.078ZM5973.582 3951.078" fill-rule="evenodd"/>
<path d="M6152.812 4126.125H6350.171V4148.625H6152.812Z" fill-rule="evenodd"/>
<path d="M2784.207 395.684H2806.711V786.01199H2784.207Z" fill="#81b4fe" fill-rule="evenodd"/>
<path d="M2496.602 395.684H2519.106V786.01199H2496.602Z" fill="#81b4fe" fill-rule="evenodd"/>
<path d="M2474.098 395.684H2496.6019V786.01199H2474.098Z" fill="#81b4fe" fill-rule="evenodd"/>
<path d="M2806.711 395.684H2817.961V786.01199H2806.711Z" fill="#d63384" fill-rule="evenodd"/>
<path d="M3389.281 4746.07C3190.02 4746.07 3196.52 4811.168 3196.52 4878.352H3171.652L3171.812 4900.133H3196.52V5106.074H3294.023V4900.133H3318.891L3318.727 4878.352H3218.301C3218.301 4834.398 3294.023 4834.328 3389.281 4834.328ZM3339.027 4878.352V5106.074H3436.535V4878.352ZM3339.027 4878.352" fill-rule="evenodd"/>
<path d="M2912.996 4746.07C2752.453 4746.07 2746.273 4811.168 2746.273 4878.352H2721.406L2721.566 4900.133H2746.273V5106.074H2843.777V4900.133H2888.781V5106.074H2986.289V4900.133H3011.156L3010.988 4878.352H2910.562C2910.562 4875.605 2910.75 4872.977 2911.129 4870.465 2916.781 4832.781 2964.832 4821.07 3055.594 4821.07L3055.508 4746.07C3012.863 4746.07 2981.109 4750.664 2957.469 4758.668 2931.801 4766.812 2912.996 4765.34 2912.996 4746.07ZM2894.145 4821.258C2891.73 4830.148 2890.391 4839.488 2889.652 4849.07 2888.914 4858.652 2888.781 4868.48 2888.781 4878.352H2768.055C2768.055 4837.363 2809.98 4823.008 2894.145 4821.258ZM2894.145 4821.258" fill-rule="evenodd"/>
<path d="M3722.152 4746.07C3561.609 4746.07 3555.43 4811.168 3555.43 4878.352H3530.562L3530.723 4900.133H3555.43V5106.074H3652.934V4900.133H3697.938V5106.074H3795.445V4900.133H3820.309L3820.145 4878.352H3719.719V4878.348C3719.719 4876.734 3719.922 4875.246 3720.051 4873.715 3725.32 4834.41 3798.93 4834.328 3890.699 4834.328V4746.07C3844.027 4746.07 3784.469 4752.625 3766.625 4758.668 3740.957 4766.812 3722.152 4765.34 3722.152 4746.07ZM3701.633 4821.293C3697.379 4839.07 3697.938 4858.617 3697.938 4878.352H3577.211C3577.211 4837.637 3618.586 4823.199 3701.633 4821.293ZM3840.449 4878.352V5106.074H3937.953V4878.352ZM3840.449 4878.352" fill-rule="evenodd"/>
<path d="M671.059 41.309V401.312H782.629C782.629 375.188 788.023 350.828 800.086 331.039 803.023 326.523 806.285 322.449 809.844 318.766 827.52 369.992 875.555 401.312 945.672 401.312 1015.348 401.312 1063.215 372.043 1081.16 320.145L986.973 295.172C979.559 313.602 963.852 326.312 945.672 326.312 924.121 326.312 906.039 308.441 901.141 284.359 922.582 282.379 1088.637 281.758 1088.637 281.758 1088.895 277.836 1089.027 273.824 1089.027 269.73 1089.027 186.75 1033.859 141.148 945.672 141.148 858.598 141.148 803.719 191.203 802.344 268.262 822.848 255.074 852.965 242.07 908.816 238.469 917.168 224.926 930.566 216.148 945.672 216.148 967.84 216.148 986.336 235.051 990.594 260.176L965.203 259.82C891.375 260.02 811.91 259.633 773.531 333.258 766.324 349.074 762.523 365.973 760.883 383.211H748.832C748.832 344.906 760.883 306.797 768.566 293.109V41.309ZM671.059 41.309" fill-rule="evenodd"/>
<path d="M134.133 41.309 51.184 401.312H160.691L169.016 293.73H200.516L208.836 401.312H318.344L235.395 41.309ZM182.742 116.309H186.789L198.773 271.23H170.758ZM182.742 116.309" fill-rule="evenodd"/>
<path d="M484.199 141.148C396.012 141.148 340.848 192.492 340.848 271.23 340.848 326.645 367.383 368.492 414.402 388.422 413.66 388.621 412.922 388.82 412.188 389.023 345.371 407.477 326.551 506.477 447.09 508.832 522.625 510.312 620.281 489.246 626.055 530.238H648.555C649.012 381.941 447.977 408.008 405.027 434.238L398.816 422.41C417.406 408.832 447.137 401.766 480.527 401.285 481.746 401.312 482.969 401.312 484.199 401.312 573.98 401.312 627.555 352.711 627.555 269.73 627.555 241.133 621.004 216.973 608.805 197.59 608.23 196.684 607.648 195.785 607.051 194.898 602.227 186.777 601.426 177.664 627.168 177.664L627.078 141.766C596.105 141.766 587.363 157.359 587.719 173.258 562.953 152.176 527.57 141.148 484.199 141.148ZM484.199 216.148C509.52 216.148 530.047 240.809 530.047 271.23 530.047 301.652 509.52 326.312 484.199 326.312 458.883 326.312 438.355 301.652 438.355 271.23 438.355 240.809 458.883 216.148 484.199 216.148ZM484.199 216.148" fill-rule="evenodd"/>
<path d="M1188.883 141.207C1163.293 141.965 1142.379 145.52 1133.723 147.145V222.145C1181.305 212.305 1249.676 209.332 1252.602 265.066 1154.137 247.551 1111.594 281.598 1111.527 333.199 1111.43 407.613 1195.078 421.938 1236.941 371.816 1251.668 351.332 1258.066 330.867 1259.402 315.637L1268.574 315.699C1268.574 339.879 1257.59 385.605 1252.699 401.309L1350.207 287.824V375.57 268.836C1350.207 170.336 1277.668 145.164 1215.75 141.555 1206.461 141.012 1197.41 140.953 1188.883 141.207ZM1252.699 272.586V301.242C1252.125 313.398 1243.324 330.652 1229.359 330.754 1190.211 331.039 1193.348 272.531 1252.699 272.586ZM1252.699 272.586" fill-rule="evenodd"/>
<path d="M1350.207 287.824 1268.574 315.699C1264.324 401.309 1223.992 417.469 1167.48 426.258L1173.246 463.316C1208.93 457.762 1292.746 452.035 1393.785 494.719L1421.738 401.312C1382.273 388.195 1344.32 384.07 1312.867 387.5 1335.375 360.93 1350.207 327.656 1350.207 287.824ZM1350.207 287.824" fill-rule="evenodd"/>
<path d="M532.676 4746.07V5106.074H630.18V4975.992C630.18 4919.129 690.328 4919.125 690.328 4975.992V5028.105C690.328 5119.5 673.625 5157.75 617.113 5166.539L622.879 5203.598C658.562 5198.047 742.379 5192.316 843.418 5235L871.371 5141.594C831.91 5128.477 793.957 5124.352 762.5 5127.781 785.008 5101.211 799.84 5067.938 799.84 5028.105V4976.785C799.84 4976.68 799.84 4976.578 799.84 4976.477V4975.992H799.836C799.73 4918.285 788.133 4845.91 709.008 4845.91 659.383 4846.352 630.184 4881.496 630.184 4931.805L621.012 4931.742C631.578 4869.672 630.184 4808.637 630.184 4746.066ZM532.676 4746.07" fill-rule="evenodd"/>
<path d="M1669.023 4845.906H1571.52V5106.074H1669.023V4975.992C1669.023 4919.129 1729.172 4919.125 1729.172 4975.992V5028.102C1729.172 5119.5 1712.469 5157.75 1655.957 5166.539L1661.723 5203.594C1697.406 5198.043 1781.223 5192.316 1882.262 5235L1910.215 5141.594C1870.75 5128.477 1832.797 5124.352 1801.344 5127.781 1823.852 5101.211 1838.68 5067.938 1838.68 5028.102V4976.785C1838.68 4918.953 1827.34 4845.906 1747.852 4845.906 1698.227 4846.348 1669.023 4881.496 1669.023 4931.805L1659.852 4931.742C1659.852 4894.113 1665.469 4869.363 1669.023 4845.906ZM1669.023 4845.906" fill-rule="evenodd"/>
<path d="M1064.137 4845.906H966.629V5106.074H1064.133V4975.992C1064.133 4919.129 1124.281 4919.125 1124.281 4975.992L1124.285 5106.074H1233.793V4975.992C1233.793 4919.129 1293.941 4919.125 1293.941 4975.992V5028.102C1293.941 5119.5 1277.234 5157.75 1220.727 5166.539L1226.488 5203.594C1262.176 5198.043 1345.992 5192.316 1447.027 5235L1474.984 5141.594C1435.52 5128.477 1397.566 5124.352 1366.113 5127.781 1388.617 5101.211 1403.449 5067.938 1403.449 5028.102V4976.785C1403.449 4918.953 1392.109 4845.906 1312.621 4845.906 1262.996 4846.348 1233.793 4881.496 1233.793 4931.805L1224.621 4931.742C1224.621 4888.344 1202.512 4845.91 1142.961 4845.91 1093.336 4846.352 1064.137 4881.496 1064.137 4931.805L1054.965 4931.742C1054.965 4894.113 1060.578 4869.363 1064.137 4845.906ZM1064.137 4845.906" fill-rule="evenodd"/>
<path d="M2030.691 4845.906V4975.195C2030.691 5033.031 2042.031 5106.074 2121.52 5106.074 2171.145 5105.633 2207.691 5070.484 2207.691 5020.18L2216.863 5020.238 2216.219 5020.457C2211.973 5106.07 2171.637 5122.23 2115.129 5131.02L2120.891 5168.074C2156.578 5162.523 2240.395 5156.797 2341.43 5199.48L2369.387 5106.074C2329.922 5092.957 2291.969 5088.832 2260.516 5092.262 2283.02 5065.691 2297.852 5032.418 2297.852 4992.582V4845.91H2200.348V4975.992C2200.348 5032.852 2140.199 5032.859 2140.199 4975.992V4845.91ZM2030.691 4845.906" fill-rule="evenodd"/>
<path d="M4229.363 4746.07C4030.102 4746.07 4036.602 4811.168 4036.602 4878.352H4011.734L4011.898 4900.133H4036.602V5106.074H4134.109V4900.133H4158.977L4158.812 4878.352H4058.383C4058.383 4834.398 4134.109 4834.328 4229.363 4834.328ZM4179.113 4878.352V5077.984C4179.113 5098.512 4173.406 5112.188 4164.82 5121.141 4156.238 5130.094 4142.98 5137.496 4115.16 5137.496V5235C4163.324 5235 4206.43 5218.629 4235.199 5188.625 4263.973 5158.621 4276.625 5118.168 4276.625 5077.984V4878.352ZM4179.113 4878.352" fill-rule="evenodd"/>
<path d="M4562.234 4746.07C4401.691 4746.07 4395.512 4811.168 4395.512 4878.352H4370.645L4370.805 4900.133H4395.512V5106.074H4493.016V4900.133H4538.023V5106.074H4635.527V4900.133H4660.395L4660.23 4878.352H4559.801V4878.348C4559.801 4876.734 4560.004 4875.246 4560.133 4873.715 4565.402 4834.41 4639.012 4834.328 4730.781 4834.328V4746.07C4684.109 4746.07 4624.551 4752.625 4606.707 4758.668 4581.039 4766.812 4562.234 4765.34 4562.234 4746.07ZM4541.715 4821.293C4537.461 4839.07 4538.02 4858.617 4538.02 4878.352H4417.293C4417.293 4837.637 4458.668 4823.199 4541.715 4821.293ZM4541.715 4821.293" fill-rule="evenodd"/>
<path d="M4680.523 4878.352V5077.984C4680.523 5098.512 4674.82 5112.188 4666.234 5121.141 4657.648 5130.094 4644.395 5137.496 4616.574 5137.496V5235C4664.738 5235 4707.84 5218.629 4736.613 5188.625 4765.387 5158.621 4778.035 5118.168 4778.035 5077.984V4878.352ZM4680.523 4878.352" fill-rule="evenodd"/>
<path d="M5458.93 4746.07V5106.074H5556.438V5106.07H5570.5C5570.5 5079.949 5575.895 5055.59 5587.957 5035.797 5590.895 5031.285 5594.156 5027.211 5597.715 5023.523 5615.391 5074.754 5663.422 5106.074 5733.543 5106.074 5803.215 5106.074 5851.086 5076.801 5869.031 5024.906L5774.844 4999.934C5767.43 5018.359 5751.723 5031.074 5733.543 5031.074 5711.988 5031.074 5693.91 5013.203 5689.008 4989.121 5710.453 4987.137 5876.508 4986.52 5876.508 4986.52 5876.766 4982.594 5876.895 4978.586 5876.895 4974.492 5876.895 4891.512 5821.73 4845.906 5733.543 4845.906 5646.469 4845.906 5591.586 4895.965 5590.215 4973.02 5610.715 4959.836 5640.836 4946.832 5696.684 4943.23 5705.039 4929.688 5718.438 4920.91 5733.543 4920.91 5755.711 4920.906 5774.203 4939.812 5778.465 4964.934L5753.07 4964.582C5679.246 4964.781 5599.781 4964.395 5561.402 5038.02 5554.195 5053.832 5550.395 5070.734 5548.754 5087.973H5536.703C5536.703 5049.668 5548.754 5011.555 5556.438 4997.871V4746.07ZM5458.93 4746.07" fill-rule="evenodd"/>
<path d="M5163.152 4746.066C5130.371 4746.066 5103.793 4758.762 5103.793 4790.195 5103.793 4821.629 5130.371 4834.328 5163.152 4834.328 5195.938 4834.328 5222.516 4820.305 5222.516 4790.195 5222.516 4760.086 5195.938 4746.066 5163.152 4746.066ZM5320.809 4746.066C5288.023 4746.066 5261.445 4758.762 5261.445 4790.195 5261.445 4821.629 5288.023 4834.328 5320.809 4834.328 5353.59 4834.328 5380.168 4820.305 5380.168 4790.195 5380.168 4760.086 5353.59 4746.066 5320.809 4746.066ZM5270.555 4845.906V4975.992C5270.555 5032.852 5210.406 5032.855 5210.406 4975.992V4845.906H5112.902V4975.195C5112.902 5033.031 5112.238 5106.07 5191.727 5106.07 5241.352 5105.629 5270.555 5070.484 5270.555 5020.18L5279.727 5020.238C5280.016 5040.441 5276.047 5063.754 5267.031 5084.215 5250.496 5121.742 5231.734 5137.301 5112.902 5137.301V5234.805C5227.793 5234.805 5368.059 5224.605 5368.059 5077.984V4845.906ZM5270.555 4845.906" fill-rule="evenodd"/>
<path d="M2519.105 0V360.004H2616.617V197.34H2686.703V360.004H2784.207V0H2686.703V174.84H2616.617V0ZM2519.105 0" fill-rule="evenodd"/>
<path d="M3006.68 0C2749.043 0 2761.141 360.004 3006.68 360.004 3249.059 360.004 3267.566 0 3006.68 0ZM3006.68 75C3120.582 75 3119.887 285.004 3006.68 285.004 2893.738 285.004 2893.039 75 3006.68 75ZM3006.68 75" fill-rule="evenodd"/>
<path d="M3195.469 395.684H3206.719V786.01199H3195.469Z" fill="#d63384" fill-rule="evenodd"/>
<path d="M3206.719 395.684H3217.969V786.01199H3206.719Z" fill="#d63384" fill-rule="evenodd"/>
<path d="M2208.996 0V360.004H2306.508V197.34H2376.594V360.004H2474.098V0H2376.594V174.84H2306.508V0ZM2208.996 0" fill-rule="evenodd"/>
<path d="M3406.688 0C3149.051 0 3161.148 360.004 3406.688 360.004 3649.07 360.004 3667.574 0 3406.688 0ZM3406.688 75C3520.59 75 3519.895 285.004 3406.688 285.004 3293.75 285.004 3293.047 75 3406.688 75ZM3406.688 75" fill-rule="evenodd"/>
</g>
</svg>
