<?xml version="1.0" encoding="UTF-8" standalone="no"?>
<!-- Created with Inkscape (http://www.inkscape.org/) -->

<svg
   width="1000"
   height="1000"
   viewBox="0 0 264.58333 264.58333"
   version="1.1"
   id="svg1"
   inkscape:version="1.4.2 (f4327f4, 2025-05-13)"
   sodipodi:docname="bitlify.svg"
   xmlns:inkscape="http://www.inkscape.org/namespaces/inkscape"
   xmlns:sodipodi="http://sodipodi.sourceforge.net/DTD/sodipodi-0.dtd"
   xmlns="http://www.w3.org/2000/svg"
   xmlns:svg="http://www.w3.org/2000/svg">
  <sodipodi:namedview
     id="namedview1"
     pagecolor="#ffffff"
     bordercolor="#000000"
     borderopacity="0.25"
     inkscape:showpageshadow="2"
     inkscape:pageopacity="0.0"
     inkscape:pagecheckerboard="0"
     inkscape:deskcolor="#d1d1d1"
     inkscape:document-units="px"
     showguides="true"
     inkscape:zoom="0.36747685"
     inkscape:cx="12579.024"
     inkscape:cy="2123.9433"
     inkscape:window-width="1920"
     inkscape:window-height="1027"
     inkscape:window-x="-8"
     inkscape:window-y="-8"
     inkscape:window-maximized="1"
     inkscape:current-layer="layer1">
    <sodipodi:guide
       position="130.67999,239.74334"
       orientation="0,-1"
       id="guide1"
       inkscape:locked="false" />
    <sodipodi:guide
       position="114.48,112.74333"
       orientation="0,-1"
       id="guide2"
       inkscape:locked="false" />
    <sodipodi:guide
       position="3190.0752,-515.66416"
       orientation="0,-1"
       id="guide1191"
       inkscape:locked="false" />
    <sodipodi:guide
       position="2317.14,-523.60112"
       orientation="0,-1"
       id="guide1200"
       inkscape:locked="false" />
    <sodipodi:guide
       position="2388.5527,-397.73541"
       orientation="1,0"
       id="guide1201"
       inkscape:locked="false" />
    <sodipodi:guide
       position="1949.7251,-388.66413"
       orientation="1,0"
       id="guide1202"
       inkscape:locked="false" />
    <sodipodi:guide
       position="2201.4554,-388.66413"
       orientation="1,0"
       id="guide1203"
       inkscape:locked="false" />
    <sodipodi:guide
       position="3096.0206,-883.71541"
       orientation="1,0"
       id="guide1208"
       inkscape:locked="false" />
    <sodipodi:guide
       position="3095.19,-883.34056"
       orientation="0,-1"
       id="guide1209"
       inkscape:locked="false" />
    <sodipodi:guide
       position="3105.0918,-896.94753"
       orientation="0,-1"
       id="guide1210"
       inkscape:locked="false" />
    <sodipodi:guide
       position="3033.6556,-887.59597"
       orientation="1,0"
       id="guide1217"
       inkscape:locked="false" />
    <sodipodi:guide
       position="2997.37,-869.77666"
       orientation="1,0"
       id="guide1218"
       inkscape:locked="false" />
    <sodipodi:guide
       position="3015.5125,-869.72907"
       orientation="1,0"
       id="guide1219"
       inkscape:locked="false" />
    <sodipodi:guide
       position="3051.7982,-874.26887"
       orientation="1,0"
       id="guide1220"
       inkscape:locked="false" />
  </sodipodi:namedview>
  <defs
     id="defs1" />
  <g
     inkscape:label="Layer 1"
     inkscape:groupmode="layer"
     id="layer1">
    <rect
       style="fill:#281845;fill-rule:evenodd;stroke-width:2.64583"
       id="rect1"
       width="18.142744"
       height="18.142744"
       x="124.17387"
       y="24.839991"
       inkscape:export-filename="rect1.svg"
       inkscape:export-xdpi="96"
       inkscape:export-ydpi="96" />
    <rect
       style="fill:#281845;fill-rule:evenodd;stroke-width:2.64583"
       id="rect2"
       width="18.142744"
       height="18.142744"
       x="124.17386"
       y="42.982735"
       inkscape:export-filename="rect1.svg"
       inkscape:export-xdpi="96"
       inkscape:export-ydpi="96" />
    <rect
       style="fill:#281845;fill-rule:evenodd;stroke-width:2.64583"
       id="rect3"
       width="18.142744"
       height="18.142744"
       x="124.17386"
       y="61.125481"
       inkscape:export-filename="rect1.svg"
       inkscape:export-xdpi="96"
       inkscape:export-ydpi="96" />
    <rect
       style="fill:#281845;fill-rule:evenodd;stroke-width:2.64583"
       id="rect4"
       width="18.142744"
       height="18.142744"
       x="124.17386"
       y="79.268227"
       inkscape:export-filename="rect1.svg"
       inkscape:export-xdpi="96"
       inkscape:export-ydpi="96" />
    <rect
       style="fill:#281845;fill-rule:evenodd;stroke-width:2.64583"
       id="rect5"
       width="18.142744"
       height="18.142744"
       x="124.17386"
       y="97.410973"
       inkscape:export-filename="rect1.svg"
       inkscape:export-xdpi="96"
       inkscape:export-ydpi="96" />
    <rect
       style="fill:#281845;fill-rule:evenodd;stroke-width:2.64583"
       id="rect6"
       width="18.142744"
       height="18.142744"
       x="124.17386"
       y="115.55372"
       inkscape:export-filename="rect1.svg"
       inkscape:export-xdpi="96"
       inkscape:export-ydpi="96" />
    <rect
       style="fill:#281845;fill-rule:evenodd;stroke-width:2.64583"
       id="rect7"
       width="18.142744"
       height="18.142744"
       x="124.17386"
       y="133.69646"
       inkscape:export-filename="rect1.svg"
       inkscape:export-xdpi="96"
       inkscape:export-ydpi="96" />
    <rect
       style="fill:#281845;fill-rule:evenodd;stroke-width:2.64583"
       id="rect8"
       width="18.142744"
       height="18.142744"
       x="142.3166"
       y="24.839991"
       inkscape:export-filename="rect1.svg"
       inkscape:export-xdpi="96"
       inkscape:export-ydpi="96" />
    <rect
       style="fill:#281845;fill-rule:evenodd;stroke-width:2.64583"
       id="rect9"
       width="18.142744"
       height="18.142744"
       x="142.31659"
       y="42.982735"
       inkscape:export-filename="rect1.svg"
       inkscape:export-xdpi="96"
       inkscape:export-ydpi="96" />
    <rect
       style="fill:#281845;fill-rule:evenodd;stroke-width:2.64583"
       id="rect10"
       width="18.142744"
       height="18.142744"
       x="142.31659"
       y="61.125481"
       inkscape:export-filename="rect1.svg"
       inkscape:export-xdpi="96"
       inkscape:export-ydpi="96" />
    <rect
       style="fill:#281845;fill-rule:evenodd;stroke-width:2.64583"
       id="rect11"
       width="18.142744"
       height="18.142744"
       x="142.31659"
       y="79.268227"
       inkscape:export-filename="rect1.svg"
       inkscape:export-xdpi="96"
       inkscape:export-ydpi="96" />
    <rect
       style="fill:#281845;fill-rule:evenodd;stroke-width:2.64583"
       id="rect12"
       width="18.142744"
       height="18.142744"
       x="142.31659"
       y="97.410973"
       inkscape:export-filename="rect1.svg"
       inkscape:export-xdpi="96"
       inkscape:export-ydpi="96" />
    <rect
       style="fill:#281845;fill-rule:evenodd;stroke-width:2.64583"
       id="rect13"
       width="18.142744"
       height="18.142744"
       x="142.31659"
       y="115.55372"
       inkscape:export-filename="rect1.svg"
       inkscape:export-xdpi="96"
       inkscape:export-ydpi="96" />
    <rect
       style="fill:#281845;fill-rule:evenodd;stroke-width:2.64583"
       id="rect14"
       width="18.142744"
       height="18.142744"
       x="142.31659"
       y="133.69646"
       inkscape:export-filename="rect1.svg"
       inkscape:export-xdpi="96"
       inkscape:export-ydpi="96" />
    <rect
       style="fill:#281845;fill-rule:evenodd;stroke-width:2.64583"
       id="rect15"
       width="18.142744"
       height="18.142744"
       x="160.45935"
       y="24.839991"
       inkscape:export-filename="rect1.svg"
       inkscape:export-xdpi="96"
       inkscape:export-ydpi="96" />
    <rect
       style="fill:#281845;fill-rule:evenodd;stroke-width:2.64583"
       id="rect16"
       width="18.142744"
       height="18.142744"
       x="160.45934"
       y="42.982735"
       inkscape:export-filename="rect1.svg"
       inkscape:export-xdpi="96"
       inkscape:export-ydpi="96" />
    <rect
       style="fill:#281845;fill-rule:evenodd;stroke-width:2.64583"
       id="rect17"
       width="18.142744"
       height="18.142744"
       x="160.45934"
       y="61.125481"
       inkscape:export-filename="rect1.svg"
       inkscape:export-xdpi="96"
       inkscape:export-ydpi="96" />
    <rect
       style="fill:#281845;fill-rule:evenodd;stroke-width:2.64583"
       id="rect18"
       width="18.142744"
       height="18.142744"
       x="160.45934"
       y="79.268227"
       inkscape:export-filename="rect1.svg"
       inkscape:export-xdpi="96"
       inkscape:export-ydpi="96" />
    <rect
       style="fill:#281845;fill-rule:evenodd;stroke-width:2.64583"
       id="rect19"
       width="18.142744"
       height="18.142744"
       x="160.45934"
       y="97.410973"
       inkscape:export-filename="rect1.svg"
       inkscape:export-xdpi="96"
       inkscape:export-ydpi="96" />
    <rect
       style="fill:#281845;fill-rule:evenodd;stroke-width:2.64583"
       id="rect20"
       width="18.142744"
       height="18.142744"
       x="160.45934"
       y="115.55372"
       inkscape:export-filename="rect1.svg"
       inkscape:export-xdpi="96"
       inkscape:export-ydpi="96" />
    <rect
       style="fill:#281845;fill-rule:evenodd;stroke-width:2.64583"
       id="rect21"
       width="18.142744"
       height="18.142744"
       x="160.45934"
       y="133.69646"
       inkscape:export-filename="rect1.svg"
       inkscape:export-xdpi="96"
       inkscape:export-ydpi="96" />
    <rect
       style="fill:#281845;fill-rule:evenodd;stroke-width:2.64583"
       id="rect22"
       width="18.142744"
       height="18.142744"
       x="178.6021"
       y="24.839991"
       inkscape:export-filename="rect1.svg"
       inkscape:export-xdpi="96"
       inkscape:export-ydpi="96" />
    <rect
       style="fill:#281845;fill-rule:evenodd;stroke-width:2.64583"
       id="rect23"
       width="18.142744"
       height="18.142744"
       x="178.60208"
       y="42.982735"
       inkscape:export-filename="rect1.svg"
       inkscape:export-xdpi="96"
       inkscape:export-ydpi="96" />
    <rect
       style="fill:#281845;fill-rule:evenodd;stroke-width:2.64583"
       id="rect24"
       width="18.142744"
       height="18.142744"
       x="178.60208"
       y="61.125481"
       inkscape:export-filename="rect1.svg"
       inkscape:export-xdpi="96"
       inkscape:export-ydpi="96" />
    <rect
       style="fill:#281845;fill-rule:evenodd;stroke-width:2.64583"
       id="rect25"
       width="18.142744"
       height="18.142744"
       x="178.60208"
       y="79.268227"
       inkscape:export-filename="rect1.svg"
       inkscape:export-xdpi="96"
       inkscape:export-ydpi="96" />
    <rect
       style="fill:#281845;fill-rule:evenodd;stroke-width:2.64583"
       id="rect26"
       width="18.142744"
       height="18.142744"
       x="178.60208"
       y="97.410973"
       inkscape:export-filename="rect1.svg"
       inkscape:export-xdpi="96"
       inkscape:export-ydpi="96" />
    <rect
       style="fill:#281845;fill-rule:evenodd;stroke-width:2.64583"
       id="rect27"
       width="18.142744"
       height="18.142744"
       x="178.60208"
       y="115.55372"
       inkscape:export-filename="rect1.svg"
       inkscape:export-xdpi="96"
       inkscape:export-ydpi="96" />
    <rect
       style="fill:#281845;fill-rule:evenodd;stroke-width:2.64583"
       id="rect28"
       width="18.142744"
       height="18.142744"
       x="178.60208"
       y="133.69646"
       inkscape:export-filename="rect1.svg"
       inkscape:export-xdpi="96"
       inkscape:export-ydpi="96" />
    <rect
       style="fill:#281845;fill-rule:evenodd;stroke-width:2.64583"
       id="rect29"
       width="18.142744"
       height="18.142744"
       x="196.74484"
       y="24.839991"
       inkscape:export-filename="rect1.svg"
       inkscape:export-xdpi="96"
       inkscape:export-ydpi="96" />
    <rect
       style="fill:#281845;fill-rule:evenodd;stroke-width:2.64583"
       id="rect30"
       width="18.142744"
       height="18.142744"
       x="196.74483"
       y="42.982735"
       inkscape:export-filename="rect1.svg"
       inkscape:export-xdpi="96"
       inkscape:export-ydpi="96" />
    <rect
       style="fill:#281845;fill-rule:evenodd;stroke-width:2.64583"
       id="rect31"
       width="18.142744"
       height="18.142744"
       x="196.74483"
       y="61.125481"
       inkscape:export-filename="rect1.svg"
       inkscape:export-xdpi="96"
       inkscape:export-ydpi="96" />
    <rect
       style="fill:#281845;fill-rule:evenodd;stroke-width:2.64583"
       id="rect32"
       width="18.142744"
       height="18.142744"
       x="196.74483"
       y="79.268227"
       inkscape:export-filename="rect1.svg"
       inkscape:export-xdpi="96"
       inkscape:export-ydpi="96" />
    <rect
       style="fill:#281845;fill-rule:evenodd;stroke-width:2.64583"
       id="rect33"
       width="18.142744"
       height="18.142744"
       x="196.74483"
       y="97.410973"
       inkscape:export-filename="rect1.svg"
       inkscape:export-xdpi="96"
       inkscape:export-ydpi="96" />
    <rect
       style="fill:#281845;fill-rule:evenodd;stroke-width:2.64583"
       id="rect34"
       width="18.142744"
       height="18.142744"
       x="196.74483"
       y="115.55372"
       inkscape:export-filename="rect1.svg"
       inkscape:export-xdpi="96"
       inkscape:export-ydpi="96" />
    <rect
       style="fill:#281845;fill-rule:evenodd;stroke-width:2.64583"
       id="rect35"
       width="18.142744"
       height="18.142744"
       x="196.74483"
       y="133.69646"
       inkscape:export-filename="rect1.svg"
       inkscape:export-xdpi="96"
       inkscape:export-ydpi="96" />
    <path
       id="rect37"
       style="fill:#281845;fill-rule:evenodd;stroke-width:2.64583"
       d="m 906.17642,24.84 v 8.461 c -10e-4,9.683 -0.059,9.682 -9.859,9.682 l -8.284,0.001 V 151.84 h 18.143 v -36.286 h 54.42796 v 36.286 h 18.143 V 42.984 h -18.143 v -0.001 h 9.858 c -9.71,0 -9.856,0 -9.858,-9.418 V 24.84 Z m 9.509,18.143 h 35.41 c 9.50896,0.001 9.50896,0.118 9.50896,9.858 V 97.412 H 906.17642 V 52.535 c 10e-4,-9.436 0.1,-9.551 9.509,-9.552 z"
       sodipodi:nodetypes="cccccccccccccccccccscccc" />
    <path
       id="rect71"
       style="fill:#281845;fill-rule:evenodd;stroke-width:2.64583"
       d="m 994.62178,24.84046 v 126.99948 h 72.57072 v -8.6186 c 10e-4,-9.3982 0.1094,-9.52288 9.4749,-9.52448 h 8.6677 V 97.41174 h -8.4781 c -9.4053,-4.2e-4 -9.6577,-0.0616 -9.6645,-9.09041 0.01,-9.05237 0.2765,-9.05266 9.8583,-9.05267 h 8.2843 V 42.98353 h -8.2843 c -9.7443,-1e-5 -9.857,-9e-5 -9.8583,-9.52086 v -8.62221 z m 18.14252,18.14256 h 54.4282 v 5.1e-4 h -9.8583 c 9.8581,10e-6 9.8583,-3.2e-4 9.8583,9.8578 v 16.56953 c 0,9.7918 10e-5,9.85735 -9.6604,9.8578 h -44.7678 V 42.98353 Z m 0,54.42872 h 45.036 c 9.3924,0.002 9.3922,0.15742 9.3922,9.85779 v 16.56953 c 0,9.73008 10e-5,9.8561 -9.479,9.8578 h -44.9492 z"
       sodipodi:nodetypes="cccccccccsccscccccccssccccccssccc" />
    <path
       id="rect107"
       style="fill:#281845;fill-rule:evenodd;stroke-width:2.64583"
       d="m 1119.3528,24.84049 v 8.28476 c 0,9.85812 -2e-4,9.85831 -9.8583,9.85832 h -8.2842 v 90.71333 h 8.6677 c 9.3027,0 9.4718,0.1249 9.4748,9.3369 v 8.8062 h 54.4282 v -8.5742 c 10e-4,-9.4419 0.095,-9.5673 9.4749,-9.5689 h 8.6677 V 97.41177 h -18.1426 v 26.42735 c 0,9.73008 10e-5,9.85608 -9.479,9.85778 h -35.4702 c -9.479,0 -9.479,-0.1277 -9.479,-9.85778 V 52.84136 c 0,-9.85812 2e-4,-9.85778 9.8583,-9.85779 l 44.5699,-5.2e-4 v 5.2e-4 h -9.8583 c 9.8581,1e-5 9.8583,-3.3e-4 9.8583,9.85779 v 26.42733 h 18.1426 V 42.98357 h -8.2842 c -9.7607,-1e-5 -9.8574,-1.9e-4 -9.8584,-9.56893 v -8.57415 z"
       sodipodi:nodetypes="cssccsccccccccscsssccccscccsccc" />
    <path
       id="rect141"
       style="fill:#281845;fill-rule:evenodd;stroke-width:2.64583"
       d="m 1207.7984,24.84046 v 126.99948 h 72.5713 v -8.28477 c 0,-9.7287 -10e-5,-9.85671 9.4749,-9.85831 h 8.6676 V 42.98353 h -8.8005 c -9.3424,-0.003 -9.342,-0.17518 -9.342,-9.85831 v -8.28476 z m 18.1431,18.14256 44.5699,5.1e-4 c 9.8581,10e-6 9.8583,-3.2e-4 9.8583,9.8578 v 70.99773 c 0,9.73008 10e-5,9.8561 -9.479,9.8578 h -44.9492 V 42.98353 Z"
       sodipodi:nodetypes="cccsccccsccccsscccc" />
    <path
       id="rect176"
       style="fill:#281845;fill-rule:evenodd;stroke-width:2.64583"
       d="m 1314.3872,24.84046 v 126.99948 h 90.7139 v -18.14308 h -72.5713 V 97.41174 h 36.2856 V 79.26866 h -36.2856 v -36.28513 -5.1e-4 h 72.5713 V 24.84046 Z"
       sodipodi:nodetypes="cccccccccccccc" />
    <path
       id="rect246"
       style="fill:#281845;fill-rule:evenodd;stroke-width:2.64583"
       d="m 1634.1532,24.84046 v 126.99948 h 18.1431 v -54.4282 h 54.4282 v 54.4282 h 18.1426 V 24.84046 h -18.1426 v 54.4282 h -54.4282 v -54.4282 z"
       sodipodi:nodetypes="ccccccccccccc" />
    <path
       id="rect288"
       style="fill:#281845;fill-rule:evenodd;stroke-width:2.64583"
       d="m 1740.7421,24.84046 v 18.14256 h 18.143 v 5.1e-4 h -5e-4 v 90.71333 h -18.1425 v 18.14308 h 54.4282 v -18.14308 h -18.1426 v -90.71333 -5.1e-4 h 18.1426 V 24.84046 Z"
       sodipodi:nodetypes="cccccccccccccccc" />
    <path
       id="rect320"
       style="fill:#281845;fill-rule:evenodd;stroke-width:2.64583"
       d="m 1865.4735,24.84046 v 18.14256 h 18.1425 5e-4 v 5.1e-4 90.71333 h -5e-4 v -9.8578 c 0,9.73008 2e-4,9.8561 -9.479,9.8578 h -35.4702 c -9.3369,0 -9.4769,-0.12424 -9.479,-9.42682 v -26.8583 h -18.1425 v 36.28512 h 8.6676 c 9.3729,0 9.4738,0.1269 9.4749,9.5467 v 8.59638 h 54.4282 v -8.79895 c 0,-9.2192 0.1703,-9.34253 9.4754,-9.34413 h 8.6677 V 24.84046 Z"
       sodipodi:nodetypes="cccccccccsccccscccscccc" />
    <path
       id="rect351"
       style="fill:#281845;fill-rule:evenodd;stroke-width:2.64583"
       d="m 1917.6341,24.84046 v 126.99948 h 18.1426 v -54.4282 h 8.7524 c 9.2011,0.002 9.3868,0.15168 9.3906,9.2816 v 8.86096 h 8.4243 c 9.5245,2.2e-4 9.7145,0.0451 9.7183,9.28263 v 8.85993 h 8.6677 c 9.305,0 9.4719,0.1247 9.4749,9.3431 v 8.79998 h 18.143 v -18.14308 h -8.6635 c -9.479,0 -9.4795,-0.12772 -9.4795,-9.8578 v -8.28476 h -8.2843 c -9.8581,0 -9.8583,-2.2e-4 -9.8583,-9.85832 v -8.28424 h -8.4822 c -9.4163,-4.3e-4 -9.6544,-0.0635 -9.6604,-9.13485 0.01,-9.00826 0.2915,-9.00823 9.8578,-9.00823 h 8.2848 v -8.83357 c 0,-9.3092 0.1862,-9.30899 9.8578,-9.30899 h 8.2848 v -8.28477 c 0,-9.8581 2e-4,-9.8578 9.8583,-9.8578 h -9.8583 v -5.1e-4 h 18.143 V 24.84046 h -18.143 v 8.28476 c 0,9.8581 -10e-5,9.85831 -9.8583,9.85831 h -8.2843 v 8.28425 c 0,9.78257 -2e-4,9.85774 -9.6335,9.85832 h -8.5091 v 18.14256 h -5e-4 v -9.8578 c 0,9.8581 4e-4,9.8578 -9.8578,9.8578 h -8.2847 v -54.4282 z m 36.2856,63.66019 v 8.91109 h -5e-4 v -8.28477 c 0,-0.2134 4e-4,-0.42205 5e-4,-0.62632 z"
       sodipodi:nodetypes="cccccccsccsccccsscsscccscsscsccccccsscscccccsccccccsc" />
    <path
       id="rect386"
       style="fill:#281845;fill-rule:evenodd;stroke-width:2.64583"
       d="m 2024.2229,24.84046 v 126.99948 h 90.7139 v -18.14308 h -72.5713 V 24.84046 Z"
       sodipodi:nodetypes="ccccccc" />
    <path
       id="rect421"
       style="fill:#281845;fill-rule:evenodd;stroke-width:2.64583"
       d="m 2130.8118,24.84046 v 126.99948 h 18.1425 V 42.98353 42.98302 l 8.2848,5.1e-4 c 9.7812,0 9.8572,-2e-4 9.8578,9.62887 v 62.9419 H 2185.24 V 52.37934 c 0,-9.39627 0.1561,-9.39581 9.8578,-9.39581 l 8.2847,-5.1e-4 v 5.1e-4 108.85641 h 18.1431 V 24.84046 H 2185.24 v 8.51059 c -6e-4,9.36681 -0.072,9.62486 -9.0713,9.63197 -9.0714,-0.007 -9.0718,-0.26928 -9.0718,-9.8578 v -8.28476 z"
       sodipodi:nodetypes="cccccccccscccccccccscc" />
    <path
       id="rect456"
       style="fill:#281845;fill-rule:evenodd;stroke-width:2.64583"
       d="m 2237.4006,24.84046 v 126.99948 h 18.1426 V 42.98353 42.98302 l 8.2848,5.1e-4 c 9.7327,0 9.8561,-2.9e-4 9.8577,9.48625 v 8.65632 h 8.2848 c 9.733,0 9.8567,8e-5 9.8583,9.48779 v 8.65477 h 18.1426 v 72.57128 h 18.1431 V 24.84046 h -18.1431 V 61.1261 h -8.5096 c -9.5032,-5.7e-4 -9.6313,-0.0737 -9.633,-9.46713 v -8.67544 h -8.2847 c -9.7264,0 -9.856,-1.7e-4 -9.8578,-9.46815 v -8.67492 z"
       sodipodi:nodetypes="ccccccccscccccccccccsccc" />
    <path
       id="rect526"
       style="fill:#281845;fill-rule:evenodd;stroke-width:2.64583"
       d="m 2450.5783,24.84046 v 126.99948 h 18.1426 V 115.5543 h 36.2851 l 5e-4,-8.28477 c 0,-9.81662 -5e-4,-9.85761 9.7338,-9.85779 h 8.4088 v -8.73436 c 0,-9.40865 0.1522,-9.40871 9.8583,-9.40872 h 8.2842 V 42.98353 h -8.2842 c -9.6514,-1e-5 -9.8541,-9e-5 -9.8583,-9.25059 -1e-4,-0.19827 0,-0.40087 0,-0.60772 v -8.28476 z m 18.1426,18.14256 44.5699,5.1e-4 c 9.8581,10e-6 9.8583,-3.2e-4 9.8583,9.8578 v 16.56953 c 0,9.7918 0,9.85735 -9.6604,9.8578 h -8.4822 v 8.55606 c -8e-4,9.42944 -0.088,9.58446 -9.3844,9.58702 h -26.9012 V 42.98353 Z"
       sodipodi:nodetypes="ccccccscssccsssccccssscccccc" />
    <path
       id="rect632"
       style="fill:#281845;fill-rule:evenodd;stroke-width:2.64583"
       d="m 2788.487,24.84049 v 8.28476 c 0,9.8581 4e-4,9.8578 -9.8578,9.8578 l -8.2848,5.2e-4 v 36.28512 h 8.2848 c 9.8581,0 9.8578,2.1e-4 9.8578,9.85831 v 8.28477 h 45.0376 c 9.3906,0.003 9.3906,0.15805 9.3906,9.85779 v 16.56956 c 0,9.73008 1e-4,9.85608 -9.479,9.85778 h -35.4702 c -9.349,0 -9.4772,-0.1243 -9.479,-9.46248 v -8.68009 h -18.1426 v 18.14257 h 8.6677 c 9.475,0 9.4749,0.1296 9.4749,9.8583 v 8.2848 h 54.4282 v -8.7752 c 0,-9.243 0.1617,-9.3663 9.4749,-9.3679 h 8.6682 V 97.41177 h -8.4827 c -9.6604,-4.4e-4 -9.6604,-0.0666 -9.6604,-9.85831 v -8.28477 h -44.5699 c -9.7246,0 -9.8565,2.6e-4 -9.8583,-9.46247 V 52.84136 c 0,-9.8581 2e-4,-9.85831 9.8583,-9.85831 l 34.7121,5.2e-4 c 9.8581,0 9.8578,-3.1e-4 9.8578,9.85779 v 8.28477 h 18.1431 V 42.98357 h -8.2848 c -9.8582,0 -9.8583,-2.2e-4 -9.8583,-9.85832 v -8.28476 z"
       sodipodi:nodetypes="cscccssccsscsccccssccscccsscscsscscccsscc" />
    <path
       id="rect666"
       style="fill:#281845;fill-rule:evenodd;stroke-width:2.64583"
       d="m 2876.9332,24.84046 v 18.14256 l 36.2851,5.1e-4 v 108.85641 h 18.1431 V 42.98302 h 36.2856 V 24.84046 Z"
       sodipodi:nodetypes="ccccccccc" />
    <path
       id="rect701"
       style="fill:#281845;fill-rule:evenodd;stroke-width:2.64583"
       d="m 2983.522,24.84046 v 108.8564 h 8.6677 c 9.2044,0 9.4674,0.12232 9.4749,9.04802 v 9.09506 h 54.4282 v -8.28477 c 0,-9.7287 4e-4,-9.85671 9.4754,-9.85831 h 8.6682 V 24.84046 h -18.1431 -5e-4 v 98.9986 c 0,9.73008 1e-4,9.8561 -9.479,9.8578 h -35.4702 c -9.4791,0 -9.479,-0.12772 -9.479,-9.8578 v -4.14238 h 5e-4 V 24.84046 h -5e-4 z"
       sodipodi:nodetypes="ccscccscccccscssccccc" />
    <path
       id="rect736"
       style="fill:#281845;fill-rule:evenodd;stroke-width:2.64583"
       d="m 3090.1114,24.84046 v 90.71384 h 8.2837 c 9.7086,0 9.8561,5e-5 9.8583,9.41648 v 8.72608 h 8.6677 c 9.3722,0 9.4738,0.12654 9.4749,9.54464 v 8.59844 h 18.143 v -8.28477 c 0,-9.7287 -1e-4,-9.85671 9.4749,-9.85831 h 8.6677 v -8.28425 c 0,-9.81129 0,-9.85809 9.7183,-9.85831 h 8.4248 l 5e-4,-90.71384 h -5e-4 -18.1426 -5e-4 v 80.85552 c 0,9.8581 -10e-5,9.85832 -9.8583,9.85832 h -8.2843 v 8.28476 c 0,9.58848 -4e-4,9.8506 -9.0718,9.8578 -9.0714,-0.01 -9.0712,-0.26932 -9.0712,-9.8578 v -8.28476 h -8.4507 c -9.4608,-3e-4 -9.6865,-0.0531 -9.6919,-9.17309 V 24.84046 Z"
       sodipodi:nodetypes="ccsccscccsccsscccccsscscscsccc" />
    <path
       id="rect771"
       style="fill:#281845;fill-rule:evenodd;stroke-width:2.64583"
       d="m 3196.6997,24.84046 v 108.8564 h 8.6677 c 9.31,0 9.4719,0.1249 9.4748,9.3586 v 8.78448 h 18.1426 v -8.28477 c 0,-9.5886 -1e-4,-9.85059 9.0713,-9.85779 9.0713,0.01 9.0718,0.26919 9.0718,9.85779 v 8.28477 h 18.1425 v -8.74366 c 0,-9.274 0.1512,-9.39782 9.4749,-9.39942 h 8.6682 l 5e-4,-108.8564 h -5e-4 -18.1425 -6e-4 v 98.9986 c 0,9.58848 2e-4,9.8506 -9.0712,9.8578 -8.9611,-0.01 -9.07,-0.263 -9.0713,-9.51208 l 5e-4,-63.05868 h -5e-4 -18.1431 v 63.12431 c 0,9.18448 -0.1315,9.43935 -9.0713,9.44645 -8.8593,-0.01 -9.0665,-0.25719 -9.0713,-9.20047 l 6e-4,-99.65593 h -6e-4 z"
       sodipodi:nodetypes="ccscccscsccsccccccscccccsccccc" />
    <path
       id="rect806"
       style="fill:#281845;fill-rule:evenodd;stroke-width:2.64583"
       d="M 3303.2885,24.84046 V 61.1261 h 8.2848 c 9.6056,0 9.8515,-3e-5 9.8578,9.11985 v 9.02271 h 8.2848 c 9.5663,0 9.8494,-3e-5 9.8577,9.00823 -0.01,9.07138 -0.2441,9.13442 -9.6603,9.13485 h -8.4822 v 8.28424 c 0,9.80241 1e-4,9.85801 -9.6919,9.85832 h -8.4507 v 36.28564 h 18.1426 v -27.21281 c 0.01,-9.07278 0.2687,-9.07283 9.8578,-9.07283 h 8.2847 v -8.28477 c 0,-9.58853 4e-4,-9.85062 9.0718,-9.85779 9.0714,0.007 9.0713,0.26926 9.0713,9.85779 v 8.28477 h 8.2848 c 9.8581,0 9.8578,2.1e-4 9.8578,9.85831 v 26.42733 h 18.1431 V 115.5543 h -8.4507 c -9.6921,-3.1e-4 -9.6924,-0.0559 -9.6924,-9.85832 v -8.28424 h -8.4822 c -9.3724,-4.3e-4 -9.6521,-0.0625 -9.6604,-9.00824 0.01,-9.13446 0.2476,-9.13484 9.8583,-9.13484 h 8.2843 v -8.67131 c 0,-9.4712 0.1309,-9.47125 9.8583,-9.47125 h 8.2848 V 24.84046 h -18.1431 v 26.42732 c 0,9.78257 3e-4,9.85774 -9.633,9.85832 h -8.5096 v 8.66097 c 0,9.21923 -0.12,9.47452 -9.0713,9.48159 -9.0714,-0.007 -9.0718,-0.26926 -9.0718,-9.8578 V 61.1261 h -8.2842 c -9.8269,0 -9.8582,-1.6e-4 -9.8583,-9.76478 V 24.84046 Z"
       sodipodi:nodetypes="ccsccscscssccccscscscsscccsscscscsscccsscscscsscc" />
    <path
       id="rect841"
       style="fill:#281845;fill-rule:evenodd;stroke-width:2.64583"
       d="m 1420.9761,24.84046 v 126.99948 h 18.1425 v -54.4282 h 36.2857 V 79.26866 h -36.2857 v -36.28513 -5.1e-4 h 72.5708 V 24.84046 Z"
       sodipodi:nodetypes="cccccccccccc" />
    <path
       id="rect857"
       style="fill:#281845;fill-rule:evenodd;stroke-width:2.64583"
       d="M 2663.7555,24.84049 V 151.8395 h 18.1426 v -36.28517 h 26.9121 c 9.2607,0.003 9.3722,0.1601 9.3736,9.51156 v 8.63098 h 8.6263 c 9.5164,0 9.5162,0.1149 9.5162,9.8578 v 8.28483 h 18.1431 v -18.14263 h -8.6982 c -9.4447,0 -9.4449,-0.14 -9.4449,-9.85828 v -8.28477 h -8.2848 c -9.5886,0 -9.8506,7e-5 -9.8577,-9.07128 0.01,-9.07135 0.2691,-9.07127 9.8577,-9.07128 h 8.2848 v -8.6956 c 0,-9.44686 0.1392,-9.44696 9.8583,-9.44697 h 8.2848 V 42.98305 h -8.4584 c -9.6846,-3.5e-4 -9.6847,-0.0584 -9.6847,-9.85831 v -8.28425 z m 18.1426,18.14256 h 45.0391 c 9.3894,0.003 9.3891,0.15897 9.3891,9.85832 v 16.56901 c 0,9.76091 -1e-4,9.85736 -9.5694,9.85831 h -8.5731 v 8.631 c 0,9.51179 -0.1171,9.51156 -9.8584,9.51157 h -26.4273 z"
       sodipodi:nodetypes="cccccccsscccsscscscssccssccccssccsscc" />
    <path
       id="rect909"
       style="fill:#281845;fill-rule:evenodd;stroke-width:2.64583"
       d="m 3409.8776,24.83997 h 18.1425 z m 72.5712,0 h 18.1426 z m -72.5712,5.2e-4 v 54.4282 h 8.8661 c 9.0562,0.004 9.2713,0.18891 9.2764,9.186 v 8.95708 h 8.7524 c 9.335,0.002 9.3904,0.15605 9.3907,9.68623 v 44.742 h 18.1426 v -44.57044 c 0,-9.69974 0,-9.85529 9.3906,-9.85779 h 8.7519 V 88.5844 c 0,-9.31558 0.1845,-9.31571 9.8583,-9.31571 h 8.2848 v -54.4282 h -18.1426 v 54.4282 h -5e-4 v -9.8578 c 0,9.79033 0,9.85734 -9.6562,9.8578 h -8.4863 v 8.28477 c 0,9.58853 10e-5,9.85062 -9.0713,9.85779 -9.0714,-0.007 -9.0713,-0.26926 -9.0713,-9.85779 l -5e-4,-8.28477 h -8.2843 c -9.6987,0 -9.8558,-1.2e-4 -9.8583,-9.38754 V 24.84049 Z"
       sodipodi:nodetypes="ccccccccccccsccsccssccccccscscccsccc" />
    <path
       id="rect944"
       style="fill:#281845;fill-rule:evenodd;stroke-width:2.64583"
       d="m 3516.4662,24.84046 v 18.14256 h 72.5713 v 5.1e-4 8.28425 c 0,9.69525 0,9.85567 -9.3777,9.85832 h -8.7654 v 8.66097 c 0,9.48189 -0.1267,9.48159 -9.8578,9.48159 h -8.2848 v 8.28476 c 0,9.69701 0,9.85573 -9.3828,9.85832 h -8.7602 v 8.28424 c 0,9.8581 4e-4,9.85832 -9.8578,9.85832 h -8.2848 v 36.28564 h 90.7138 v -18.14308 h -72.5707 v -9.06973 c 0.01,-9.02859 0.2659,-9.07261 9.7177,-9.07283 h 8.4248 v -8.86354 c 0,-9.23738 0.1948,-9.27883 9.7271,-9.27902 h 8.4155 v -8.28477 c 0,-9.85814 2e-4,-9.85831 9.8583,-9.85831 h 8.2848 v -8.67131 c 0,-9.4712 0.1304,-9.47125 9.8578,-9.47125 h 8.2847 V 24.84046 Z"
       sodipodi:nodetypes="ccccsccsscsccssccccccscsscsscssccc" />
    <path
       id="rect980"
       style="fill:#281845;fill-rule:evenodd;stroke-width:2.64583"
       d="m 2575.3097,24.84046 -5e-4,8.28476 c 0,9.77736 3e-4,9.85764 -9.6175,9.85831 h -8.5251 v 90.71333 h 8.6677 c 9.275,0.002 9.4708,0.12445 9.4749,9.25525 v 8.88783 h 44.9549 c 9.348,0 9.4722,0.12617 9.4738,9.47487 v 8.66769 h 18.1426 v -18.14256 h -8.2848 c -9.6325,0 -9.8527,-2.8e-4 -9.8578,-9.19686 0.01,-8.8249 0.3055,-8.94462 9.4749,-8.94622 h 8.6677 V 42.98353 h -8.5251 c -9.4084,-6.5e-4 -9.613,-0.0777 -9.6175,-9.23302 v -8.91005 z m 54.4277,18.14256 v 5.1e-4 h 5e-4 v 90.71333 h -5e-4 v -9.8578 c 0,9.7301 1e-4,9.8561 -9.479,9.8578 h -35.4697 c -9.2887,-0.002 -9.4757,-0.12296 -9.4795,-9.28316 V 52.26669 c 0,-9.2832 0.1956,-9.28315 9.8583,-9.28316 z m 0,5.1e-4 h -9.8578 c 9.8581,10e-6 9.8578,-3.2e-4 9.8578,9.8578 z"
       sodipodi:nodetypes="ccccccccsccccscccccccccccccccccscccccc" />
    <path
       id="path982"
       style="fill:#281845;fill-rule:evenodd;stroke-width:2.64583"
       d="m 3242.2358,780.24749 c 0,9.8581 0,9.8581 9.8581,9.8581 h -9.8581 z"
       sodipodi:nodetypes="cccc" />
    <path
       id="path983"
       style="fill:#281845;fill-rule:evenodd;stroke-width:2.64583"
       d="m 3277.8271,790.10559 c 0,-9.8581 0,-9.8581 -9.8582,-9.8581 h 9.8582 z"
       sodipodi:nodetypes="cccc" />
    <path
       id="rect1005"
       style="fill:#281845;fill-rule:evenodd;stroke-width:2.64583"
       d="m 1545.7071,24.84049 v 8.68732 c 0,9.45525 -0.1363,9.45575 -9.8583,9.45576 h -8.2843 v 90.71333 h 8.6677 c 9.2767,0 9.4708,0.124 9.4749,9.2594 v 8.8837 h 54.4282 v -8.2848 c 0,-9.7287 3e-4,-9.8567 9.4754,-9.8583 h 8.6675 V 97.41177 h -54.4281 v 18.14256 h 36.2852 v 8.48889 c -5e-4,9.52748 -0.067,9.65198 -9.479,9.65368 h -35.4702 c -9.4791,0 -9.479,-0.1277 -9.479,-9.85778 V 52.84136 c 0,-9.85812 2e-4,-9.85778 9.8583,-9.85779 l 44.5699,-5.2e-4 v 5.2e-4 h -9.8583 c 9.7896,1e-5 9.8578,-1.1e-4 9.8583,9.65367 v 26.63145 h 18.1429 V 42.98357 h -8.2846 c -9.8581,-1e-5 -9.8583,-2e-4 -9.8583,-9.85832 v -8.28476 z"
       sodipodi:nodetypes="cssccscccsccccccccsssccccccccsscc" />
    <path
       id="rect1050"
       style="fill:#281845;fill-rule:evenodd;stroke-width:2.64583"
       d="m 2362.132,24.84046 v 8.28476 c 0,9.77736 3e-4,9.85764 -9.6175,9.85831 h -8.525 v 90.71333 h 8.6677 c 9.2569,0 9.4699,0.1237 9.4748,9.2015 v 8.94158 h 9.4796 44.9486 v -8.85011 c 0,-9.1685 0.1874,-9.29137 9.4754,-9.29297 h 8.6677 V 42.98353 h -8.5251 c -9.4289,-6.6e-4 -9.6144,-0.0777 -9.618,-9.29297 v -8.8501 z m 54.4282,18.14256 v 5.1e-4 h 5e-4 l -5e-4,80.85553 c 0,9.73008 0,9.8561 -9.479,9.8578 h -35.4696 c -9.3138,0 -9.4768,-0.12359 -9.4796,-9.35757 V 52.3411 c 0,-9.35765 0.1698,-9.35756 9.8583,-9.35757 z m 0,5.1e-4 h -9.8578 c 9.8581,10e-6 9.8578,-3.2e-4 9.8578,9.8578 z"
       sodipodi:nodetypes="cscccsccccsccccccccccccscscccccc" />
    <path
       id="path1192"
       style="fill:#281845;fill-rule:evenodd;stroke-width:2.64583"
       d="m 3323.2048,504.58568 v 18.142 h 18.1431 v 5e-4 h -6e-4 v 90.7133 h -5e-4 -18.142 v 18.1431 h 27.2138 v -4.5356 h -4.5356 v -4.5357 h -4.5357 v -4.5356 h -4.5356 v -4.5356 h 4.5356 4.5357 v 4.5356 h 4.5356 v 4.5356 h 4.5357 v 4.5357 h 4.5356 v 4.5356 h 18.1436 v -18.1431 h -18.1431 v -90.7133 h -4.5356 v -4.5356 h -4.5357 v -4.5357 h -4.5356 v -4.5356 h -4.5356 v -4.5356 z m 27.2143,0 v 4.5356 h 4.5357 v 4.5356 h 4.5356 v 4.5357 h 4.5357 v 4.5356 h 13.6069 v -18.1425 z" />
    <path
       id="path1195"
       style="fill:#281845;fill-rule:evenodd;stroke-width:2.64583"
       d="m 3484.2216,504.58538 v 126.9989 h 80.5082 v -18.1425 h -62.3657 v -108.8564 z m 26.08,0 v 18.142 h 18.1431 v 5e-4 h -5e-4 v 64.6328 h -18.1426 v 18.1436 h 27.2139 27.2143 v -18.1436 h -18.1425 v -64.6328 -5e-4 h 18.1425 v -18.142 z" />
    <path
       id="path1197"
       style="fill:#281845;fill-rule:evenodd;stroke-width:2.64583"
       d="m 3572.6673,504.58538 v 126.9994 h 18.1425 v -54.4282 h 36.2857 v -18.143 h -36.2857 v -36.2852 -5e-4 h 72.5708 v -18.1425 z"
       sodipodi:nodetypes="cccccccccccc" />
    <path
       id="path1198"
       style="fill:#281845;fill-rule:evenodd;stroke-width:2.64583"
       d="m 3671.3181,504.58538 h 18.1425 z m 72.5712,0 h 18.1426 z m -72.5712,5e-4 v 54.4282 h 8.8661 c 9.0562,0 9.2713,0.1889 9.2764,9.186 v 8.9571 h 8.7524 c 9.335,0 9.3904,0.156 9.3907,9.6862 v 44.742 h 18.1426 v -44.5705 c 0,-9.6997 0,-9.8552 9.3906,-9.8577 h 8.7519 v -8.8274 c 0,-9.3156 0.1845,-9.3157 9.8583,-9.3157 h 8.2848 v -54.4282 h -18.1426 v 54.4282 h -5e-4 v -9.8578 c 0,9.7903 0,9.8573 -9.6562,9.8578 h -8.4863 v 8.2847 c 0,9.5886 1e-4,9.8507 -9.0713,9.8578 -9.0714,-0.01 -9.0713,-0.2692 -9.0713,-9.8578 l -5e-4,-8.2847 h -8.2843 c -9.6987,0 -9.8558,-1e-4 -9.8583,-9.3876 v -45.0406 z"
       sodipodi:nodetypes="ccccccccccccsccsccssccccccscscccsccc" />
    <path
       id="path1199"
       style="fill:#281845;fill-rule:evenodd;stroke-width:2.64583"
       d="m 3224.5538,504.58538 v 126.9994 h 72.5707 v -8.6186 c 0,-9.3982 0.1094,-9.5228 9.4749,-9.5244 h 8.6677 v -36.2852 h -8.4781 c -9.4053,-4e-4 -9.6577,-0.062 -9.6645,-9.0904 0.01,-9.0523 0.2765,-9.0526 9.8583,-9.0526 h 8.2843 v -36.2852 h -8.2843 c -9.7443,0 -9.857,-10e-5 -9.8583,-9.5208 v -8.6222 z m 18.1425,18.1425 h 54.4282 v 5e-4 h -9.8583 c 9.8581,0 9.8583,-3e-4 9.8583,9.8578 v 16.5696 c 0,9.7918 1e-4,9.8573 -9.6604,9.8578 h -44.7678 v -36.2852 z m 0,54.4287 h 45.036 c 9.3924,0 9.3922,0.1575 9.3922,9.8578 v 16.5696 c 0,9.73 1e-4,9.8561 -9.479,9.8578 h -44.9492 z"
       sodipodi:nodetypes="cccccccccsccscccccccssccccccssccc" />
    <path
       style="fill:#281845;fill-rule:evenodd;stroke-width:2.64583"
       d="m 3435.462,536.33568 h 4.5356 v 4.5351 h -4.5356 z"
       id="path1224" />
    <path
       id="path1200"
       style="fill:#281845;fill-rule:evenodd;stroke-width:2.64583"
       d="M 3385.5706 504.58573 L 3385.5706 522.72778 L 3416.1108 522.72829 L 3421.8557 522.72829 L 3433.1945 522.72829 L 3433.1945 522.72778 L 3439.9988 522.72778 L 3446.0211 522.72778 L 3476.2844 522.72778 L 3476.2844 504.58573 L 3385.5706 504.58573 z M 3421.8557 527.26393 L 3421.8557 631.5847 L 3439.9988 631.5847 L 3439.9988 536.33521 L 3435.4621 536.33521 L 3433.1945 536.33521 L 3430.9265 536.33521 L 3430.9265 531.79957 L 3426.3908 531.79957 L 3426.3908 527.26393 L 3421.8557 527.26393 z " />
    <rect
       style="fill:#ffcb2f;fill-rule:evenodd;stroke-width:2.64584"
       id="rect1203"
       width="65.661537"
       height="27.047886"
       x="2719.9797"
       y="966.19208" />
    <rect
       style="fill:#ffcb2f;fill-rule:evenodd;stroke-width:2.64584"
       id="rect1210"
       width="4.5355659"
       height="4.5356159"
       x="3067.2205"
       y="1061.4508" />
    <rect
       style="fill:#ffcb2f;fill-rule:evenodd;stroke-width:2.64584"
       id="rect1211"
       width="4.5355659"
       height="4.5356159"
       x="3071.7561"
       y="1065.9865" />
    <rect
       style="fill:#ffcb2f;fill-rule:evenodd;stroke-width:2.64584"
       id="rect1212"
       width="4.5355659"
       height="4.5356159"
       x="3076.2917"
       y="1070.5221" />
    <rect
       style="fill:#ffcb2f;fill-rule:evenodd;stroke-width:2.64584"
       id="rect1213"
       width="4.5355659"
       height="4.5356159"
       x="3080.8274"
       y="1075.0577" />
    <rect
       style="fill:#ffcb2f;fill-rule:evenodd;stroke-width:2.64584"
       id="rect1221"
       width="4.5355659"
       height="4.5356159"
       x="3420.0205"
       y="705.77081" />
    <rect
       style="fill:#ffcb2f;fill-rule:evenodd;stroke-width:2.64584"
       id="rect1222"
       width="4.5355659"
       height="4.5356159"
       x="3424.5562"
       y="710.30646" />
    <rect
       style="fill:#ffcb2f;fill-rule:evenodd;stroke-width:2.64584"
       id="rect1223"
       width="4.5355659"
       height="4.5356159"
       x="3429.0918"
       y="714.8421" />
    <rect
       style="fill:#ffcb2f;fill-rule:evenodd;stroke-width:2.64584"
       id="rect1224"
       width="4.5355659"
       height="4.5356159"
       x="3433.6274"
       y="719.37775" />
  </g>
</svg>
