<svg xmlns="http://www.w3.org/2000/svg" xmlns:xlink="http://www.w3.org/1999/xlink" xmlns:inkscape="http://www.inkscape.org/namespaces/inkscape" version="1.1" width="13749" height="8558" viewBox="0 0 13749 8558">
<g>
<path d="M6108.98 6967.25C5996.324 6967.25 5936.895 7114.922 5898.773 7215.625H5898.742L5847.781 7351.281 5796.82 7215.625C5788.746 7191.68 5761.406 7141.086 5784.164 7123.016V7104.262H5653.711V7123.016C5678.922 7135.535 5705.387 7164.168 5724.695 7215.566L5811.73 7447.254H5831.762L5913.535 7229.578C5946.918 7133.875 6003.746 7062.309 6108.98 7056.285 6133.566 7056.285 6153.5 7036.352 6153.504 7011.762 6153.504 6987.172 6133.566 6967.238 6108.98 6967.238ZM6142.73 7104.273 6041.48 7104.277V7123.027C6061.812 7135.18 6075.207 7167.223 6075.23 7215.52V7336.023C6075.203 7384.32 6061.812 7416.363 6041.48 7428.516V7447.266L6176.484 7447.27V7428.516C6156.148 7416.367 6142.73 7384.324 6142.73 7336.027ZM6142.73 7104.273" fill-rule="evenodd"/>
<path d="M816.707 1517.484 637.441 1517.488V1536.238C657.777 1548.391 671.172 1580.434 671.195 1628.73V1886.266C671.164 1934.562 657.777 1966.605 637.441 1978.758V1997.508H816.707C912.254 1997.508 989.711 1960.012 989.711 1860.57 989.711 1784.766 944.699 1744.961 880.973 1730.32 916.793 1714.547 940.727 1682.551 940.727 1629.934 940.727 1549.789 885.199 1517.484 816.707 1517.484ZM777.418 1536.234C842.363 1536.234 873.223 1578.188 873.223 1629.938 873.223 1681.688 847.41 1723.637 777.418 1723.637H738.695V1536.238ZM738.695 1742.387H799.359C880.973 1742.387 922.207 1795.301 922.207 1860.574 922.207 1925.844 873.223 1978.758 799.359 1978.758 758.727 1978.758 738.695 1946.641 738.695 1897.125 739.207 1884.371 738.695 1742.387 738.695 1742.387ZM738.695 1742.387" fill-rule="evenodd"/>
<path d="M257.914 1517.484 119.418 1886.156C100.102 1937.578 73.637 1966.23 48.414 1978.754V1997.508L126.797 1997.504V1978.75C106.445 1966.59 123.75 1927.941 139.453 1886.141L145.969 1868.805H337.812L344.324 1886.141V1886.145C352.402 1910.086 379.742 1960.68 356.984 1978.75V1997.504L487.441 1997.508V1978.754C462.227 1966.234 435.762 1937.602 416.453 1886.203L277.945 1517.484ZM241.891 1613.461 330.77 1850.051H153.012ZM241.891 1613.461" fill-rule="evenodd"/>
<path d="M11683.574 1517.484V1536.238C11708.785 1548.758 11735.25 1577.391 11754.559 1628.789L11787.812 1717.309 11718.605 1901.535 11616.172 1628.852C11608.094 1604.906 11580.754 1554.312 11603.512 1536.242V1517.488H11473.059V1536.238C11498.27 1548.758 11524.734 1577.395 11544.043 1628.793L11682.555 1997.508H11702.582L11797.828 1743.969 11893.07 1997.508H11913.098L12051.594 1628.836C12070.91 1577.41 12097.379 1548.762 12122.598 1536.238V1517.484L12044.219 1517.488V1536.238C12064.566 1548.402 12047.262 1587.051 12031.559 1628.852L11929.125 1901.531 11826.688 1628.852V1628.848C11818.609 1604.906 11791.27 1554.309 11814.031 1536.238V1517.488ZM11683.574 1517.484" fill-rule="evenodd"/>
<path d="M10884.031 1517.484V1536.238C10909.242 1548.758 10935.707 1577.391 10955.016 1628.789L11093.527 1997.508H11113.555L11252.051 1628.836C11271.367 1577.41 11297.832 1548.762 11323.055 1536.238V1517.484L11244.676 1517.488V1536.238C11265.023 1548.402 11247.719 1587.051 11232.016 1628.852L11129.578 1901.531 11027.145 1628.852V1628.848C11019.066 1604.906 10991.727 1554.312 11014.484 1536.238V1517.488ZM10884.031 1517.484" fill-rule="evenodd"/>
<path d="M1533.539 1517.484V1518.504C1533.539 1551.18 1500.988 1552.746 1481.805 1541.234 1452.445 1523.621 1416.223 1518.504 1379.719 1518.504 1247.164 1518.504 1139.711 1625.961 1139.711 1758.52 1139.711 1891.074 1247.164 1998.535 1379.719 1998.535 1419.98 1998.535 1458.531 1989.715 1491.258 1971.094 1511.508 1959.574 1533.539 1972.207 1533.539 1998.535H1552.285V1836.023H1533.539C1533.539 1979.445 1381.152 1979.781 1379.719 1979.781 1284.445 1979.781 1207.215 1912.742 1207.215 1758.52 1207.215 1604.293 1284.445 1537.254 1379.719 1537.254 1469.66 1534.586 1533.539 1609.09 1533.539 1679.996H1552.285V1517.484ZM1533.539 1517.484" fill-rule="evenodd"/>
<path d="M1862.785 1517.484 1702.289 1517.488V1536.238C1722.621 1548.391 1736.016 1580.434 1736.039 1628.73V1886.266C1736.012 1934.562 1722.621 1966.605 1702.289 1978.758V1997.508H1862.785C1980.223 1997.508 2102.789 1903.754 2102.789 1757.5 2102.789 1624.945 1995.336 1517.484 1862.785 1517.484ZM1862.785 1536.234V1536.238C1958.055 1536.238 2035.289 1605.215 2035.289 1757.5 2035.289 1909.031 1958.82 1978.078 1864.203 1978.758 1823.57 1978.758 1803.539 1946.641 1803.539 1897.125 1804.051 1884.371 1803.539 1536.238 1803.539 1536.238ZM1862.785 1536.234" fill-rule="evenodd"/>
<path d="M2511.695 1517.484 2252.793 1517.488V1536.238C2273.125 1548.391 2286.52 1580.434 2286.543 1628.73V1886.266C2286.516 1934.562 2273.125 1966.605 2252.793 1978.758V1997.508H2520.539L2542.406 1882.23 2523.98 1878.734C2515.301 1924.52 2474.145 1978.473 2397.188 1978.758H2354.23L2354.043 1742.387H2365.785C2403.812 1742.387 2421.957 1776.379 2430.887 1805.172H2449.637V1660.848H2430.887C2421.957 1689.641 2403.812 1723.637 2365.785 1723.637H2354.043V1536.234H2388.102C2465.215 1536.406 2506.445 1590.43 2515.141 1636.262L2533.566 1632.766ZM2511.695 1517.484" fill-rule="evenodd"/>
<path d="M2951.312 1517.484 2692.41 1517.488V1536.238C2712.742 1548.391 2726.137 1580.434 2726.16 1628.73V1886.266C2726.133 1934.562 2712.742 1966.605 2692.41 1978.758V1997.508H2827.527V1978.758C2807.195 1966.605 2793.812 1934.562 2793.777 1886.266L2793.66 1742.387H2805.402C2843.43 1742.387 2861.574 1776.379 2870.504 1805.172H2889.254V1660.848H2870.504C2861.574 1689.641 2843.43 1723.633 2805.402 1723.633H2793.66V1536.234H2827.719C2904.836 1536.406 2946.066 1590.426 2954.758 1636.262L2973.184 1632.766ZM2951.312 1517.484" fill-rule="evenodd"/>
<path d="M5623.164 1517.484 5488.164 1517.488V1536.238C5508.496 1548.391 5521.891 1580.434 5521.914 1628.73V1886.266C5521.883 1934.562 5508.496 1966.605 5488.164 1978.758V1997.508H5755.906L5777.777 1882.23 5759.352 1878.734C5750.668 1924.52 5709.512 1978.473 5632.555 1978.758H5589.602L5589.414 1628.73C5589.383 1580.434 5602.832 1548.391 5623.164 1536.238ZM5623.164 1517.484" fill-rule="evenodd"/>
<path d="M3854.516 1517.484 3719.516 1517.488V1536.238C3739.848 1548.391 3753.242 1580.434 3753.266 1628.73V1886.258C3753.238 1934.555 3739.848 1966.598 3719.516 1978.75V1997.504H3854.516V1978.75C3834.184 1966.602 3820.766 1934.559 3820.766 1886.262V1742.387H4010.43V1886.258C4010.402 1934.555 3997.012 1966.598 3976.68 1978.75V1997.504H4111.68V1978.75C4091.348 1966.602 4077.93 1934.559 4077.93 1886.262V1628.73C4077.93 1580.434 4091.348 1548.391 4111.68 1536.238V1517.484L3976.68 1517.488V1536.238C3997.012 1548.391 4010.406 1580.434 4010.43 1628.73V1723.633H3820.766V1628.73C3820.766 1580.434 3834.184 1548.391 3854.516 1536.238ZM3854.516 1517.484" fill-rule="evenodd"/>
<path d="M4396.684 1517.484 4261.684 1517.488V1536.238C4282.016 1548.391 4295.41 1580.434 4295.434 1628.73V1886.258C4295.406 1934.555 4282.016 1966.598 4261.684 1978.75V1997.504H4396.684V1978.75C4376.352 1966.602 4362.934 1934.559 4362.934 1886.262V1628.73C4362.934 1580.434 4376.352 1548.391 4396.684 1536.238ZM4396.684 1517.484" fill-rule="evenodd"/>
<path d="M4813.027 1517.484 4678.023 1517.488V1536.238C4698.359 1548.391 4711.754 1580.434 4711.777 1628.73V1886.258C4711.777 1946.242 4675.93 1978.75 4645.473 1976.52 4615.117 1974.293 4565.434 1932.898 4565.434 1835.008H4546.688V1997.516H4565.434C4565.434 1976.418 4577.617 1967.102 4597.797 1978.75 4610.656 1986.176 4626.477 1997.516 4663.227 1997.504 4663.199 1997.289 4663.199 1997.086 4663.227 1996.887V1997.504C4741.797 1997.504 4779.277 1959.445 4779.277 1853.047V1628.73C4779.277 1580.434 4792.695 1548.391 4813.027 1536.238ZM4813.027 1517.484" fill-rule="evenodd"/>
<path d="M5098.031 1517.484 4963.031 1517.488V1536.238C4983.363 1548.391 4996.758 1580.434 4996.781 1628.73V1886.258C4996.754 1934.555 4983.363 1966.598 4963.031 1978.75V1997.504H5098.031V1978.75C5077.699 1966.602 5064.281 1934.559 5064.281 1886.262V1861.129L5103.93 1798.023C5122.367 1827.41 5140.871 1856.754 5159.297 1886.145 5181.945 1922.199 5192.301 1966.59 5171.953 1978.75V1997.504H5338.16V1978.75C5305.188 1971.461 5274.863 1943.191 5239.023 1886.152L5143.793 1734.586 5210.312 1628.719C5246.113 1571.766 5276.422 1543.523 5309.375 1536.238V1517.484L5200.746 1517.488V1536.238C5221.066 1548.383 5210.773 1592.66 5188.191 1628.684L5188.098 1628.836 5132.723 1716.965 5092.863 1780.406 5064.285 1825.895V1628.73C5064.285 1580.434 5077.703 1548.391 5098.035 1536.238ZM5098.031 1517.484" fill-rule="evenodd"/>
<path d="M12272.602 1517.484V1536.238C12305.578 1543.527 12335.902 1571.801 12371.742 1628.836L12466.977 1780.402 12400.34 1886.461C12364.586 1943.293 12334.312 1971.477 12301.395 1978.754L12301.391 1997.508 12410.02 1997.504V1978.754C12389.672 1966.59 12400.027 1922.195 12422.68 1886.141L12478.047 1798.023C12496.48 1827.41 12514.988 1856.754 12533.41 1886.145 12556.062 1922.199 12566.414 1966.59 12546.066 1978.754V1997.504H12712.273L12712.27 1978.754C12679.297 1971.461 12648.977 1943.191 12613.137 1886.152L12517.906 1734.586 12584.422 1628.719C12620.227 1571.766 12650.531 1543.523 12683.488 1536.238V1517.484L12574.859 1517.488V1536.238C12595.176 1548.383 12584.883 1592.66 12562.305 1628.684L12562.207 1628.836 12506.832 1716.969 12451.098 1628.262C12428.703 1592.316 12418.566 1548.336 12438.809 1536.242V1517.488ZM12272.602 1517.484" fill-rule="evenodd"/>
<path d="M12862.277 1517.484V1536.238C12895.254 1543.527 12925.578 1571.801 12961.414 1628.836L13048.363 1767.215V1886.258C13048.332 1934.555 13034.945 1966.598 13014.609 1978.75V1997.504H13149.613V1978.75C13129.281 1966.602 13115.863 1934.559 13115.863 1886.262V1721.402L13174.098 1628.719C13209.902 1571.766 13240.207 1543.523 13273.16 1536.238V1517.484L13164.531 1517.488V1536.238C13184.852 1548.383 13174.559 1592.66 13151.98 1628.684L13151.883 1628.836 13096.508 1716.965 13040.773 1628.262C13018.375 1592.316 13008.242 1548.336 13028.484 1536.242V1517.488ZM12862.277 1517.484" fill-rule="evenodd"/>
<path d="M5927.781 1517.488V1536.238C5948.113 1548.391 5961.508 1580.434 5961.531 1628.73V1886.258C5961.504 1934.555 5948.113 1966.598 5927.781 1978.75V1997.504H6014.031V1978.75C5993.699 1966.602 5980.281 1934.559 5980.281 1886.262V1628.73C5980.281 1616.062 5981.203 1604.516 5982.934 1594.152 5988.574 1604.32 5993.898 1615.832 5998.766 1628.793L6137.277 1997.508H6157.305L6295.801 1628.84C6302.336 1611.445 6309.684 1596.656 6317.527 1584.219 6320.527 1596.969 6322.168 1611.859 6322.176 1628.73V1886.258C6322.148 1934.555 6308.758 1966.598 6288.426 1978.75V1997.504H6423.426V1978.75C6403.094 1966.602 6389.676 1934.559 6389.676 1886.262V1628.73C6389.676 1580.434 6403.094 1548.391 6423.426 1536.238V1517.484L6288.426 1517.488V1536.242C6309.898 1557.922 6285.449 1604.746 6275.766 1628.852L6173.332 1901.535 6070.895 1628.852C6062.816 1604.906 6035.477 1554.312 6058.238 1536.242V1517.488ZM5927.781 1517.488" fill-rule="evenodd"/>
<path d="M6659.68 1517.484 6573.43 1517.488V1536.238C6593.762 1548.391 6607.156 1580.434 6607.18 1628.73V1886.258C6607.152 1934.555 6593.762 1966.598 6573.43 1978.75V1997.504H6659.68V1978.75C6639.348 1966.602 6625.93 1934.559 6625.93 1886.262V1628.73C6625.93 1616.836 6626.746 1605.926 6628.277 1596.059L6875.723 1997.504H6961.977V1978.75C6941.645 1966.602 6928.227 1934.559 6928.227 1886.262V1628.73C6928.227 1580.434 6941.645 1548.391 6961.977 1536.238V1517.484L6875.723 1517.488V1536.238C6896.059 1548.391 6909.453 1580.434 6909.477 1628.73V1886.258C6909.477 1898.402 6908.617 1909.52 6907.02 1919.551ZM6659.68 1517.484" fill-rule="evenodd"/>
<path d="M7351.984 1517.484C7219.434 1517.484 7111.98 1624.945 7111.98 1757.5 7111.98 1890.059 7219.434 1997.516 7351.984 1997.516 7484.535 1997.516 7591.988 1890.059 7591.988 1757.5 7591.988 1624.945 7484.535 1517.484 7351.984 1517.484ZM7351.984 1536.238C7447.254 1536.238 7524.488 1605.215 7524.488 1757.5 7524.488 1909.785 7447.254 1978.762 7351.984 1978.762 7256.715 1978.762 7179.48 1911.727 7179.48 1757.5 7179.48 1603.277 7256.715 1536.238 7351.984 1536.238ZM7351.984 1536.238" fill-rule="evenodd"/>
<path d="M7741.992 1517.5V1536.25C7762.324 1548.402 7775.723 1580.445 7775.742 1628.742V1886.27C7775.715 1934.566 7762.324 1966.609 7741.992 1978.762V1997.516H7876.996V1978.762C7856.66 1966.613 7843.242 1934.57 7843.242 1886.273V1791.355H7882.004C7983.551 1791.355 8055.004 1744.312 8055.004 1654.418 8055.004 1561.227 8013.176 1517.48 7919.504 1517.484ZM7906.93 1536.23C7968.402 1536.23 7987.504 1580.527 7987.504 1654.418 7987.504 1743.691 7940.27 1772.605 7882.004 1772.605H7843.242V1628.742C7843.242 1560.953 7873.492 1536.23 7906.93 1536.23ZM7906.93 1536.23" fill-rule="evenodd"/>
<path d="M9012.531 1517.5H8835.023V1536.25C8855.355 1548.402 8868.75 1580.445 8868.773 1628.742V1886.27C8868.746 1934.566 8855.355 1966.609 8835.023 1978.762V1997.516H8970.023V1978.762C8949.691 1966.613 8936.273 1934.57 8936.273 1886.273V1791.355H8975.031C9076.578 1791.355 9148.035 1744.312 9148.035 1654.418 9148.035 1561.227 9106.207 1517.48 9012.531 1517.484ZM8999.957 1536.246C9061.43 1536.246 9080.535 1580.539 9080.535 1654.434 9080.535 1743.707 9033.297 1772.617 8975.031 1772.617H8936.273V1628.754C8936.273 1560.969 8966.523 1536.246 8999.957 1536.246ZM8965.66 1791.371C8965.66 1891.98 8988.523 2003.395 9161.676 1997.352L9159.32 1929.895C9080.098 1932.66 8984.406 1890.023 8984.406 1791.371ZM8965.66 1791.371" fill-rule="evenodd"/>
<path d="M8445.016 1517.484C8312.461 1517.484 8205.008 1624.945 8205.008 1757.5 8205.008 1864.781 8275.391 1955.621 8372.496 1986.363 8347.75 2021.875 8317.012 2046.527 8282.543 2055.766L8287.391 2073.875C8371.551 2051.324 8491.402 2061.062 8597.887 2111.254L8629.379 2050.312C8555.863 2018.738 8460.984 2004.836 8346.379 2042.477 8363.188 2028.656 8378.34 2011.441 8391.578 1991.547 8408.762 1995.453 8426.648 1997.516 8445.016 1997.516 8577.566 1997.516 8685.02 1890.059 8685.02 1757.5 8685.02 1624.945 8577.566 1517.484 8445.016 1517.484ZM8445.016 1536.238C8540.285 1536.238 8617.52 1605.215 8617.52 1757.5 8617.516 1909.785 8540.285 1978.766 8445.016 1978.762 8430.312 1978.762 8416.043 1977.168 8402.418 1973.902 8404.809 1969.691 8407.117 1965.383 8409.352 1960.988 8438.164 1904.199 8454.391 1832.5 8454.391 1757.5 8454.391 1678.582 8394.781 1643.48 8340.988 1655.477 8315.859 1661.082 8292.27 1677.004 8276.188 1702.48 8292.594 1587.199 8361.949 1536.238 8445.016 1536.238ZM8360.852 1671.941C8397.992 1671.461 8435.637 1698.012 8435.637 1757.5 8435.637 1829.781 8419.84 1898.883 8392.629 1952.504 8389.871 1957.941 8386.996 1963.215 8384.016 1968.312 8325.496 1946.578 8282.16 1890.211 8273.93 1792.434 8269.637 1719.816 8306.535 1682.379 8345.078 1673.781 8350.25 1672.629 8355.547 1672.008 8360.852 1671.941ZM8360.852 1671.941" fill-rule="evenodd"/>
<path d="M9487.492 1517.484C9364.594 1517.484 9313.922 1576.277 9313.922 1650.277 9313.922 1800.039 9580.449 1753.016 9580.449 1886.066 9580.449 1948.348 9534.34 1977.32 9481.723 1977.473 9411.816 1977.676 9330.43 1927.02 9330.43 1836.027H9311.68V1997.516H9330.43C9330.742 1941.188 9359.863 1968.566 9408.164 1986.355 9425.996 1992.926 9454.488 1997.531 9486.016 1997.105 9563.918 1996.059 9660.363 1964.297 9660.363 1855.543 9660.363 1743.035 9559.391 1716.055 9471.367 1691.234 9346.539 1655.164 9385.023 1536.238 9487.492 1536.238 9560.121 1536.238 9630.551 1591.551 9630.551 1678.988H9649.301V1517.496H9630.551C9604.07 1557.766 9560.777 1517.496 9487.492 1517.496ZM9487.492 1517.484" fill-rule="evenodd"/>
<path d="M9832.234 1517.484H9832.238L9810.367 1632.766 9828.793 1636.258C9837.484 1590.426 9878.715 1536.234 9955.832 1536.234H9967.336L9967.277 1886.262C9967.242 1934.559 9953.859 1966.602 9933.523 1978.754V1997.508H10068.699V1978.754C10048.363 1966.602 10034.984 1934.559 10034.945 1886.262L10034.891 1536.234H10046.391C10123.508 1536.234 10164.738 1590.426 10173.43 1636.258L10191.855 1632.766 10169.988 1517.484ZM9832.234 1517.484" fill-rule="evenodd"/>
<path d="M10476.863 1517.484 10341.859 1517.488V1536.238C10362.191 1548.391 10375.59 1580.434 10375.609 1628.73V1858.457C10375.609 1941.051 10430.43 1997.504 10537.945 1997.504 10645.457 1997.504 10700.277 1941.051 10700.277 1858.457V1628.73C10700.277 1580.434 10713.695 1548.391 10734.027 1536.238V1517.484L10599.023 1517.488V1536.238C10619.359 1548.391 10632.754 1580.434 10632.777 1628.73V1858.457C10632.777 1930.691 10601.09 1978.754 10537.945 1978.754 10474.797 1978.754 10443.109 1930.695 10443.109 1858.457V1628.73C10443.109 1580.434 10456.527 1548.391 10476.863 1536.238ZM10476.863 1517.484" fill-rule="evenodd"/>
<path d="M13448.395 1517.484 13426.523 1632.766 13444.953 1636.258C13453.645 1590.426 13494.871 1536.23 13571.988 1536.234H13655.676L13423.164 1997.508H13727.129L13749 1882.227 13730.574 1878.73C13721.891 1924.516 13680.738 1978.469 13603.777 1978.758L13508.211 1978.754 13740.723 1517.484ZM13448.395 1517.484" fill-rule="evenodd"/>
<path d="M655.324 2529.004H554.07V2547.758C574.402 2559.906 587.797 2591.949 587.82 2640.246L587.824 3009.02H606.648C613.441 2996.25 629.047 2989.125 644.453 2989.125 678.414 2989.125 679.035 3009.02 754.117 3009.02 954.109 3009.02 964.059 2666.027 758.52 2666.027 708.773 2666.027 674.523 2691.434 655.324 2729.742ZM743.176 2684.777C873.207 2684.844 873.152 2990.184 742.672 2990.27 710.191 2989.371 686.512 2970.871 673.52 2944.641 660.508 2918.359 655.324 2884.629 655.324 2858.574V2816.473C655.324 2802.77 662.738 2687.031 743.176 2684.777ZM743.176 2684.777" fill-rule="evenodd"/>
<path d="M1816.266 2529.004H1715.02V2547.758C1735.352 2559.906 1748.746 2591.949 1748.766 2640.246V2729.742C1729.566 2691.434 1695.312 2666.027 1645.566 2666.027 1440.031 2666.027 1449.98 3009.02 1649.969 3009.02 1667.684 3009.02 1721.852 3004.496 1747.371 2952.961 1747.848 2952.004 1748.312 2951.039 1748.766 2950.066V2953.602C1748.766 2980.82 1759.484 3009.02 1787.918 3009.02H1850.02V2990.266C1829.688 2978.117 1816.266 2946.074 1816.266 2897.777ZM1660.914 2684.777C1741.352 2687.031 1748.766 2802.77 1748.766 2816.473V2858.574C1748.766 2884.629 1743.582 2918.359 1730.57 2944.641 1717.578 2970.871 1693.895 2989.371 1661.414 2990.27 1530.938 2990.18 1530.883 2684.844 1660.914 2684.777ZM1660.914 2684.777" fill-rule="evenodd"/>
<path d="M2167.996 2666.027C2075.227 2666.027 2000.023 2717.609 2000.023 2837.523 2000.023 2957.434 2075.227 3009.02 2167.996 3009.02 2243.406 3009.02 2307.211 2974.746 2328.449 2897.668H2305.77C2278.715 2997.762 2080.633 3040.305 2068.141 2856.27H2335.973V2837.523C2335.973 2717.898 2260.766 2666.023 2167.996 2666.027ZM2167.996 2684.777C2223.488 2684.777 2268.473 2735.148 2268.473 2837.523H2067.516C2067.516 2735.148 2112.5 2684.777 2167.988 2684.777ZM2167.996 2684.777" fill-rule="evenodd"/>
<path d="M1326.895 2666.023C1321.805 2675.297 1314.285 2679.922 1298.734 2679.922 1276.582 2679.922 1272.246 2666.023 1226.418 2666.027 1133.648 2666.027 1058.445 2717.609 1058.445 2837.523 1058.445 2957.434 1133.648 3009.02 1226.418 3009.02 1279.422 3009.02 1277.691 2992.809 1301.672 2992.809 1313.109 2992.809 1320.836 2998.922 1326.895 3009.02H1345.645V2875.77H1324.566C1314.688 2952.457 1274.496 2990.27 1226.418 2990.27 1170.93 2990.27 1125.945 2939.898 1125.945 2837.523 1125.945 2735.148 1170.93 2684.777 1226.418 2684.777 1274.496 2684.777 1314.684 2722.59 1324.566 2799.273H1345.645V2666.023ZM1326.895 2666.023" fill-rule="evenodd"/>
<path d="M2718.566 2529C2718.566 2550.098 2709.75 2553.09 2698.582 2546.641 2685.719 2539.215 2672.527 2528.988 2635.773 2529.004 2635.801 2529.215 2635.801 2529.422 2635.773 2529.621V2529.004C2557.203 2529 2519.727 2567.059 2519.727 2673.457V2725.773H2485.977V2744.527H2519.727V2897.773C2519.727 2946.074 2506.309 2978.117 2485.977 2990.266V3009.02H2620.977V2990.266C2600.645 2978.117 2587.25 2946.074 2587.227 2897.773V2744.527H2675.07V2725.773H2587.227V2640.246C2587.227 2580.262 2623.074 2547.754 2653.527 2549.984 2683.887 2552.211 2718.566 2568.133 2718.566 2666.027H2737.312V2529ZM2718.566 2529" fill-rule="evenodd"/>
<path d="M4666.152 2529.004H4564.902V2547.758C4585.234 2559.91 4598.629 2591.949 4598.652 2640.246V2897.449C4598.652 2897.555 4598.652 2897.668 4598.652 2897.773 4598.652 2919.25 4595.391 2972.047 4564.902 2990.266V3009.02H4702.32V2990.266C4681.969 2978.105 4692.324 2933.711 4714.98 2897.656L4727.297 2878.051C4745.734 2907.438 4721.188 2868.27 4739.613 2897.664 4762.262 2933.715 4772.617 2978.105 4752.266 2990.266V3009.02H4918.477L4918.473 2990.266C4885.5 2982.977 4855.176 2954.707 4819.34 2897.668L4767.156 2814.613 4790.625 2777.262C4826.43 2720.305 4856.734 2692.066 4889.691 2684.781V2666.027H4781.062V2684.781C4801.379 2696.922 4791.129 2741.227 4768.508 2777.223 4734.262 2827.734 4705.625 2883.824 4668.898 2932.52 4668.168 2928.184 4666.152 2914.406 4666.152 2897.777ZM4666.152 2529.004" fill-rule="evenodd"/>
<path d="M3493.617 2529.004H3392.367V2547.758C3412.699 2559.91 3426.094 2591.949 3426.113 2640.246V2897.773C3426.086 2946.074 3412.699 2978.113 3392.367 2990.266V3009.02H3527.367V2990.266C3507.035 2978.117 3493.613 2946.074 3493.613 2897.777V2816.477H3493.617C3493.617 2802.77 3501.031 2687.031 3581.469 2684.777 3620.441 2684.805 3650.281 2719.367 3650.281 2795.094V2897.773C3650.254 2946.074 3636.867 2978.117 3616.531 2990.266V3009.02H3751.535V2990.266C3731.199 2978.117 3717.781 2946.074 3717.781 2897.773V2795.094C3717.781 2684.004 3648.746 2666.027 3596.812 2666.027 3547.07 2666.027 3512.816 2691.438 3493.613 2729.746ZM3493.617 2529.004" fill-rule="evenodd"/>
<path d="M5169.73 2529.004H5068.477V2547.758C5088.812 2559.906 5102.203 2591.949 5102.227 2640.246V2897.773C5102.199 2946.07 5088.812 2978.113 5068.477 2990.266V3009.02H5203.48V2990.266C5183.148 2978.117 5169.727 2946.074 5169.727 2897.777ZM5169.73 2529.004" fill-rule="evenodd"/>
<path d="M5454.734 2666.027H5353.484V2684.781C5373.816 2696.93 5387.211 2728.973 5387.234 2777.27V2897.773C5387.207 2946.074 5373.816 2978.113 5353.484 2990.266V3009.02H5488.484V2990.266C5468.152 2978.117 5454.73 2946.074 5454.73 2897.777L5454.734 2816.426C5454.762 2802.504 5462.242 2687.031 5542.586 2684.777 5581.559 2684.805 5611.398 2719.367 5611.398 2795.094V2897.773C5611.371 2946.074 5597.984 2978.117 5577.648 2990.266V3009.02H5712.652V2990.266C5692.32 2978.117 5678.898 2946.074 5678.898 2897.773V2816.477C5678.898 2802.77 5686.312 2687.031 5766.75 2684.777 5805.727 2684.805 5835.566 2719.367 5835.566 2795.094V2897.773C5835.535 2946.074 5822.148 2978.117 5801.816 2990.266V3009.02H5936.816V2990.266C5916.484 2978.117 5903.066 2946.074 5903.066 2897.773V2795.094C5903.066 2684.004 5834.027 2666.027 5782.098 2666.027 5726.477 2666.027 5690.227 2697.793 5672.723 2743.836 5654.664 2678.129 5600.539 2666.027 5557.93 2666.027 5508.188 2666.027 5473.938 2691.434 5454.734 2729.742ZM5454.734 2666.027" fill-rule="evenodd"/>
<path d="M3969.035 2529.004C3944.445 2529.004 3924.516 2548.938 3924.512 2573.527 3924.516 2598.117 3944.445 2618.051 3969.035 2618.051 3980.844 2618.051 3992.168 2613.359 4000.52 2605.012 4008.867 2596.66 4013.559 2585.336 4013.559 2573.527 4013.559 2561.719 4008.867 2550.395 4000.52 2542.043 3992.168 2533.691 3980.844 2529.004 3969.035 2529.004ZM4002.789 2666.027H3901.535V2684.781C3921.871 2696.93 3935.262 2728.973 3935.285 2777.27V2897.773C3935.258 2946.074 3921.871 2978.113 3901.535 2990.266V3009.02H4036.539V2990.266C4016.207 2978.117 4002.785 2946.074 4002.785 2897.777ZM4002.789 2666.027" fill-rule="evenodd"/>
<path d="M6188.07 2666.027H6086.82V2684.781C6107.152 2696.93 6120.547 2728.973 6120.57 2777.27V2897.773C6120.539 2946.074 6107.152 2978.113 6086.82 2990.266V3009.02H6221.82V2990.266C6201.488 2978.117 6188.07 2946.074 6188.07 2897.777V2816.477C6188.07 2816.449 6188.07 2816.438 6188.07 2816.418 6188.098 2802.465 6195.586 2687.027 6275.922 2684.777 6314.895 2684.805 6344.734 2719.367 6344.734 2795.094V2897.773C6344.707 2946.07 6331.316 2978.117 6310.984 2990.266V3009.02H6445.988V2990.266C6425.652 2978.117 6412.234 2946.07 6412.234 2897.773V2795.094C6412.234 2684.004 6343.195 2666.027 6291.266 2666.027 6241.523 2666.027 6207.273 2691.434 6188.07 2729.742ZM6188.07 2666.027" fill-rule="evenodd"/>
<path d="M6763.965 2666.027C6671.195 2666.027 6595.988 2717.609 6595.988 2837.523 6595.988 2957.434 6671.195 3009.02 6763.965 3009.02 6856.734 3009.02 6931.941 2957.145 6931.941 2837.523 6931.941 2717.898 6856.734 2666.023 6763.965 2666.027ZM6763.965 2684.777C6819.453 2684.777 6864.438 2735.148 6864.438 2837.523 6864.438 2939.898 6819.453 2990.27 6763.965 2990.27 6708.473 2990.27 6663.492 2939.898 6663.492 2837.523 6663.492 2735.148 6708.473 2684.777 6763.965 2684.777ZM6763.965 2684.777" fill-rule="evenodd"/>
<path d="M7183.195 2666.027H7081.941V2684.781C7102.277 2696.93 7115.672 2728.973 7115.691 2777.27V3034.797C7115.664 3083.094 7102.277 3115.137 7081.941 3127.289V3146.043H7216.945V3127.289C7196.613 3115.141 7183.191 3083.094 7183.191 3034.797V2950.066C7183.648 2951.035 7184.113 2952 7184.59 2952.961 7210.109 3004.496 7264.277 3009.02 7281.992 3009.02 7357.512 3009.02 7434.215 2957.145 7434.215 2837.523 7434.215 2678.43 7326.32 2666.027 7286.391 2666.027 7236.648 2666.027 7202.395 2691.434 7183.195 2729.742ZM7271.047 2684.777C7326.52 2684.805 7366.715 2735.168 7366.715 2837.523 7366.715 2939.859 7326.008 2990.23 7270.543 2990.27 7238.062 2989.371 7214.383 2970.871 7201.391 2944.641 7188.379 2918.359 7183.195 2884.629 7183.195 2858.574H7183.191L7183.195 2816.473C7183.195 2802.77 7190.609 2687.031 7271.047 2684.777ZM7271.047 2684.777" fill-rule="evenodd"/>
<path d="M7732.043 2666.027C7692.109 2666.027 7584.219 2678.43 7584.219 2837.523 7584.219 2957.145 7660.922 3009.02 7736.441 3009.02 7754.156 3009.02 7808.324 3004.496 7833.844 2952.961 7834.32 2952 7834.785 2951.035 7835.242 2950.066V3034.797C7835.242 3083.094 7821.82 3115.141 7801.488 3127.289V3146.043H7936.488V3127.289C7916.156 3115.137 7902.77 3083.094 7902.742 3034.797V2777.27C7902.77 2728.973 7916.156 2696.93 7936.488 2684.781V2666.027H7835.238V2729.742C7816.035 2691.434 7781.785 2666.027 7732.043 2666.027ZM7747.387 2684.777C7827.824 2687.031 7835.238 2802.77 7835.238 2816.473L7835.242 2858.574H7835.238C7835.238 2884.629 7830.055 2918.359 7817.039 2944.641 7804.051 2970.871 7780.371 2989.371 7747.887 2990.27 7692.426 2990.23 7651.719 2939.859 7651.719 2837.523 7651.719 2735.168 7691.914 2684.805 7747.387 2684.777ZM7747.387 2684.777" fill-rule="evenodd"/>
<path d="M8187.746 2666.027H8086.492V2684.781C8106.824 2696.93 8120.223 2728.973 8120.242 2777.27V2897.773C8120.215 2946.074 8106.824 2978.113 8086.492 2990.266V3009.02H8221.492V2990.266C8201.16 2978.117 8187.742 2946.074 8187.742 2897.777V2816.477C8187.742 2802.77 8195.156 2687.031 8275.594 2684.777 8314.57 2684.805 8355.547 2715.656 8355.547 2795.094H8374.297V2666.027H8355.547C8355.547 2672.41 8351.047 2680.176 8340.961 2680.176 8325.039 2680.176 8312.371 2666.027 8285.637 2666.027 8237.543 2666.027 8205.762 2689.777 8187.742 2725.973ZM8187.746 2666.027" fill-rule="evenodd"/>
<path d="M4370.379 2529.004C4358.57 2529.004 4347.246 2533.691 4338.895 2542.043 4330.547 2550.395 4325.855 2561.719 4325.855 2573.527 4325.855 2585.336 4330.547 2596.66 4338.895 2605.008 4347.246 2613.359 4358.57 2618.051 4370.379 2618.051 4394.965 2618.051 4414.898 2598.117 4414.898 2573.527 4414.898 2548.938 4394.965 2529.004 4370.379 2529.004ZM4302.879 2666.027V2684.781C4323.211 2696.93 4336.605 2728.973 4336.629 2777.27V3034.801C4336.629 3094.785 4300.863 3125.059 4270.328 3125.059 4235.195 3125.059 4205.289 3091.531 4205.289 3042.434H4186.543V3146.047H4205.289C4205.289 3124.949 4214.105 3121.957 4225.273 3128.406 4238.137 3135.832 4251.328 3146.059 4288.082 3146.043 4288.051 3145.832 4288.051 3145.625 4288.082 3145.426V3146.043C4366.652 3146.047 4404.129 3107.984 4404.129 3001.59V2666.027ZM4302.879 2666.027" fill-rule="evenodd"/>
<path d="M10904.078 2666.027 10904.082 2684.777C10937.059 2692.07 10967.383 2720.34 11003.219 2777.379L11055.402 2860.43 11031.812 2897.977C10996.059 2954.805 10965.785 2982.992 10932.867 2990.266V3009.02H11041.496V2990.266C11021.145 2978.105 11031.504 2933.711 11054.156 2897.656L11066.473 2878.051C11084.91 2907.438 11060.367 2868.27 11078.789 2897.66 11101.441 2933.715 11111.793 2978.105 11091.445 2990.266V3009.02H11257.652V2990.266C11224.68 2982.977 11194.352 2954.707 11158.516 2897.668L11106.332 2814.613 11129.801 2777.262C11165.605 2720.305 11195.914 2692.062 11228.867 2684.777V2666.027H11120.238V2684.781C11140.555 2696.922 11130.305 2741.227 11107.684 2777.223L11095.262 2796.992 11082.578 2776.805C11060.18 2740.855 11050.047 2696.875 11070.285 2684.781V2666.027ZM10904.078 2666.027" fill-rule="evenodd"/>
<path d="M3054.922 2666.039C3054.832 2666.039 3054.758 2666.039 3054.699 2666.039 2980.289 2666.109 2920 2700.945 2920 2781.848 2920 2833.293 2944.379 2866.117 2981.266 2883.219 2971.684 2885.508 2962.398 2888.926 2953.621 2893.992 2924.34 2910.898 2918.02 2940.195 2923.133 2965.141 2945.801 3052.672 3073.914 3002.938 3136.371 2996.316 3222.754 2989.031 3208.906 3069.48 3156.211 3092.883 3118.395 3109.68 3069.453 3117.391 3025.117 3113.215 2980.781 3109.039 2941.645 3093.02 2921.086 3064.938 2902.66 3039.773 2899.902 3008.848 2917.789 2976.105L2901.336 2967.117C2880.539 3005.184 2883.543 3045.395 2905.961 3076.012 2931.102 3110.352 2975.652 3127.387 3023.359 3131.879 3071.07 3136.371 3122.523 3128.363 3163.824 3110.02 3226.445 3082.207 3250.664 3031.793 3239.883 2989.164 3229.105 2946.535 3184.09 2914.195 3119.715 2919.629 3063.938 2924.332 2999.77 2949.059 2967.031 2937.801 2948.539 2931.438 2955.758 2915.602 2964.621 2909.184 2987.508 2895.648 3015.859 2896.484 3042.219 2897.32 3046.398 2897.555 3050.637 2897.668 3054.922 2897.668 3129.438 2897.668 3189.844 2862.633 3189.844 2781.848 3189.844 2734.484 3169.082 2702.852 3136.891 2684.777 3191.25 2684.777 3202.648 2705.062 3202.648 2752.789H3221.395V2666.027H3202.648C3171.469 2666.027 3092.531 2666.09 3055.75 2666.027 3055.473 2666.027 3055.199 2666.027 3054.922 2666.027ZM3054.922 2684.789C3092.398 2684.789 3122.777 2716.801 3122.777 2781.859 3122.777 2846.918 3092.398 2878.93 3054.922 2878.93 3017.445 2878.93 2987.066 2846.918 2987.066 2781.859 2987.066 2716.801 3017.445 2684.789 3054.922 2684.789ZM3054.922 2684.789" fill-rule="evenodd"/>
<path d="M8654.836 2665.645C8563.586 2665.645 8525.965 2707.699 8525.965 2760.633 8525.965 2867.762 8723.855 2834.125 8723.855 2929.297 8723.855 2973.848 8689.617 2989.773 8650.551 2989.883 8598.652 2990.031 8543.047 2958.59 8543.047 2893.504H8524.301V3009.02H8543.047C8543.277 2968.727 8560.078 2988.312 8595.938 3001.039 8609.176 3005.734 8630.332 3009.031 8653.738 3008.727 8711.578 3007.977 8783.188 2985.258 8783.188 2907.461 8783.188 2826.984 8708.219 2807.684 8642.863 2789.93 8550.184 2764.129 8577.93 2684.395 8654.008 2684.395 8707.934 2684.395 8756.227 2718.625 8756.227 2781.168H8774.973V2665.652H8756.227C8740.73 2692.496 8709.25 2665.652 8654.836 2665.652ZM8654.836 2665.645" fill-rule="evenodd"/>
<path d="M8966.941 2613.711V2666.027H8933.191V2684.781H8966.941V2931.176C8966.941 2988.238 8992.133 3009.02 9068.191 3009.02V2990.266C9039.59 2990.266 9034.441 2961.961 9034.441 2931.176V2684.781H9078.637V2666.027H9034.441V2580.5ZM8966.941 2613.711" fill-rule="evenodd"/>
<path d="M9228.637 2666.023V2684.777C9248.973 2696.926 9262.391 2728.973 9262.391 2777.27V2879.949C9262.391 2991.039 9331.426 3009.016 9383.355 3009.016 9433.098 3009.016 9467.352 2983.609 9486.555 2945.305V2953.602C9486.555 2980.82 9497.27 3009.02 9525.703 3009.02H9587.805V2990.266C9567.473 2978.117 9554.055 2946.074 9554.055 2897.777V2666.027H9452.805V2684.781C9473.137 2696.93 9486.531 2728.973 9486.555 2777.27V2858.977C9486.41 2874.422 9478.391 2988.031 9398.703 2990.266 9359.73 2990.238 9329.891 2955.676 9329.891 2879.949V2666.023ZM9228.637 2666.023" fill-rule="evenodd"/>
<path d="M9737.809 2666.027V2684.777C9763.02 2697.297 9789.488 2725.934 9808.797 2777.332L9895.832 3009.02H9915.859L10002.879 2777.379C10022.199 2725.953 10048.664 2697.301 10073.883 2684.777V2666.027H9995.504V2684.781C10015.855 2696.941 9998.547 2735.59 9982.844 2777.391L9931.883 2913.047 9880.922 2777.391C9872.848 2753.445 9845.504 2702.852 9868.266 2684.781V2666.027ZM9737.809 2666.027" fill-rule="evenodd"/>
<path d="M10223.887 2666.027V2684.781C10249.102 2697.297 10275.566 2725.934 10294.875 2777.332L10381.91 3009.02H10401.938L10488.961 2777.379C10488.961 2777.352 10488.961 2777.348 10488.988 2777.328L10576.023 3009.02H10596.051L10683.07 2777.375C10702.391 2725.953 10728.855 2697.301 10754.074 2684.777V2666.023L10675.695 2666.027V2684.781C10696.047 2696.941 10678.738 2735.59 10663.035 2777.391L10612.074 2913.043 10561.117 2777.391 10561.113 2777.387C10553.039 2753.445 10525.699 2702.852 10548.457 2684.781V2666.027L10418 2666.023V2684.777C10438.84 2695.125 10460.535 2716.48 10478.336 2752.602 10475.355 2760.605 10472.113 2768.934 10468.934 2777.391L10417.973 2913.043 10367.012 2777.391V2777.387C10358.934 2753.445 10331.594 2702.852 10354.355 2684.781V2666.027ZM10223.887 2666.027" fill-rule="evenodd"/>
<path d="M11407.656 2666.027V2684.777C11432.867 2697.297 11459.332 2725.934 11478.641 2777.332L11565.055 3007.367C11533.648 3071.215 11489.859 3078.828 11407.656 3078.539V3146.043C11510.074 3146.402 11557.953 3075.332 11585.707 3009.02 11614.715 2931.805 11643.719 2854.59 11672.727 2777.379 11692.047 2725.953 11718.512 2697.301 11743.73 2684.777V2666.027H11665.352V2684.781C11685.703 2696.941 11668.395 2735.59 11652.691 2777.391L11601.73 2913.047 11550.77 2777.391C11542.691 2753.445 11515.352 2702.852 11538.113 2684.781V2666.027ZM11407.656 2666.027" fill-rule="evenodd"/>
<path d="M11918.965 2666.027 11897.094 2781.309 11915.523 2784.805C11924.215 2738.973 11965.441 2684.777 12042.559 2684.777H12126.246L11893.734 3009.02H12197.699L12219.57 2893.738 12201.145 2890.246C12192.461 2936.031 12151.305 2989.984 12074.348 2990.27H11978.781L12211.293 2666.027ZM11918.965 2666.027" fill-rule="evenodd"/>
<path d="M213.68 2666.027C7.984 2666.027-9.879 3009.02 189.957 3009.02 207.672 3009.02 263.934 3004.496 293.684 2952.961 297.082 2947.074 300.113 2940.973 302.816 2934.754V2953.602C302.816 2980.82 313.531 3009.02 341.969 3009.02H404.066V2990.266C383.734 2978.117 370.316 2946.074 370.316 2897.777V2666.027H336.566C300.605 2690.41 282.172 2666.027 213.68 2666.027ZM227.488 2684.777C307.742 2687.031 303.941 2802.77 302.816 2816.473V2858.574C300.68 2884.629 292.73 2918.359 277.562 2944.641 262.422 2970.871 235.492 2989.371 202.938 2990.27 72.586 2990.18 97.328 2684.844 227.488 2684.777ZM227.488 2684.777" fill-rule="evenodd"/>
<path d="M3517.016 1517.484C3517.016 1550.16 3484.465 1551.73 3465.281 1540.219 3435.922 1522.605 3399.699 1517.488 3363.191 1517.488 3230.641 1517.488 3123.188 1624.945 3123.188 1757.504 3123.188 1890.059 3230.641 1997.52 3363.191 1997.52 3403.457 1997.52 3442.008 1988.695 3474.734 1970.078 3494.984 1958.559 3517.016 1971.191 3517.016 1997.52H3535.762V1835.008H3535.711C3535.742 1834.922 3535.762 1834.879 3535.762 1834.879 3535.73 1786.582 3549.18 1754.539 3569.512 1742.387V1723.637H3434.512V1742.391C3454.844 1754.539 3468.238 1786.586 3468.262 1834.883V1943.879C3423.543 1978.633 3364.086 1978.766 3363.191 1978.766 3267.922 1978.766 3190.688 1911.727 3190.688 1757.504 3190.688 1603.277 3267.922 1536.238 3363.191 1536.238 3453.133 1533.57 3517.016 1608.074 3517.016 1678.98H3535.762V1517.484ZM3517.016 1517.484" fill-rule="evenodd"/>
<path d="M769.598 146.371C637.047 146.371 529.59 253.828 529.59 386.387 529.59 493.664 599.973 584.508 697.078 615.25 672.332 650.762 641.594 675.414 607.125 684.648L611.973 702.762C696.133 680.211 815.988 689.945 922.469 740.141L953.961 679.199C880.445 647.621 785.566 633.723 670.961 671.359 687.77 657.543 702.922 640.328 716.16 620.43 733.344 624.336 751.23 626.402 769.598 626.402 902.148 626.402 1009.602 518.941 1009.602 386.387 1009.602 253.828 902.148 146.371 769.598 146.371ZM769.598 165.121C864.867 165.121 942.102 234.102 942.102 386.387 942.102 538.672 864.867 607.648 769.598 607.648 754.895 607.648 740.625 606.051 727.004 602.785 729.391 598.574 731.703 594.27 733.934 589.871 762.75 533.086 778.973 461.387 778.973 386.383 778.973 307.465 719.363 272.363 665.574 284.363 640.441 289.969 616.855 305.891 600.77 331.363 617.176 216.086 686.531 165.121 769.598 165.121ZM685.434 300.824C722.578 300.348 760.219 326.898 760.219 386.383 760.219 458.668 744.422 527.77 717.211 581.391 714.453 586.824 711.578 592.098 708.598 597.199 650.078 575.465 606.742 519.098 598.512 421.316 594.219 348.703 631.117 311.266 669.66 302.668 674.832 301.512 680.129 300.895 685.434 300.824ZM685.434 300.824" fill-rule="evenodd"/>
<path d="M1965.934 263.211C1874.688 263.211 1837.066 305.266 1837.066 358.203 1837.066 376.555 1842.875 390.773 1852.5 402.219 1828.625 434.469 1806.07 469.801 1779.758 500.715 1670.629 628.934 1522.359 616.48 1511.316 453.84H1779.148V435.094C1779.148 397.617 1768.176 263.594 1611.172 263.594 1518.402 263.594 1443.09 315.18 1443.199 435.09 1443.367 618.211 1649.566 671.195 1794.035 512.867 1822.004 482.219 1843.621 446.328 1866.438 415.227 1921.547 456.586 2034.953 454.816 2034.953 526.867 2034.953 571.418 2000.719 587.34 1961.652 587.453 1909.75 587.598 1854.148 556.16 1854.148 491.07H1835.398V606.59H1854.148C1854.379 566.297 1871.176 585.879 1907.039 598.605 1920.277 603.305 1941.43 606.598 1964.84 606.297 2022.68 605.547 2094.289 582.828 2094.289 505.031 2094.289 424.551 2019.32 405.254 1953.965 387.5 1933.566 381.82 1919 373.527 1909.5 364.051 1909.633 363.922 1909.77 363.789 1909.906 363.66 1942.164 332.734 1983.047 320.641 2014.551 324.578 2050.98 329.133 2067.328 352.461 2067.328 378.738H2086.078V263.219H2067.332C2051.832 290.066 2020.355 263.219 1965.941 263.219ZM1965.105 281.965C1995.086 281.965 2023.328 292.543 2042.496 312.688 2034.559 309.332 2025.918 307.102 2016.879 305.973 2012.125 305.379 2007.25 305.082 2002.289 305.082 1968.191 305.109 1929.992 319.262 1898.672 348.48 1885.27 317.258 1914.488 281.965 1965.105 281.965ZM1611.168 282.344C1666.656 282.344 1711.641 332.719 1711.641 435.09L1510.688 435.094V435.09C1510.688 332.719 1555.668 282.348 1611.16 282.344ZM1611.168 282.344" fill-rule="evenodd"/>
<path d="M2142.328 263.211V281.965C2167.539 294.484 2194.023 323.109 2213.312 374.516L2300.117 605.867C2283.812 647.188 2265.867 686.277 2234.969 720.844 2147.25 694.055 2026.262 676.711 1988.371 679.715 1934.309 683.996 1872.102 706.281 1871.09 769.68 1870.258 821.836 1934.094 832.25 1984.383 832.25 2054.301 832.25 2130 815.16 2191.551 778.352 2196.695 779.832 2201.832 781.344 2206.961 782.883 2151.395 824.633 2110.32 878.879 2095.309 940.699L2162.008 955.066C2162.008 893.359 2180.082 823.922 2229.133 789.703 2302.48 814.27 2374.969 834.375 2449.852 851.215 2642.488 894.531 2656.449 806.785 2656.535 781.051 2656.875 682.48 2432.004 669.258 2284.523 736.582 2283.371 736.207 2282.215 735.832 2281.062 735.457 2272.449 732.656 2263.789 729.863 2255.066 727.098 2280.043 700 2295.801 667.492 2309.375 633.82 2313.008 624.797 2337.668 560.18 2337.668 560.18L2407.398 374.562C2426.715 323.137 2453.18 294.488 2478.402 281.965V263.211L2400.02 263.215V281.965C2420.371 294.129 2403.066 332.777 2387.363 374.578L2336.398 510.23 2285.441 374.578H2285.438C2277.363 350.633 2250.023 300.039 2272.781 281.969V263.215ZM2492.633 715.164C2574.363 717.289 2621.668 744.695 2619.527 766.039 2614.473 816.434 2481.863 791.363 2458.551 786.559 2406.805 775.891 2359.387 760.969 2311.59 745.414 2382.168 721.715 2443.598 713.891 2492.633 715.164ZM2003.395 746.617C2044.441 747.973 2099.781 754.051 2165.469 771.191 2110.457 799.77 2045.363 813.5 1984.379 813.5 1958.168 813.5 1938.488 810.574 1924.039 806.273 1886.59 795.121 1886.09 758.789 1927.074 750.375 1935.59 748.629 1962.344 745.262 2003.395 746.617ZM2003.395 746.617" fill-rule="evenodd"/>
<path d="M2630.723 263.211C2425.027 263.211 2407.164 606.207 2606.996 606.207 2624.715 606.207 2680.977 601.684 2710.723 550.148 2714.121 544.262 2717.156 538.156 2719.855 531.938V550.789C2719.855 578.008 2730.574 606.207 2759.008 606.207H2821.109V587.453C2800.777 575.301 2787.359 543.258 2787.359 494.961V263.211H2753.609C2717.648 287.598 2699.215 263.211 2630.723 263.211ZM2644.531 281.961C2724.781 284.219 2720.98 399.957 2719.855 413.66V455.762C2717.723 481.816 2709.773 515.547 2694.602 541.824 2679.461 568.055 2652.535 586.555 2619.98 587.453 2489.629 587.367 2514.371 282.031 2644.531 281.961ZM2644.531 281.961" fill-rule="evenodd"/>
<path d="M289.816 3599.684C157.266 3599.684 49.809 3707.141 49.809 3839.699 49.809 3972.254 157.266 4079.715 289.816 4079.715 422.367 4079.715 529.82 3972.254 529.82 3839.699 529.82 3707.141 422.367 3599.684 289.816 3599.684ZM289.816 3618.434C385.086 3618.434 462.32 3687.414 462.32 3839.699 462.32 3991.984 385.086 4060.961 289.816 4060.961 194.543 4060.961 117.312 3993.922 117.312 3839.699 117.312 3685.473 194.543 3618.434 289.816 3618.434ZM289.816 3618.434" fill-rule="evenodd"/>
<path d="M660.301 3599.684 559.051 3599.688V3618.438C579.383 3630.59 592.777 3662.633 592.797 3710.93V3968.457C592.77 4016.754 579.383 4048.797 559.051 4060.949V4079.699L694.051 4079.703V4060.949C673.719 4048.797 660.297 4016.754 660.297 3968.457ZM660.301 3599.684" fill-rule="evenodd"/>
<path d="M943.145 3599.684C869.855 3599.684 826.566 3639.953 800.086 3599.684H781.332V3761.172H800.086C800.086 3673.738 870.512 3618.422 943.145 3618.422 1000.062 3618.422 1041.812 3651.297 1041.812 3709.652 1041.812 3740.328 1022.266 3774.473 948.793 3805.82 871.637 3838.738 770.27 3884.234 770.27 4012.277V4079.691H1088.285L1121.875 3915.656 1103.449 3912.164C1094.766 3957.945 1053.613 4011.902 976.652 4012.188H789.055C789.055 3924.332 887.301 3894.957 972.348 3861.922 1072.738 3822.922 1114.465 3772.195 1114.465 3725.711 1114.465 3641.703 1037.445 3599.672 943.145 3599.672ZM943.145 3599.684" fill-rule="evenodd"/>
<path d="M1413.82 3599.684C1340.535 3599.684 1297.242 3639.953 1270.762 3599.684H1252.012V3761.172H1270.762C1270.762 3673.738 1341.191 3618.422 1413.82 3618.422 1516.289 3618.422 1540.934 3807.57 1425.066 3805.82V3824.574C1425.598 3824.574 1426.129 3824.57 1426.66 3824.574V3824.602C1484.715 3823.727 1547.68 3860.586 1547.68 3941.332 1547.68 4026.398 1464.945 4060.969 1413.82 4060.969 1341.191 4060.969 1270.762 4005.656 1270.762 3918.219H1252.012V4079.707H1270.762C1297.242 4039.438 1340.535 4079.707 1413.82 4079.707 1536.719 4079.707 1615.18 4029.637 1615.18 3932.363 1615.18 3873.727 1584.238 3828.297 1501.238 3812.18 1548.305 3794 1569.203 3758.027 1569.203 3719.211 1569.203 3661.031 1536.719 3599.676 1413.82 3599.676ZM1413.82 3599.684" fill-rule="evenodd"/>
<path d="M1916.949 3599.684 1683.812 3905.645 1691.27 3920.703H1911.859V3968.457C1911.828 4016.754 1898.441 4048.797 1878.109 4060.949V4079.703H2013.109V4060.949C1992.777 4048.797 1979.359 4016.754 1979.359 3968.457V3920.703H2013.109V3901.953H1979.359V3599.684ZM1911.859 3637.305V3901.953H1710.203ZM1911.859 3637.305" fill-rule="evenodd"/>
<path d="M2208.637 3599.684 2186.871 3804.844 2205.516 3806.82C2232.137 3773.32 2401.102 3754.348 2408.262 3911.75 2411.551 3984.055 2388.41 4060.949 2305.297 4060.949 2257.219 4060.949 2217.027 4023.137 2207.148 3946.453H2186.07V4079.703H2204.82C2210.879 4069.602 2218.609 4063.492 2230.043 4063.492 2254.027 4063.492 2252.293 4079.703 2305.297 4079.703 2445.68 4079.699 2477.668 3994.414 2476.133 3912.895 2473.168 3755.375 2278.09 3747.375 2208.223 3781.332L2220.336 3667.105C2286.422 3667.352 2267.75 3667.078 2335.777 3667.184 2400.355 3667.184 2431.621 3694.418 2440.305 3740.199L2458.73 3736.707 2447.41 3599.68ZM2208.637 3599.684" fill-rule="evenodd"/>
<path d="M2876.016 3599.684C2705.191 3599.684 2587.406 3715.926 2587.406 3908.203 2587.406 4028.117 2662.613 4079.699 2755.383 4079.703 2848.152 4079.703 2923.359 4027.828 2923.359 3908.203 2923.359 3788.582 2848.152 3736.707 2755.383 3736.707 2729.531 3736.707 2705.047 3740.715 2683.172 3749.086 2714.762 3673.215 2775.188 3618.43 2876.016 3618.43ZM2755.383 3755.457C2810.871 3755.457 2855.855 3805.828 2855.855 3908.203 2855.855 4010.578 2810.871 4060.949 2755.383 4060.949 2699.891 4060.949 2654.91 4010.578 2654.91 3908.203 2654.91 3805.832 2699.891 3755.457 2755.383 3755.457ZM2755.383 3755.457" fill-rule="evenodd"/>
<path d="M3915.613 4079.703C4086.438 4079.703 4204.219 3963.457 4204.219 3771.18 4204.219 3651.27 4129.016 3599.684 4036.246 3599.684 3943.477 3599.684 3868.27 3651.559 3868.27 3771.18 3868.27 3890.801 3943.477 3942.676 4036.246 3942.676 4062.094 3942.676 4086.578 3938.672 4108.453 3930.297 4076.863 4006.168 4016.438 4060.953 3915.613 4060.953ZM4036.246 3923.926C3980.754 3923.926 3935.77 3873.555 3935.77 3771.18 3935.77 3668.805 3980.754 3618.434 4036.246 3618.434 4091.734 3618.434 4136.719 3668.805 4136.719 3771.18 4136.719 3873.555 4091.734 3923.926 4036.246 3923.926ZM4036.246 3923.926" fill-rule="evenodd"/>
<path d="M3225.625 4079.703C3225.625 3805.832 3372.863 3775.359 3372.863 3636.625V3599.684H3102.91L3069.324 3763.715 3087.75 3767.211C3096.434 3721.426 3137.586 3667.473 3214.547 3667.184H3349.688C3349.688 3736.707 3152.969 3831.699 3152.969 4079.703ZM3225.625 4079.703" fill-rule="evenodd"/>
<path d="M3614.277 3599.684C3512.66 3599.684 3465.383 3655.898 3465.383 3712.133 3465.383 3739.625 3470.695 3783.793 3536.27 3819.062 3391.902 3873.797 3413.035 4079.699 3614.277 4079.703 3730.992 4079.703 3786.59 4008.098 3783.945 3938.113 3783.945 3874.023 3735.316 3823.32 3689.715 3809.559 3735.988 3789.105 3763.094 3750.617 3763.094 3712.133 3763.094 3655.906 3715.895 3599.684 3614.277 3599.684ZM3614.277 3618.434C3671.82 3618.434 3695.207 3667.598 3693.512 3715.562 3692.387 3747.438 3681.773 3778.785 3656.254 3794.82 3635.551 3785.992 3608.855 3780.016 3585.785 3770.703 3492.711 3733.125 3536.078 3618.434 3614.277 3618.434ZM3570.113 3834.578C3596.645 3845.691 3629.125 3854.387 3656.848 3868.086 3760.504 3919.301 3724.258 4065.469 3614.277 4060.949 3495.52 4060.949 3480.797 3879.551 3570.113 3834.578ZM3570.113 3834.578" fill-rule="evenodd"/>
<path d="M94.746 4931.527C85.836 4931.527 77.289 4935.066 70.988 4941.367 64.688 4947.672 61.145 4956.219 61.145 4965.129 61.145 4983.688 76.188 4998.73 94.746 4998.73 113.305 4998.73 128.348 4983.688 128.348 4965.129 128.348 4956.219 124.809 4947.672 118.504 4941.367 112.203 4935.066 103.656 4931.527 94.746 4931.527ZM94.746 4931.527"/>
<path d="M61.145 4518.699 85.371 4915.527H104.121L128.348 4518.699ZM61.145 4518.699"/>
<path d="M301.152 4518.699C282.594 4518.699 267.551 4533.746 267.551 4552.305 267.551 4570.859 282.594 4585.906 301.152 4585.906 302.043 4585.906 302.938 4585.871 303.828 4585.801 297.633 4593.012 290.23 4597.684 285.758 4599.922L294.145 4616.695C300.68 4613.43 310.547 4607.207 319.113 4596.75 327.68 4586.293 334.75 4571.359 334.75 4552.305 334.75 4543.395 331.211 4534.848 324.91 4528.543 318.609 4522.242 310.062 4518.703 301.152 4518.703ZM400.352 4518.699C381.797 4518.699 366.754 4533.746 366.754 4552.305 366.754 4570.859 381.797 4585.906 400.352 4585.906 401.246 4585.906 402.141 4585.871 403.027 4585.801 396.836 4593.012 389.43 4597.684 384.957 4599.922L393.348 4616.695C399.883 4613.43 409.746 4607.207 418.316 4596.75 426.883 4586.293 433.953 4571.359 433.953 4552.305 433.953 4533.746 418.91 4518.703 400.352 4518.703ZM400.352 4518.699"/>
<path d="M630.555 4518.699 601.941 4653.332H510.422V4672.086H597.953L561.129 4845.348H469.609V4864.098H557.141L528.527 4998.73H595.727L624.344 4864.098H749.145L720.531 4998.73H787.73L816.348 4864.098H907.863V4845.348H820.332L857.16 4672.086H948.676V4653.332H861.145L889.762 4518.699H822.559L793.945 4653.332H669.141L697.758 4518.699ZM665.156 4672.086H789.957L753.133 4845.348H628.328ZM665.156 4672.086"/>
<path d="M1243.781 4461.82V4519.059C1132.637 4524.051 1086.445 4580.84 1086.445 4651.492 1086.445 4735.438 1170.18 4757.555 1243.781 4784.211V4978.348C1176.473 4973.773 1102.953 4923.723 1102.953 4837.238H1084.199V4998.73H1102.953C1103.266 4942.402 1132.387 4969.781 1180.688 4987.57 1195.688 4993.098 1218.23 4997.234 1243.781 4998.156V5055.609H1262.531V4998.238C1339.695 4996.168 1432.887 4963.66 1432.887 4856.758 1432.887 4752.129 1345.559 4721.469 1262.531 4697.723V4537.477C1334.262 4538.734 1403.07 4593.777 1403.07 4680.203H1421.824V4518.715H1403.07C1376.895 4558.52 1334.293 4519.629 1262.531 4518.715V4461.809H1253.156ZM1243.781 4538.488V4692.418C1125.91 4658.289 1153.848 4550.219 1243.781 4538.488ZM1262.531 4791.25C1312.188 4810.746 1352.969 4835.234 1352.969 4887.281 1352.969 4946.27 1311.609 4975.379 1262.531 4978.422ZM1262.531 4791.25"/>
<path d="M1677.164 4518.699C1610.891 4518.699 1557.16 4572.43 1557.16 4638.707 1557.16 4704.988 1610.891 4758.715 1677.164 4758.715 1708.992 4758.715 1739.516 4746.07 1762.02 4723.566 1784.523 4701.062 1797.168 4670.535 1797.168 4638.707 1797.168 4606.879 1784.523 4576.355 1762.02 4553.852 1739.516 4531.344 1708.992 4518.699 1677.164 4518.699ZM1926.359 4518.699 1649.223 4998.73H1667.977L1945.109 4518.699ZM1677.164 4537.453C1706.324 4537.453 1729.965 4582.785 1729.965 4638.707 1729.965 4665.562 1724.402 4691.316 1714.5 4710.305 1704.598 4729.297 1691.168 4739.965 1677.164 4739.965 1663.16 4739.965 1649.73 4729.297 1639.828 4710.305 1629.926 4691.316 1624.363 4665.562 1624.363 4638.707 1624.363 4582.789 1648.004 4537.453 1677.164 4537.453ZM1917.168 4758.715C1885.344 4758.715 1854.82 4771.359 1832.316 4793.867 1809.809 4816.371 1797.168 4846.895 1797.168 4878.723 1797.168 4945 1850.895 4998.73 1917.168 4998.73 1983.445 4998.73 2037.172 4945 2037.172 4878.723 2037.172 4846.895 2024.527 4816.371 2002.023 4793.867 1979.52 4771.359 1948.996 4758.715 1917.168 4758.715ZM1917.168 4777.469C1931.172 4777.469 1944.602 4788.137 1954.504 4807.125 1964.406 4826.113 1969.969 4851.871 1969.969 4878.723 1969.973 4905.578 1964.406 4931.332 1954.504 4950.32 1944.602 4969.312 1931.172 4979.98 1917.168 4979.977 1903.164 4979.98 1889.734 4969.312 1879.832 4950.32 1869.93 4931.332 1864.367 4905.578 1864.367 4878.723 1864.367 4851.871 1869.93 4826.113 1879.832 4807.125 1889.734 4788.137 1903.164 4777.469 1917.168 4777.469ZM1917.168 4777.469"/>
<path d="M2626.16 4518.699C2607.602 4518.699 2592.559 4533.746 2592.559 4552.305 2592.559 4570.859 2607.602 4585.906 2626.16 4585.906 2627.051 4585.906 2627.945 4585.871 2628.836 4585.801 2622.641 4593.012 2615.238 4597.684 2610.766 4599.922L2619.152 4616.695C2625.688 4613.43 2635.555 4607.207 2644.121 4596.75 2652.691 4586.293 2659.762 4571.359 2659.762 4552.305 2659.762 4543.395 2656.219 4534.848 2649.918 4528.543 2643.617 4522.242 2635.07 4518.703 2626.16 4518.703ZM2626.16 4518.699"/>
<path d="M2337.664 4518.703C2160.926 4518.703 2187.016 4641.574 2214.438 4689.074L2240.121 4733.375C2077.289 4771.73 2104.66 4998.73 2292.918 4998.73 2326.953 4998.73 2355.469 4988.801 2378.977 4972.867L2393.977 4998.73H2472.004L2427.801 4922.496C2456.797 4878.934 2469.645 4825.852 2469.645 4789.176H2450.891C2450.891 4827.191 2438.078 4868.219 2416.184 4902.457L2271.797 4653.43C2271.797 4653.426 2271.797 4653.43 2271.797 4653.43 2192.859 4503.195 2430.34 4493.059 2430.34 4653.695H2449.09V4518.723H2430.34C2398.285 4541.344 2373.535 4518.723 2337.664 4518.723ZM2256.434 4761.508 2368.215 4954.301C2346.09 4970.285 2320.559 4979.992 2292.918 4979.992 2200.129 4979.992 2165.621 4816.219 2256.434 4761.508ZM2256.434 4761.508" fill-rule="evenodd"/>
<path d="M3051.121 4461.82C3170.926 4461.824 3221.254 4591.781 3221.254 4758.715 3221.254 4925.652 3156.094 5055.609 3051.121 5055.609V5036.859C3128.266 5012.836 3153.754 4897.102 3153.754 4758.715 3153.754 4620.332 3128.266 4499.91 3051.121 4480.574ZM3051.121 4461.82" fill-rule="evenodd"/>
<path d="M3331.531 4518.711 3337.152 4577.113 3289.391 4543.043 3272.516 4572.27 3325.902 4596.602 3272.516 4620.93 3289.391 4650.16 3337.152 4616.094 3331.531 4674.488H3365.277L3359.656 4616.094 3407.418 4650.16 3424.293 4620.93 3370.91 4596.602 3424.293 4572.27 3407.418 4543.043 3359.656 4577.113 3365.277 4518.711ZM3331.531 4518.711" fill-rule="evenodd"/>
<path d="M2991.562 4461.82C2871.758 4461.824 2821.43 4591.781 2821.43 4758.715 2821.43 4925.652 2886.59 5055.609 2991.562 5055.609V5036.859C2914.418 5012.836 2888.93 4897.102 2888.93 4758.715 2888.93 4620.332 2914.418 4499.91 2991.562 4480.574ZM2991.562 4461.82" fill-rule="evenodd"/>
<path d="M3604.582 4674.488V4771.559H3507.516V4790.312H3604.582V4887.379H3623.332V4790.312H3720.395V4771.559H3623.332V4674.488ZM3604.582 4674.488" fill-rule="evenodd"/>
<path d="M3911.902 4771.559H4124.7814V4790.313H3911.902Z" fill-rule="evenodd"/>
<path d="M3826.887 4931.527C3817.973 4931.527 3809.43 4935.066 3803.125 4941.367 3796.824 4947.672 3793.285 4956.219 3793.285 4965.129 3793.285 4983.688 3808.328 4998.73 3826.887 4998.73 3827.777 4998.73 3828.672 4998.695 3829.562 4998.625 3823.367 5005.836 3815.965 5010.512 3811.492 5012.746L3819.879 5029.523C3826.414 5026.254 3836.281 5020.035 3844.848 5009.578 3853.418 4999.121 3860.488 4984.188 3860.488 4965.133 3860.488 4956.219 3856.945 4947.672 3850.645 4941.371 3844.344 4935.07 3835.797 4931.527 3826.887 4931.531ZM3826.887 4931.527"/>
<path d="M4263.43 4931.527C4254.52 4931.527 4245.973 4935.066 4239.672 4941.367 4233.371 4947.672 4229.828 4956.219 4229.828 4965.129 4229.828 4983.688 4244.875 4998.73 4263.43 4998.73 4281.988 4998.73 4297.031 4983.688 4297.031 4965.129 4297.031 4956.219 4293.492 4947.672 4287.188 4941.367 4280.887 4935.066 4272.34 4931.527 4263.43 4931.527ZM4263.43 4931.527"/>
<path d="M4832.672 4518.699 4555.535 4998.73H4574.289L4851.422 4518.699ZM4832.672 4518.699"/>
<path d="M4949.559 4931.527C4940.648 4931.527 4932.102 4935.066 4925.801 4941.367 4919.5 4947.672 4915.957 4956.219 4915.957 4965.129 4915.957 4983.688 4931.004 4998.73 4949.559 4998.73 4968.117 4998.73 4983.16 4983.688 4983.16 4965.129 4983.16 4956.219 4979.621 4947.672 4973.32 4941.367 4967.016 4935.066 4958.473 4931.527 4949.559 4931.527ZM4949.559 4931.527"/>
<path d="M4949.559 4747.332C4931.004 4747.332 4915.957 4762.379 4915.957 4780.938 4915.957 4789.848 4919.5 4798.395 4925.801 4804.695 4932.102 4810.996 4940.648 4814.539 4949.559 4814.539 4958.473 4814.539 4967.016 4810.996 4973.32 4804.695 4979.621 4798.395 4983.16 4789.848 4983.16 4780.938 4983.16 4762.379 4968.117 4747.332 4949.559 4747.332ZM4949.559 4747.332"/>
<path d="M5141.75 4747.332C5123.195 4747.332 5108.152 4762.379 5108.152 4780.938 5108.152 4789.848 5111.691 4798.395 5117.992 4804.695 5124.293 4810.996 5132.84 4814.539 5141.75 4814.539 5150.664 4814.539 5159.211 4810.996 5165.512 4804.695 5171.812 4798.395 5175.352 4789.848 5175.352 4780.938 5175.352 4762.379 5160.309 4747.332 5141.75 4747.332ZM5141.75 4747.332"/>
<path d="M5141.75 4931.527C5132.84 4931.527 5124.293 4935.066 5117.992 4941.367 5111.691 4947.672 5108.148 4956.219 5108.148 4965.129 5108.148 4983.688 5123.195 4998.73 5141.75 4998.73 5142.645 4998.73 5143.535 4998.695 5144.426 4998.625 5138.23 5005.836 5130.828 5010.512 5126.355 5012.746L5134.746 5029.523C5141.281 5026.254 5151.148 5020.035 5159.715 5009.578 5168.281 4999.121 5175.352 4984.188 5175.352 4965.133 5175.352 4956.219 5171.812 4947.672 5165.512 4941.371 5159.207 4935.07 5150.664 4931.527 5141.75 4931.531ZM5141.75 4931.527"/>
<path d="M5610.59 4647.371 5362.973 4772.566V4789.305L5610.59 4914.504 5619.047 4897.77 5387.984 4780.938 5619.047 4664.102ZM5610.59 4647.371" fill-rule="evenodd"/>
<path d="M5944.863 4647.371 6192.48 4772.566V4789.305L5944.863 4914.504 5936.402 4897.77 6167.469 4780.938 5936.402 4664.102ZM5944.863 4647.371" fill-rule="evenodd"/>
<path d="M5676.648 4723.027V4741.777H5889.527V4723.027ZM5676.648 4820.094V4838.848H5889.527V4820.094ZM5676.648 4820.094" fill-rule="evenodd"/>
<path d="M6396.59 4518.703C6323.301 4518.703 6280.012 4558.973 6253.531 4518.703H6234.777V4680.191H6253.531C6253.531 4592.754 6323.957 4537.441 6396.59 4537.441 6453.508 4537.441 6495.258 4570.312 6495.258 4628.668 6495.258 4751.07 6354.645 4710.164 6354.645 4915.516H6373.426C6373.426 4763.516 6567.91 4797.602 6567.91 4644.73 6567.91 4560.723 6490.891 4518.691 6396.59 4518.691ZM6396.59 4518.703" fill-rule="evenodd"/>
<path d="M6365.098 4931.527C6346.543 4931.527 6331.5 4946.57 6331.5 4965.129 6331.5 4983.688 6346.543 4998.73 6365.098 4998.73 6383.656 4998.73 6398.699 4983.688 6398.699 4965.129 6398.699 4946.57 6383.656 4931.527 6365.098 4931.527ZM6365.098 4931.527"/>
<path d="M6893.746 4547.449C6739.34 4547.449 6613.973 4672.824 6613.973 4827.234 6613.973 4981.645 6739.34 5107.023 6893.746 5107.023 6924.203 5107.023 6953.562 5102.148 6981.039 5093.133L6975.191 5075.316C6949.574 5083.723 6922.207 5088.27 6893.746 5088.27 6749.473 5088.27 6632.727 4971.512 6632.727 4827.234 6632.727 4682.957 6749.473 4566.199 6893.746 4566.199 6966.297 4566.199 7026.121 4590.559 7068.195 4635.012 7153.047 4724.668 7141.871 4874.07 7116.789 4930.285 7086.984 4997.098 7015.219 5009.633 7015.219 4887.488V4655.738H6981.469C6945.508 4680.121 6927.074 4655.738 6858.582 4655.738 6652.887 4655.738 6635.023 4998.734 6834.855 4998.734 6852.57 4998.734 6908.836 4994.207 6938.582 4942.676 6941.98 4936.785 6945.016 4930.684 6947.719 4924.465V4943.316C6947.719 4970.535 6958.434 4998.734 6986.871 4998.734H7048.969C7091.09 4998.73 7118.777 4971.855 7133.914 4937.93 7162.375 4874.133 7171.715 4717.117 7081.816 4622.129 7035.965 4573.684 6970.531 4547.453 6893.746 4547.453ZM6872.391 4674.488C6952.645 4676.742 6948.84 4792.484 6947.719 4806.188V4848.289C6945.582 4874.34 6937.633 4908.074 6922.465 4934.352 6907.32 4960.582 6880.395 4979.082 6847.84 4979.98 6717.488 4979.895 6742.23 4674.555 6872.391 4674.488ZM6872.391 4674.488" fill-rule="evenodd"/>
<path d="M7368.449 4461.82V4480.574H7322.145V5036.855H7368.449V5055.609H7254.641V4461.82ZM7368.449 4461.82" fill-rule="evenodd"/>
<path d="M7878.094 4461.82V4480.574H7924.402V5036.855H7878.094V5055.609H7991.902V4461.82ZM7878.094 4461.82" fill-rule="evenodd"/>
<path d="M7489.977 4518.699 7767.109 4998.73H7748.359L7471.223 4518.699ZM7489.977 4518.699"/>
<path d="M8251.297 4998.73H8464.18V5017.484H8251.297Z" fill-rule="evenodd"/>
<path d="M12236.184 4771.559H12449.0629V4790.313H12236.184Z" fill-rule="evenodd"/>
<path d="M8110.297 4518.711 8029.086 4655.734 8045.219 4665.297 8118.363 4541.879 8191.504 4665.297 8207.641 4655.734 8126.43 4518.711ZM8110.297 4518.711" fill-rule="evenodd"/>
<path d="M8502.871 4518.711 8578.805 4618.117 8596.184 4612.281 8577.426 4518.711ZM8502.871 4518.711" fill-rule="evenodd"/>
<path d="M8922.18 4461.82C8880.414 4461.82 8865.277 4493.672 8865.277 4535.699V4706.293C8865.277 4732.625 8848.809 4749.34 8818.969 4749.34V4768.094C8848.809 4768.094 8865.277 4784.805 8865.277 4811.141V4981.734C8865.277 5023.758 8880.414 5055.609 8922.18 5055.609H8979.086V5036.855C8947.523 5036.855 8932.777 5025.477 8932.777 4993.809V4801.766C8932.777 4783.09 8924.398 4767.855 8910.297 4758.715 8924.398 4749.578 8932.777 4734.344 8932.777 4715.668V4523.621C8932.777 4491.957 8947.523 4480.574 8979.086 4480.574V4461.82ZM8922.18 4461.82" fill-rule="evenodd"/>
<path d="M9213.965 4461.82C9255.734 4461.82 9270.871 4493.672 9270.871 4535.699V4706.293C9270.871 4732.625 9287.336 4749.34 9317.176 4749.34V4768.094C9287.336 4768.094 9270.871 4784.805 9270.871 4811.141V4981.734C9270.871 5023.758 9255.734 5055.609 9213.965 5055.609H9157.062V5036.855C9188.621 5036.855 9203.367 5025.477 9203.367 4993.809V4801.766C9203.367 4783.09 9211.746 4767.855 9225.848 4758.715 9211.746 4749.578 9203.367 4734.344 9203.367 4715.668V4523.621C9203.367 4491.957 9188.621 4480.574 9157.062 4480.574V4461.82ZM9213.965 4461.82" fill-rule="evenodd"/>
<path d="M9054.145 4518.711H9072.895V4998.734H9054.145Z" fill-rule="evenodd"/>
<path d="M9771.383 4518.715V4537.465C9804.359 4544.758 9834.684 4573.031 9870.52 4630.066L9957.469 4768.441V4774.406H9892.426V4793.156H9957.469V4824.234H9892.426V4842.988H9957.469V4887.488C9957.438 4935.785 9944.051 4967.828 9923.715 4979.977V4998.73H10058.719V4979.98C10038.387 4967.828 10024.969 4935.785 10024.969 4887.488V4842.988H10105.305V4824.234H10024.969V4793.156H10105.305V4774.406H10024.969V4722.633L10083.203 4629.949C10119.008 4572.992 10149.312 4544.75 10182.266 4537.465V4518.715H10073.637V4537.469C10093.957 4549.609 10083.664 4593.887 10061.082 4629.91L10060.988 4630.062 10005.613 4718.195 9949.879 4629.492C9927.484 4593.543 9917.348 4549.562 9937.59 4537.469V4518.715ZM9771.383 4518.715" fill-rule="evenodd"/>
<path d="M9629.355 4587.227V4658.176C9552.762 4669.656 9495.133 4722.266 9495.133 4827.234 9495.133 4932.207 9552.762 4984.816 9629.355 4996.297V5067.246H9648.109V4998.27C9653.047 4998.578 9658.051 4998.734 9663.105 4998.734 9716.109 4998.734 9714.375 4982.52 9738.359 4982.52 9749.793 4982.52 9757.523 4988.633 9763.582 4998.734H9782.332V4865.484H9761.254C9751.375 4942.168 9711.184 4979.98 9663.105 4979.98 9658.008 4979.98 9653 4979.559 9648.109 4978.707V4675.766C9653 4674.914 9658.008 4674.488 9663.105 4674.488 9711.184 4674.488 9751.371 4712.301 9761.254 4788.984H9782.332V4655.738H9763.582C9758.492 4665.008 9750.973 4669.637 9735.422 4669.637 9713.27 4669.637 9708.934 4655.738 9663.105 4655.738 9658.051 4655.738 9653.047 4655.891 9648.109 4656.199V4587.227ZM9629.355 4681.387V4973.086C9590.469 4956.117 9562.633 4907.766 9562.633 4827.234 9562.633 4746.707 9590.469 4698.352 9629.355 4681.387ZM9629.355 4681.387" fill-rule="evenodd"/>
<path d="M10316.883 4518.711C10298.328 4518.711 10283.285 4533.754 10283.285 4552.312 10283.285 4561.227 10286.824 4569.773 10293.125 4576.074 10299.426 4582.375 10307.973 4585.914 10316.883 4585.914 10325.797 4585.914 10334.344 4582.375 10340.645 4576.074 10346.945 4569.773 10350.484 4561.227 10350.484 4552.312 10350.484 4533.754 10335.441 4518.711 10316.883 4518.711ZM10316.883 4518.711"/>
<path d="M10409.695 4518.711C10391.137 4518.711 10376.094 4533.754 10376.094 4552.312 10376.094 4561.227 10379.633 4569.773 10385.934 4576.074 10392.238 4582.375 10400.781 4585.914 10409.695 4585.914 10418.605 4585.914 10427.152 4582.375 10433.453 4576.074 10439.754 4569.773 10443.297 4561.227 10443.297 4552.312 10443.297 4533.754 10428.25 4518.711 10409.695 4518.711ZM10409.695 4518.711"/>
<path d="M10586.266 4518.711 10510.332 4618.117 10492.953 4612.281 10511.711 4518.711ZM10586.266 4518.711" fill-rule="evenodd"/>
<path d="M10777.297 4518.711 10687.086 4655.734 10758.742 4655.738 10785.363 4541.883 10811.984 4655.738 10883.641 4655.734 10793.43 4518.711ZM10777.297 4518.711" fill-rule="evenodd"/>
<path d="M10996.062 4655.738 10905.852 4518.715 10977.508 4518.711 11004.129 4632.566 11030.754 4518.711 11102.406 4518.715 11012.195 4655.738ZM10996.062 4655.738" fill-rule="evenodd"/>
<path d="M11245.91 4518.711C11208.184 4518.711 11177.398 4549.496 11177.398 4587.223 11177.398 4624.953 11208.184 4655.734 11245.91 4655.734 11283.637 4655.734 11314.418 4624.953 11314.418 4587.223 11314.418 4549.496 11283.637 4518.711 11245.91 4518.711ZM11245.91 4537.465C11273.5 4537.465 11295.672 4559.629 11295.672 4587.223 11295.672 4614.816 11273.5 4636.988 11245.91 4636.988 11218.316 4636.988 11196.145 4614.816 11196.145 4587.223 11196.145 4559.629 11218.316 4537.465 11245.91 4537.465ZM11245.91 4537.465" fill-rule="evenodd"/>
<path d="M12068.535 4517.684V4518.699C12068.535 4551.375 12035.984 4552.941 12016.801 4541.434 11987.441 4523.816 11951.219 4518.699 11914.715 4518.699 11793.98 4518.699 11694.07 4607.852 11677.215 4723.914H11628.066V4742.668H11675.238C11674.887 4747.973 11674.707 4753.32 11674.707 4758.715 11674.707 4763.762 11674.863 4768.773 11675.172 4773.746H11628.066V4792.5H11677.066C11693.488 4909.059 11793.629 4998.73 11914.715 4998.73 11954.977 4998.73 11993.527 4989.91 12026.254 4971.293 12046.504 4959.77 12068.535 4972.402 12068.535 4998.73H12087.281V4836.223H12068.535C12068.535 4979.645 11916.148 4979.977 11914.715 4979.977 11826.711 4979.977 11754.098 4922.777 11743.531 4792.5H11840.945V4773.746H11742.461C11742.293 4768.832 11742.211 4763.82 11742.211 4758.715 11742.211 4753.258 11742.305 4747.906 11742.496 4742.668H11840.945V4723.914H11743.617C11754.477 4594.355 11826.941 4537.453 11914.711 4537.449 12004.656 4534.785 12068.535 4609.285 12068.535 4680.191H12087.281V4517.684ZM12068.535 4517.684" fill-rule="evenodd"/>
<path d="M11473.082 4518.711C11416.402 4517.605 11367.098 4545.891 11350.68 4588.402L11366.566 4594.848C11398.113 4544.641 11465.984 4582.082 11508.094 4593.574 11586.438 4623.418 11666.793 4592.027 11688.688 4535.344L11672.801 4528.902C11641.25 4579.105 11573.379 4541.664 11531.27 4530.172 11511.684 4522.711 11491.973 4519.078 11473.082 4518.711ZM11473.082 4518.711" fill-rule="evenodd"/>
<path d="M1099 259.984V606.586L1166.5 606.59V259.984ZM1099 259.984" fill-rule="evenodd"/>
<path d="M1319.445 126.574C1294.855 126.574 1274.922 146.508 1274.922 171.098 1274.922 195.688 1294.855 215.621 1319.445 215.621 1331.254 215.621 1342.578 210.93 1350.926 202.578 1359.277 194.23 1363.969 182.906 1363.969 171.098 1363.969 159.289 1359.277 147.961 1350.926 139.613 1342.578 131.262 1331.254 126.574 1319.445 126.574ZM1353.195 263.598H1251.945V282.352C1272.277 294.5 1285.672 326.543 1285.695 374.84V495.344C1285.668 543.641 1272.277 575.684 1251.945 587.836V606.59H1386.945V587.836C1366.613 575.688 1353.195 543.645 1353.195 495.348ZM1353.195 263.598" fill-rule="evenodd"/>
<path d="M1166.5 222.207V495.344C1166.527 543.641 1179.918 575.684 1200.25 587.836V606.586L1065.25 606.59V587.836C1085.582 575.684 1099 543.641 1099 495.344V222.934C1099 144.207 1082.238 47.352 1003.535 26.594 887.672-3.965 766.234 137.629 568.379 137.309 497.367 137.309 435.109 88.848 435.109 28.539 435.109 28.539 469.668 69.254 567.969 69.77 772.152 69.77 871.09-29.535 1010.039 8.805 1108.367 35.938 1164.207 124.012 1166.5 222.207ZM1166.5 222.207" fill-rule="evenodd"/>
<path d="M1756.184 5715.789C1731.988 5714.859 1707.34 5717.211 1681.289 5724.402 1582.961 5751.531 1527.121 5839.609 1524.828 5937.805V6042.906C1505.629 6004.598 1471.375 5979.191 1421.629 5979.191 1216.094 5979.191 1226.043 6322.184 1426.031 6322.184 1439.062 6322.184 1471.816 6319.738 1498.387 6297.93 1496.066 6300.07 1493.629 6301.906 1491.078 6303.43V6322.184H1626.082V6303.434H1626.078C1624.809 6302.672 1623.566 6301.836 1622.352 6300.922 1621.137 6300.008 1619.949 6299.016 1618.793 6297.949 1617.637 6296.883 1616.512 6295.738 1615.414 6294.523 1614.32 6293.305 1613.258 6292.012 1612.23 6290.645 1608.113 6285.18 1604.527 6278.523 1601.578 6270.738 1598.633 6262.957 1596.32 6254.043 1594.742 6244.059 1593.168 6234.07 1592.328 6223.016 1592.328 6210.941V6074.734L1592.332 5938.527C1592.332 5859.801 1609.09 5762.945 1687.797 5742.188 1803.656 5711.633 1925.094 5853.223 2122.949 5852.902 2193.961 5852.902 2256.223 5804.441 2256.223 5744.133 2256.223 5744.133 2221.66 5784.852 2123.359 5785.367 1957.465 5785.367 1861.039 5719.809 1756.184 5715.789ZM1436.977 5997.941C1517.012 6000.184 1524.754 6114.777 1524.828 6129.426 1524.828 6129.5 1524.828 6129.57 1524.828 6129.637V6171.738C1524.828 6171.895 1524.828 6172.055 1524.828 6172.211 1524.766 6198.199 1519.566 6231.684 1506.633 6257.801 1493.641 6284.035 1469.957 6302.531 1437.477 6303.434 1307 6303.344 1306.945 5998.008 1436.977 5997.941ZM1436.977 5997.941" fill-rule="evenodd"/>
<path d="M4210.859 5715.789C4106.004 5719.809 4009.582 5785.367 3843.684 5785.367 3745.383 5784.852 3710.824 5744.133 3710.824 5744.133 3710.824 5804.441 3773.082 5852.902 3844.094 5852.902 4041.949 5853.223 4163.387 5711.633 4279.25 5742.188 4357.953 5762.945 4374.715 5859.801 4374.715 5938.527V6210.613C4374.715 6210.723 4374.715 6210.832 4374.715 6210.941 4374.715 6217.383 4374.301 6226.91 4373.066 6237.211 4372.953 6238.164 4372.848 6239.133 4372.723 6240.066 4372.121 6244.492 4371.305 6249.062 4370.297 6253.66 4370.09 6254.598 4369.91 6255.578 4369.688 6256.488 4368.371 6261.973 4366.773 6267.457 4364.703 6272.691 4363.262 6276.273 4361.676 6279.598 4359.969 6282.668 4359.867 6282.852 4359.738 6283.012 4359.637 6283.195 4356.258 6289.141 4352.41 6294.133 4348.133 6298.051 4348.02 6298.156 4347.902 6298.25 4347.785 6298.348 4346.816 6299.219 4345.832 6300.047 4344.82 6300.812 4343.645 6301.699 4342.438 6302.539 4341.168 6303.309 4341.098 6303.348 4341.031 6303.391 4340.965 6303.43V6303.434 6322.184H4478.383V6303.43C4458.035 6291.27 4468.391 6246.875 4491.043 6210.82L4503.359 6191.215C4521.797 6220.602 4497.254 6181.438 4515.676 6210.828 4538.328 6246.879 4548.68 6291.273 4528.332 6303.434V6322.184H4694.539V6303.434C4661.562 6296.141 4631.238 6267.871 4595.402 6210.832L4543.219 6127.777 4566.688 6090.426C4602.492 6033.469 4632.801 6005.23 4665.754 5997.945V5979.191H4557.125V5997.945C4577.441 6010.09 4567.191 6054.391 4544.57 6090.391 4510.328 6140.898 4481.691 6196.988 4444.961 6245.684 4444.906 6245.352 4444.781 6244.207 4444.711 6243.77 4443.234 6234.34 4442.312 6224.086 4442.223 6212.797 4442.223 6212.184 4442.223 6211.562 4442.223 6210.941V5937.809C4439.93 5839.613 4384.09 5751.535 4285.766 5724.402 4259.711 5717.215 4235.066 5714.863 4210.867 5715.793ZM4210.859 5715.789" fill-rule="evenodd"/>
<path d="M500.035 5715.789C395.18 5719.809 298.758 5785.367 132.859 5785.367 34.559 5784.852 0 5744.133 0 5744.133 0 5804.441 62.258 5852.902 133.27 5852.902 331.125 5853.223 452.562 5711.633 568.422 5742.188 647.129 5762.945 663.891 5859.801 663.891 5938.527V5953.285C663.891 5953.328 663.891 5953.367 663.891 5953.41V6322.184H682.715C689.508 6309.414 705.117 6302.285 720.523 6302.285 754.484 6302.285 755.105 6322.184 830.188 6322.184 1030.18 6322.184 1040.129 5979.188 834.59 5979.188 784.844 5979.188 750.594 6004.598 731.391 6042.906V5937.805C729.098 5839.609 673.258 5751.531 574.93 5724.398 548.879 5717.211 524.23 5714.859 500.035 5715.789ZM819.242 5997.941C949.277 5998.008 949.223 6303.348 818.742 6303.434 786.262 6302.535 762.578 6284.035 749.59 6257.805 736.574 6231.523 731.391 6197.793 731.391 6171.738V6129.641C731.391 6115.934 738.805 6000.195 819.242 5997.941ZM819.242 5997.941" fill-rule="evenodd"/>
<path d="M3038.324 5715.789C2933.469 5719.809 2837.047 5785.367 2671.148 5785.367 2572.848 5784.852 2538.289 5744.133 2538.289 5744.133 2538.289 5804.441 2600.547 5852.902 2671.559 5852.902 2869.414 5853.223 2990.852 5711.633 3106.711 5742.188 3185.418 5762.945 3202.18 5859.801 3202.18 5938.527V5953.031 5953.035C3202.176 5953.16 3202.176 5953.281 3202.176 5953.41V6210.941C3202.148 6259.238 3188.762 6291.281 3168.43 6303.43V6322.184H3303.43V6303.43C3283.098 6291.281 3269.707 6259.234 3269.68 6210.938V6129.336C3269.789 6114.305 3277.66 6000.18 3357.531 5997.941 3396.504 5997.973 3426.344 6032.531 3426.344 6108.258V6210.941C3426.316 6259.238 3412.926 6291.281 3392.594 6303.434V6322.184H3527.598V6303.434C3507.262 6291.281 3493.844 6259.238 3493.844 6210.941V6108.258C3493.844 5997.168 3424.805 5979.191 3372.875 5979.191 3323.133 5979.191 3288.883 6004.598 3269.68 6042.906V5937.805C3267.387 5839.609 3211.547 5751.531 3113.219 5724.402 3087.168 5717.211 3062.52 5714.859 3038.324 5715.789ZM3038.324 5715.789" fill-rule="evenodd"/>
<path d="M5398.852 5715.789C5293.996 5719.809 5197.57 5785.367 5031.676 5785.367 4933.375 5784.852 4898.816 5744.133 4898.816 5744.133 4898.816 5804.441 4961.074 5852.902 5032.086 5852.902 5229.938 5853.223 5351.379 5711.633 5467.242 5742.188 5545.945 5762.945 5562.703 5859.801 5562.703 5938.527L5562.707 6210.941C5562.707 6259.238 5549.285 6291.281 5528.953 6303.434V6322.184H5663.957V6303.43C5643.621 6291.281 5630.234 6259.234 5630.207 6210.938V5937.805C5627.914 5839.609 5572.074 5751.531 5473.746 5724.402 5447.695 5717.211 5423.047 5714.859 5398.852 5715.789ZM5398.852 5715.789" fill-rule="evenodd"/>
<path d="M7342.078 5842.172V5860.922C7362.41 5873.074 7375.805 5905.113 7375.824 5953.41V6210.941C7375.797 6259.238 7362.41 6291.281 7342.078 6303.43V6322.184H7477.078V6303.434C7456.746 6291.281 7443.324 6259.238 7443.324 6210.941V6129.641H7443.328C7443.328 6115.938 7450.742 6000.195 7531.18 5997.941 7570.152 5997.973 7599.992 6032.531 7599.992 6108.258V6290.219C7599.992 6353.145 7638.016 6414.316 7693.578 6456.066 7688.453 6457.605 7683.316 6459.117 7678.172 6460.598 7616.621 6423.789 7540.922 6406.699 7471 6406.699 7420.711 6406.699 7356.879 6417.113 7357.711 6469.27 7358.723 6532.668 7420.93 6554.953 7474.992 6559.234 7512.883 6562.238 7633.871 6544.895 7721.59 6518.105 7761.723 6563 7755.328 6624.316 7755.328 6696.691 7761.137 6694.379 7812.832 6666.039 7818.637 6663.727 7797.535 6610.746 7781.062 6554.574 7741.688 6511.852 7750.41 6509.086 7759.07 6506.293 7767.684 6503.492 7768.84 6503.117 7769.992 6502.742 7771.145 6502.367 7918.629 6569.691 8143.496 6556.469 8143.16 6457.898 8143.07 6432.164 8129.109 6344.418 7936.469 6387.734 7861.586 6404.574 7789.105 6424.676 7715.754 6449.246 7669 6416.629 7667.527 6330.754 7667.492 6265.289 7667.492 6262.07 7667.492 6258.902 7667.492 6255.793V6108.258C7667.492 5997.168 7598.457 5979.191 7546.523 5979.191 7496.781 5979.191 7462.527 6004.602 7443.324 6042.91L7443.328 5842.172ZM7471 6425.449C7531.984 6425.449 7597.082 6439.18 7652.09 6467.758 7586.406 6484.898 7531.062 6490.977 7490.016 6492.332 7448.965 6493.688 7422.211 6490.32 7413.695 6488.574 7372.711 6480.16 7373.211 6443.828 7410.66 6432.676 7425.113 6428.375 7444.789 6425.449 7471 6425.449ZM8032.508 6441.953C8069.207 6441.383 8103.621 6447.715 8106.148 6472.91 8108.289 6494.254 8060.984 6521.66 7979.254 6523.785 7930.219 6525.059 7868.789 6517.234 7798.211 6493.535 7846.008 6477.98 7893.426 6463.059 7945.172 6452.391 7956.828 6449.988 7995.809 6442.52 8032.508 6441.953ZM8032.508 6441.953" fill-rule="evenodd"/>
<path d="M8472.211 5979.191H8370.957V5997.945C8391.289 6010.094 8404.684 6042.137 8404.707 6090.434V6210.941C8404.676 6259.238 8391.289 6291.281 8370.957 6303.43V6322.184H8505.957V6303.434C8485.625 6291.281 8472.207 6259.238 8472.207 6210.941V6129.594C8472.234 6115.668 8479.715 6000.195 8560.059 5997.941 8599.035 5997.973 8628.871 6032.531 8628.871 6108.258V6210.941C8628.844 6259.238 8615.453 6291.281 8595.121 6303.434V6322.184H8730.125V6303.434C8709.789 6291.281 8696.371 6259.238 8696.371 6210.941V6129.641C8696.371 6115.938 8703.785 6000.195 8784.223 5997.941 8823.199 5997.973 8853.035 6032.531 8853.035 6108.258V6290.219C8853.035 6353.145 8891.059 6414.316 8946.625 6456.066 8941.496 6457.605 8936.363 6459.117 8931.215 6460.598 8869.664 6423.789 8793.969 6406.699 8724.047 6406.699 8673.758 6406.699 8609.926 6417.113 8610.754 6469.27 8611.766 6532.668 8673.977 6554.953 8728.035 6559.234 8765.93 6562.238 8886.914 6544.895 8974.633 6518.105 9014.77 6563 9008.375 6624.316 9008.375 6696.691 9014.18 6694.379 9065.875 6666.039 9071.68 6663.727 9050.578 6610.746 9034.109 6554.574 8994.73 6511.852 9003.457 6509.086 9012.113 6506.293 9020.727 6503.492 9021.883 6503.117 9023.035 6502.742 9024.191 6502.367 9171.672 6569.691 9396.543 6556.469 9396.199 6457.898 9396.113 6432.164 9382.152 6344.418 9189.516 6387.734 9114.633 6404.574 9042.148 6424.676 8968.797 6449.246 8919.746 6415.027 8920.535 6322.184 8920.535 6255.793V6108.258C8920.535 5997.168 8851.5 5979.191 8799.57 5979.191 8743.949 5979.191 8707.699 6010.957 8690.195 6057 8672.137 5991.293 8618.012 5979.191 8575.402 5979.191 8525.66 5979.191 8491.41 6004.602 8472.207 6042.906ZM8724.047 6425.449C8785.027 6425.449 8850.125 6439.18 8905.133 6467.758 8839.449 6484.898 8784.105 6490.977 8743.059 6492.332 8702.012 6493.688 8675.254 6490.32 8666.738 6488.574 8625.754 6480.16 8626.254 6443.828 8663.703 6432.676 8678.156 6428.375 8697.836 6425.449 8724.047 6425.449ZM9285.551 6441.953C9322.25 6441.383 9356.664 6447.715 9359.191 6472.91 9361.332 6494.254 9314.027 6521.66 9232.301 6523.785 9183.262 6525.059 9121.832 6517.234 9051.254 6493.535 9099.051 6477.98 9146.469 6463.059 9198.215 6452.391 9209.871 6449.988 9248.852 6442.52 9285.551 6441.953ZM9285.551 6441.953" fill-rule="evenodd"/>
<path d="M9654.965 5979.191H9553.711V5997.945C9574.047 6010.094 9587.441 6042.137 9587.461 6090.434V6210.941C9587.434 6259.238 9574.047 6291.281 9553.711 6303.43V6322.184H9688.715V6303.434C9668.383 6291.281 9654.961 6259.238 9654.961 6210.941V6129.582C9654.992 6115.629 9662.48 6000.191 9742.816 5997.941 9781.789 5997.969 9811.629 6032.531 9811.629 6108.258V6290.219C9811.629 6353.145 9849.648 6414.316 9905.215 6456.07 9900.09 6457.605 9894.953 6459.117 9889.805 6460.598 9828.254 6423.789 9752.555 6406.699 9682.637 6406.699 9632.348 6406.699 9568.516 6417.113 9569.348 6469.27 9570.359 6532.668 9632.566 6554.957 9686.625 6559.238 9724.52 6562.238 9845.504 6544.895 9933.223 6518.105 9973.355 6563 9966.965 6624.316 9966.965 6696.691 9972.77 6694.379 10024.465 6666.039 10030.273 6663.727 10009.172 6610.746 9992.699 6554.574 9953.32 6511.852 9962.047 6509.09 9970.703 6506.293 9979.316 6503.492 9980.473 6503.117 9981.625 6502.742 9982.781 6502.367 10130.262 6569.691 10355.133 6556.469 10354.793 6457.898 10354.703 6432.164 10340.742 6344.418 10148.105 6387.734 10073.223 6404.574 10000.738 6424.68 9927.387 6449.246 9878.336 6415.027 9879.129 6322.184 9879.129 6255.793V6108.258C9879.129 5997.168 9810.094 5979.191 9758.16 5979.191 9708.418 5979.191 9674.168 6004.602 9654.965 6042.906ZM9682.637 6425.449C9743.617 6425.449 9808.715 6439.18 9863.723 6467.758 9798.039 6484.898 9742.695 6490.977 9701.648 6492.332 9660.602 6493.688 9633.844 6490.32 9625.332 6488.574 9584.344 6480.16 9584.848 6443.828 9622.297 6432.676 9636.746 6428.375 9656.426 6425.449 9682.637 6425.449ZM10244.141 6441.953C10280.84 6441.383 10315.258 6447.715 10317.781 6472.91 10319.926 6494.254 10272.621 6521.66 10190.891 6523.785 10141.855 6525.059 10080.422 6517.234 10009.844 6493.535 10057.645 6477.98 10105.059 6463.059 10156.809 6452.391 10168.465 6449.988 10207.445 6442.52 10244.141 6441.953ZM10244.141 6441.953" fill-rule="evenodd"/>
<path d="M10683.707 5979.188V5997.941C10704.039 6010.094 10717.457 6042.137 10717.457 6090.434V6193.113C10717.457 6304.203 10786.496 6322.18 10838.426 6322.18 10888.168 6322.18 10922.418 6296.773 10941.621 6258.469V6290.219C10941.621 6353.145 10979.645 6414.316 11035.207 6456.066 11030.082 6457.605 11024.945 6459.117 11019.797 6460.598 10958.246 6423.789 10882.551 6406.699 10812.633 6406.699 10762.34 6406.699 10698.508 6417.113 10699.34 6469.27 10700.352 6532.668 10762.559 6554.953 10816.621 6559.234 10854.516 6562.238 10975.496 6544.895 11063.215 6518.105 11103.352 6563 11096.957 6624.316 11096.957 6696.691 11102.762 6694.379 11154.457 6666.039 11160.266 6663.727 11139.164 6610.746 11122.691 6554.574 11083.312 6511.852 11092.039 6509.086 11100.695 6506.293 11109.312 6503.492 11110.465 6503.117 11111.617 6502.742 11112.773 6502.367 11260.254 6569.691 11485.125 6556.469 11484.785 6457.898 11484.703 6432.164 11470.738 6344.418 11278.098 6387.734 11203.219 6404.574 11130.73 6424.676 11057.379 6449.246 11008.332 6415.027 11009.121 6322.184 11009.121 6255.793V5979.191H10907.871V5997.945C10928.203 6010.094 10941.598 6042.137 10941.621 6090.434V6172.145C10941.48 6187.586 10933.461 6301.195 10853.773 6303.43 10814.797 6303.402 10784.957 6268.84 10784.957 6193.113V5979.188ZM10812.633 6425.449C10873.613 6425.449 10938.707 6439.18 10993.719 6467.758 10928.031 6484.898 10872.691 6490.977 10831.645 6492.332 10790.594 6493.688 10763.836 6490.32 10755.324 6488.574 10714.336 6480.16 10714.84 6443.828 10752.289 6432.676 10766.738 6428.375 10786.418 6425.449 10812.633 6425.449ZM11374.137 6441.953C11410.836 6441.383 11445.25 6447.715 11447.777 6472.91 11449.918 6494.254 11402.613 6521.66 11320.883 6523.785 11271.848 6525.059 11210.418 6517.234 11139.84 6493.535 11187.637 6477.98 11235.055 6463.059 11286.801 6452.391 11298.453 6449.988 11337.438 6442.52 11374.137 6441.953ZM11374.137 6441.953" fill-rule="evenodd"/>
<path d="M6441.922 5979.191C6236.227 5979.191 6218.363 6322.184 6418.199 6322.184 6435.914 6322.184 6492.176 6317.66 6521.926 6266.125 6525.324 6260.238 6528.355 6254.137 6531.059 6247.918V6290.219C6531.059 6353.145 6569.082 6414.316 6624.645 6456.066 6619.52 6457.605 6614.383 6459.117 6609.234 6460.598 6547.684 6423.789 6471.988 6406.699 6402.066 6406.699 6351.777 6406.699 6287.945 6417.113 6288.777 6469.27 6289.785 6532.668 6351.996 6554.953 6406.059 6559.234 6443.949 6562.238 6564.934 6544.895 6652.652 6518.105 6692.789 6563 6686.395 6624.316 6686.395 6696.691 6692.199 6694.379 6743.895 6666.039 6749.703 6663.727 6728.602 6610.746 6712.129 6554.574 6672.754 6511.852 6681.477 6509.086 6690.133 6506.293 6698.746 6503.492 6699.902 6503.117 6701.059 6502.742 6702.211 6502.367 6849.691 6569.691 7074.562 6556.469 7074.223 6457.898 7074.137 6432.164 7060.172 6344.418 6867.535 6387.734 6792.652 6404.574 6720.168 6424.676 6646.816 6449.246 6597.766 6415.027 6598.559 6322.184 6598.559 6255.793V5979.191H6564.809C6528.848 6003.574 6510.414 5979.191 6441.922 5979.191ZM6455.73 5997.941C6535.984 6000.195 6532.18 6115.934 6531.059 6129.641V6171.738C6528.922 6197.793 6520.973 6231.523 6505.805 6257.805 6490.66 6284.035 6463.734 6302.535 6431.18 6303.434 6300.828 6303.344 6325.57 5998.008 6455.73 5997.941ZM6402.066 6425.449C6463.047 6425.449 6528.145 6439.18 6583.152 6467.758 6517.469 6484.898 6462.129 6490.977 6421.078 6492.332 6380.031 6493.688 6353.273 6490.32 6344.762 6488.574 6303.773 6480.16 6304.273 6443.828 6341.723 6432.676 6356.176 6428.375 6375.855 6425.449 6402.066 6425.449ZM6963.57 6441.953C7000.27 6441.383 7034.688 6447.715 7037.215 6472.91 7039.352 6494.254 6992.047 6521.66 6910.32 6523.785 6861.281 6525.059 6799.852 6517.234 6729.277 6493.535 6777.074 6477.98 6824.492 6463.059 6876.234 6452.391 6887.891 6449.988 6926.875 6442.52 6963.57 6441.953ZM6963.57 6441.953" fill-rule="evenodd"/>
<path d="M521.09 6967.234H419.848V6985.988C440.18 6998.141 453.574 7030.18 453.598 7078.477V7208.883L263.824 7368.109C234.258 7391.289 206.938 7420.566 167.023 7423.414 36.672 7423.324 61.414 7123.074 191.574 7123.008 271.828 7125.262 268.023 7241 266.898 7254.703V7341.051C308.129 7308.941 334.398 7289.758 334.398 7242.789V7104.25H300.652C264.691 7128.637 246.258 7104.25 177.766 7104.25-27.93 7104.25-45.793 7447.246 154.043 7447.246 213.414 7447.246 266.898 7390.004 266.898 7390.004V7391.828C266.898 7419.047 277.617 7447.246 306.051 7447.246H368.152V7428.492C347.82 7416.344 334.398 7384.297 334.398 7336V7333.367L522.43 7175.602C601.699 7102.949 677.758 7103.805 677.758 7233.32V7336C677.727 7384.297 664.34 7416.34 644.008 7428.492V7447.246H779.008V7428.492C758.676 7416.34 745.258 7384.297 745.258 7336V7233.32C745.258 7122.23 682.031 7104.25 630.102 7104.25 583.977 7103.633 554.605 7126.578 521.09 7152.5ZM521.09 7201.199C489.375 7229.965 453.59 7260.438 453.59 7306.25V7336.012C453.562 7384.309 440.172 7416.352 419.84 7428.5V7447.254H554.844V7428.504C534.512 7416.352 521.09 7384.309 521.09 7336.012ZM521.09 7201.199" fill-rule="evenodd"/>
<path d="M4916.574 6967.238C4914.531 6967.246 4912.492 6967.391 4910.473 6967.68 4777.57 6972.367 4699.648 7126.438 4630.883 7240.824 4603.512 7284.254 4578.48 7330.082 4547.805 7370.754 4547.074 7366.418 4545.059 7352.641 4545.059 7336.012V6967.242H4443.809V6985.992C4464.141 6998.145 4477.535 7030.188 4477.559 7078.484V7335.684C4477.559 7335.793 4477.559 7335.902 4477.559 7336.012 4477.559 7357.484 4474.297 7410.281 4443.809 7428.5V7447.254H4581.227V7428.5C4560.875 7416.34 4571.23 7371.945 4593.887 7335.891L4606.203 7316.289C4624.637 7345.672 4600.094 7306.508 4618.52 7335.898 4641.168 7371.949 4651.52 7416.344 4631.172 7428.504V7447.254H4797.383V7428.504C4764.406 7421.215 4734.082 7392.941 4698.246 7335.906L4646.062 7252.848C4703.48 7159.164 4769.574 7056.285 4916.574 7056.285 4928.383 7056.285 4939.707 7051.598 4948.059 7043.246 4956.41 7034.895 4961.098 7023.57 4961.098 7011.762 4961.098 6999.953 4956.41 6988.629 4948.059 6980.277 4939.707 6971.93 4928.383 6967.238 4916.574 6967.238ZM4950.328 7104.262H4849.078V7123.016C4869.41 7135.168 4882.801 7167.207 4882.824 7215.504V7336.012C4882.797 7384.309 4869.41 7416.352 4849.078 7428.5V7447.254H4984.078V7428.504C4963.746 7416.352 4950.324 7384.309 4950.324 7336.012ZM4950.328 7104.262" fill-rule="evenodd"/>
<path d="M2573.027 7104.258H2471.781V7123.008C2492.117 7135.16 2505.508 7160.586 2505.531 7208.883L2315.762 7368.109C2286.195 7391.289 2258.871 7420.566 2218.957 7423.414 2088.605 7423.324 2113.352 7123.074 2243.508 7123.008 2323.758 7125.262 2319.957 7241 2318.836 7254.703V7341.051C2360.062 7308.941 2386.336 7289.758 2386.336 7242.789V7104.25H2352.586C2316.625 7128.637 2298.191 7104.25 2229.703 7104.25 2024.004 7104.25 2006.141 7447.246 2205.977 7447.246 2265.348 7447.246 2318.836 7390.004 2318.836 7390.004V7391.828C2318.836 7419.047 2329.555 7447.246 2357.984 7447.246H2420.09V7428.492C2399.754 7416.344 2386.336 7384.297 2386.336 7336V7333.367L2574.363 7175.602C2653.633 7102.949 2729.691 7103.805 2729.691 7233.32V7336C2729.664 7384.297 2716.277 7416.34 2695.941 7428.492V7447.246H2830.945V7428.492C2810.613 7416.34 2797.191 7384.297 2797.191 7336V7233.32C2797.191 7122.23 2733.969 7104.25 2682.035 7104.25 2635.91 7103.633 2606.543 7126.578 2573.023 7152.5ZM2573.027 7201.199C2541.309 7229.965 2505.523 7260.438 2505.523 7306.25V7336.012C2505.496 7384.309 2492.109 7416.352 2471.777 7428.5V7447.254H2606.777V7428.504C2586.441 7416.352 2573.023 7384.309 2573.023 7336.012V7254.711ZM2573.027 7201.199" fill-rule="evenodd"/>
<path d="M1079.027 7104.258C873.328 7104.258 855.465 7447.25 1055.301 7447.25 1114.672 7447.25 1168.16 7390.008 1168.16 7390.008V7391.836C1168.16 7419.055 1178.875 7447.25 1207.309 7447.25H1269.41V7428.5C1249.078 7416.348 1235.66 7384.305 1235.66 7336.008V7333.371L1423.684 7175.605C1502.957 7102.953 1579.016 7103.809 1579.016 7233.324V7336.004C1578.988 7384.301 1565.602 7416.348 1545.266 7428.496V7447.25H1680.262V7428.504C1649.719 7410.25 1646.512 7357.434 1646.508 7336.016V7254.719C1646.508 7241.012 1653.926 7125.273 1734.363 7123.02 1773.336 7123.047 1803.176 7157.609 1803.176 7233.336V7336.016C1803.145 7384.312 1789.758 7416.359 1769.426 7428.508V7447.262H1904.426V7428.508C1884.094 7416.359 1870.676 7384.312 1870.676 7336.016V7233.336C1870.676 7122.246 1801.637 7104.27 1749.707 7104.27 1694.402 7104.27 1658.246 7135.676 1640.633 7181.301 1623.781 7116.27 1573.797 7104.262 1531.355 7104.262 1485.23 7103.645 1455.859 7126.586 1422.344 7152.512V7104.262H1321.094V7123.016C1341.43 7135.168 1354.824 7160.59 1354.844 7208.887L1165.074 7368.117C1135.508 7391.293 1108.188 7420.57 1068.273 7423.418 937.922 7423.332 962.664 7123.078 1092.824 7123.012 1173.074 7125.266 1169.273 7241.004 1168.152 7254.711V7341.055C1209.379 7308.949 1235.652 7289.762 1235.652 7242.797V7104.258H1201.902C1165.941 7128.641 1147.508 7104.258 1079.016 7104.258ZM1422.352 7201.199C1390.633 7229.965 1354.848 7260.441 1354.848 7306.25V7336.012C1354.82 7384.309 1341.434 7416.352 1321.098 7428.5V7447.254H1456.102V7428.504C1435.77 7416.352 1422.348 7384.309 1422.348 7336.012V7254.711ZM1422.352 7201.199" fill-rule="evenodd"/>
<path d="M4051.402 6943.609C4032.527 6944.254 4016.414 6946.898 4007 6950.801 3970.738 6965.828 3924.555 7005.324 3924.555 7079.73V7104.258H3890.805V7123.012H3924.555V7336.012C3924.555 7384.309 3911.137 7416.352 3890.805 7428.504V7447.254H4025.805V7428.504C4005.473 7416.352 3992.078 7384.309 3992.055 7336.012V7123.012H4046.52C4091.574 7123.012 4111.238 7167.203 4111.262 7215.5V7336.004C4111.23 7384.301 4097.844 7416.344 4077.512 7428.496V7447.25H4212.512V7428.496C4192.18 7416.348 4178.762 7384.305 4178.762 7336.008V7104.254L4079.91 7104.258H3992.062V7024.836C3992.062 6946.875 4048.672 6957.645 4072.344 6984.188 4089.047 7002.918 4103.324 7033.414 4114.344 7043.926 4114.457 7044.059 4114.57 7044.227 4114.684 7044.359L4114.766 7044.316C4122.711 7051.699 4133.301 7056.285 4145 7056.285 4174.527 7056.285 4191.93 7029.934 4189.195 7006.531 4184.074 6956.715 4106.156 6941.738 4051.41 6943.609ZM4051.402 6943.609" fill-rule="evenodd"/>
<path d="M5398.133 6967.238C5396.164 6967.242 5394.195 6967.375 5392.246 6967.637 5325.375 6975.797 5245.188 7118.699 5245.188 7164.211V7104.262H5143.934V7123.016C5164.27 7135.168 5177.664 7167.207 5177.684 7215.508V7336.012C5177.656 7384.309 5164.27 7416.352 5143.934 7428.5V7447.254H5278.938V7428.504C5258.605 7416.352 5245.184 7384.309 5245.184 7336.012V7254.711C5245.184 7241.008 5264.238 7056.285 5398.102 7056.285 5398.109 7056.285 5398.121 7056.285 5398.129 7056.285 5409.938 7056.285 5421.262 7051.598 5429.613 7043.246 5437.961 7034.898 5442.652 7023.57 5442.652 7011.762 5442.617 6987.758 5423.555 6968.102 5399.562 6967.332 5399.086 6967.277 5398.609 6967.238 5398.129 6967.238ZM5431.887 7104.262H5330.633V7123.016C5350.969 7135.168 5364.363 7167.207 5364.383 7215.508V7336.012C5364.355 7384.309 5350.969 7416.352 5330.633 7428.5V7447.254H5465.637V7428.504C5445.305 7416.352 5431.887 7384.309 5431.887 7336.012ZM5431.887 7104.262" fill-rule="evenodd"/>
<path d="M3546.895 7103.879C3455.648 7103.879 3418.027 7145.934 3418.027 7198.867 3418.027 7217.223 3423.836 7231.441 3433.461 7242.887 3409.586 7275.137 3387.031 7310.469 3360.723 7341.379 3251.586 7469.602 3103.32 7457.148 3092.281 7294.508H3360.109V7275.762C3360.109 7238.285 3349.137 7104.262 3192.137 7104.262 3099.363 7104.262 3024.051 7155.848 3024.16 7275.758 3024.328 7458.879 3230.527 7511.863 3375 7353.535 3402.965 7322.887 3424.582 7286.996 3447.398 7255.895 3502.512 7297.254 3615.914 7295.484 3615.914 7367.535 3615.914 7412.086 3581.68 7428.008 3542.613 7428.121 3490.711 7428.266 3435.105 7396.828 3435.105 7331.738H3416.359V7447.254H3435.105C3435.332 7406.961 3452.137 7426.547 3488 7439.273 3501.238 7443.973 3522.391 7447.266 3545.801 7446.965 3603.641 7446.211 3675.25 7423.492 3675.25 7345.699 3675.25 7265.219 3600.277 7245.922 3534.926 7228.164 3514.527 7222.488 3499.961 7214.195 3490.461 7204.719 3490.605 7204.586 3490.746 7204.457 3490.867 7204.328 3523.125 7173.402 3564.008 7161.305 3595.516 7165.246 3631.941 7169.801 3648.289 7193.129 3648.289 7219.406H3667.039V7103.887H3648.293C3632.797 7130.73 3601.312 7103.887 3546.902 7103.887ZM3546.066 7122.633C3576.047 7122.633 3604.289 7133.211 3623.457 7153.355 3615.52 7150 3606.879 7147.77 3597.84 7146.641 3593.086 7146.047 3588.211 7145.746 3583.25 7145.75 3549.152 7145.777 3510.953 7159.926 3479.633 7189.148 3466.227 7157.926 3495.453 7122.633 3546.066 7122.633ZM3192.125 7123.012C3247.617 7123.012 3292.602 7173.383 3292.602 7275.758L3091.648 7275.762V7275.758C3091.648 7173.383 3136.629 7123.012 3192.121 7123.012ZM3192.125 7123.012" fill-rule="evenodd"/>
<path d="M7046.5 6967.238V6967.266C6933.844 6967.266 6874.414 7114.938 6836.293 7215.641H6836.262L6785.301 7351.297 6734.34 7215.641C6726.266 7191.695 6698.926 7141.102 6721.684 7123.031V7104.277H6591.23V7123.031C6612.059 7133.371 6633.738 7154.707 6651.535 7190.789 6651.535 7190.816 6651.535 7190.832 6651.562 7190.855 6648.582 7198.859 6645.336 7207.188 6642.164 7215.645L6591.199 7351.297 6540.242 7215.645V7215.641C6532.164 7191.699 6504.824 7141.105 6527.582 7123.031V7104.281H6397.113V7123.031C6422.324 7135.551 6448.793 7164.188 6468.102 7215.586L6555.133 7447.273H6575.164L6662.188 7215.633V7215.602L6749.223 7447.293H6769.25L6851.027 7229.613C6884.406 7133.91 6941.238 7062.344 7046.473 7056.32 7071.059 7056.324 7090.992 7036.387 7090.996 7011.797 7090.996 6987.207 7071.059 6967.273 7046.473 6967.273ZM7080.25 7104.273 6979 7104.277V7123.027C6999.332 7135.18 7012.727 7167.223 7012.75 7215.52V7336.023C7012.723 7384.32 6999.332 7416.363 6979 7428.516V7447.27H7114.004V7428.516C7093.668 7416.367 7080.25 7384.324 7080.25 7336.027ZM7080.25 7104.273" fill-rule="evenodd"/>
<path d="M184.832 8077.883H7.32V8096.637C27.656 8108.785 41.051 8140.832 41.074 8189.129V8446.656C41.047 8494.953 27.656 8526.996 7.32 8539.148V8557.898L142.324 8557.902V8539.148C121.992 8526.996 108.574 8494.953 108.574 8446.656V8351.738H147.332C248.879 8351.738 320.336 8304.699 320.336 8214.805 320.336 8121.609 278.504 8077.863 184.832 8077.871ZM514.93 8077.984H379.93V8096.738C400.262 8108.887 413.66 8140.93 413.684 8189.227V8349.227C413.652 8397.527 400.262 8429.57 379.93 8441.719V8460.473H514.93V8441.723C494.598 8429.57 481.184 8397.527 481.184 8349.23V8189.227C481.184 8140.93 494.598 8108.887 514.93 8096.734ZM172.258 8096.656C233.727 8096.656 252.832 8140.949 252.832 8214.844 252.832 8304.117 205.598 8333.031 147.332 8333.031H108.574V8189.168C108.574 8121.379 138.82 8096.656 172.258 8096.656ZM137.957 8351.781C137.957 8451.938 160.617 8562.793 331.621 8557.84V8558H514.93V8490.309H331.621C252.402 8493.07 156.707 8450.438 156.707 8351.781ZM137.957 8351.781" fill-rule="evenodd"/>
<path d="M977.598 8077.969C845.043 8077.969 737.594 8185.43 737.594 8317.984 737.594 8450.543 845.043 8558 977.598 8558 1029.562 8558 1077.668 8541.484 1116.957 8513.418 1156.242 8541.484 1204.352 8558 1256.316 8558 1388.867 8558 1496.32 8450.543 1496.32 8317.984 1496.32 8185.43 1388.867 8077.969 1256.316 8077.969 1204.352 8077.969 1156.242 8094.484 1116.957 8122.551 1077.668 8094.484 1029.562 8077.969 977.598 8077.969ZM977.598 8096.723C1021.734 8096.723 1062 8111.523 1092.508 8142.559 1045.621 8186.367 1016.309 8248.754 1016.309 8317.984 1016.309 8387.219 1045.617 8449.602 1092.508 8493.41 1062 8524.441 1021.734 8539.246 977.598 8539.246 882.324 8539.246 805.094 8472.211 805.094 8317.984 805.094 8163.762 882.324 8096.723 977.598 8096.723ZM1256.316 8096.723C1351.582 8096.723 1428.82 8165.699 1428.82 8317.984 1428.82 8470.27 1351.582 8539.246 1256.316 8539.246 1212.012 8539.246 1171.609 8524.75 1141.059 8493.73 1188.148 8449.906 1217.602 8387.387 1217.602 8317.984 1217.602 8248.582 1188.148 8186.062 1141.059 8142.238 1171.605 8111.219 1212.012 8096.723 1256.316 8096.723ZM1116.707 8174.125C1137.699 8209.316 1150.102 8256.961 1150.102 8317.984 1150.102 8379.008 1137.699 8426.652 1116.707 8461.84 1096.016 8426.824 1083.809 8379.293 1083.809 8317.984 1083.809 8256.676 1096.016 8209.145 1116.707 8174.125ZM1116.707 8174.125" fill-rule="evenodd"/>
<path d="M11834.316 5979.188V5997.941C11859.531 6010.461 11886.016 6039.086 11905.301 6090.492L11992.105 6321.844C11975.801 6363.164 11957.859 6402.254 11926.957 6436.82 11839.238 6410.031 11718.254 6392.688 11680.359 6395.688 11626.301 6399.969 11564.09 6422.258 11563.078 6485.656 11562.25 6537.812 11626.082 6548.227 11676.371 6548.227 11746.293 6548.227 11821.988 6531.137 11883.539 6494.328 11888.688 6495.809 11893.824 6497.32 11898.949 6498.855 11843.387 6540.609 11802.312 6594.855 11787.301 6656.676L11853.996 6671.043C11853.996 6609.336 11872.07 6539.898 11921.121 6505.68 11994.473 6530.246 12066.957 6550.352 12141.84 6567.191 12334.477 6610.508 12348.438 6522.762 12348.527 6497.027 12348.863 6398.457 12123.996 6385.234 11976.516 6452.559 11975.359 6452.184 11974.207 6451.809 11973.051 6451.434 11964.438 6448.633 11955.781 6445.836 11947.055 6443.074 11972.031 6415.977 11987.793 6383.469 12001.363 6349.797 12005 6340.773 12029.656 6276.156 12029.656 6276.156L12099.387 6090.539C12118.703 6039.113 12145.172 6010.465 12170.391 5997.941V5979.188L12092.012 5979.191V5997.941C12112.359 6010.105 12095.055 6048.754 12079.352 6090.555L12028.391 6226.207 11977.43 6090.555C11969.352 6066.609 11942.012 6016.016 11964.773 5997.945V5979.191ZM12184.625 6431.141C12266.352 6433.266 12313.656 6460.672 12311.516 6482.012 12306.461 6532.406 12173.852 6507.34 12150.539 6502.531 12098.793 6491.867 12051.375 6476.941 12003.578 6461.391 12074.156 6437.691 12135.586 6429.867 12184.625 6431.141ZM11695.383 6462.594C11736.43 6463.949 11791.773 6470.027 11857.457 6487.168 11802.449 6515.746 11737.352 6529.473 11676.371 6529.473 11650.16 6529.473 11630.48 6526.551 11616.027 6522.246 11578.578 6511.098 11578.078 6474.766 11619.062 6466.352 11627.578 6464.605 11654.336 6461.238 11695.383 6462.594ZM11695.383 6462.594" fill-rule="evenodd"/>
</g>
</svg>
