<svg xmlns="http://www.w3.org/2000/svg" xmlns:xlink="http://www.w3.org/1999/xlink" xmlns:inkscape="http://www.inkscape.org/namespaces/inkscape" version="1.1" width="16506" height="6532" viewBox="0 0 16506 6532">
<g>
<path d="M694.484 1260.656V1740.688L1042.992 1740.684V1740.688C1119.387 1740.688 1181.32 1680.66 1181.32 1606.617 1181.32 1555.98 1152.359 1511.902 1109.617 1489.09 1134.387 1464.863 1149.684 1431.527 1149.684 1394.727 1149.684 1320.68 1087.754 1260.656 1011.355 1260.656ZM881.988 1433.172H959.547C970.766 1433.172 979.859 1441.984 979.859 1452.855 979.859 1463.664 970.871 1472.445 959.73 1472.543H881.988ZM881.988 1528.797H991.281C1002.461 1528.852 1011.496 1537.648 1011.492 1548.484 1011.492 1559.277 1002.535 1568.043 991.43 1568.172H881.988ZM881.988 1528.797" fill-rule="evenodd"/>
<path d="M1803.18 1260.656V1740.688H2062.141C2206.012 1740.688 2310.641 1648.539 2310.641 1500.672 2310.641 1352.801 2206.012 1260.656 2062.141 1260.656ZM2062.141 1404.594C2102.457 1404.594 2123.133 1438.426 2123.133 1500.672 2123.133 1562.918 2102.457 1596.746 2062.141 1596.746V1596.75H1990.684V1404.598H2062.141ZM2062.141 1404.594" fill-rule="evenodd"/>
<path d="M2375.863 1260.656V1740.688L2769.629 1740.684V1568.172H2563.367V1528.797H2716.953V1472.543H2563.367V1433.172H2769.629V1260.656ZM2375.863 1260.656" fill-rule="evenodd"/>
<path d="M2834.848 1260.656V1740.688H3022.355V1528.797H3175.938V1472.543H3022.355V1433.172H3228.617V1260.656ZM2834.848 1260.656" fill-rule="evenodd"/>
<path d="M3876.453 1260.656V1740.688H4063.961V1528.797H4179.547V1740.688H4367.051V1260.656H4179.547V1472.543H4063.961V1260.656ZM3876.453 1260.656" fill-rule="evenodd"/>
<path d="M4432.273 1260.656H4619.777V1740.687H4432.273Z" fill-rule="evenodd"/>
<path d="M4756.551 1260.656V1568.172H4684.996V1740.688H4756.551C4895.93 1740.688 4945.48 1682.152 4944.055 1568.172V1260.656ZM4756.551 1260.656" fill-rule="evenodd"/>
<path d="M5009.305 1260.656V1740.688H5196.809V1543.441L5354.906 1740.688H5595.211L5405.195 1503.621 5553.152 1260.656H5333.617L5196.809 1485.312V1260.656ZM5009.305 1260.656" fill-rule="evenodd"/>
<path d="M5660.43 1260.656V1740.688H6054.195V1568.172H5847.934V1260.656ZM5660.43 1260.656" fill-rule="evenodd"/>
<path d="M6119.418 1260.656V1740.688H6306.922V1674.488L6337.281 1740.688H6495.996L6526.359 1674.484V1740.688H6713.863V1260.656H6526.359L6416.641 1499.898 6306.922 1260.656ZM6119.418 1260.656" fill-rule="evenodd"/>
<path d="M6779.082 1260.656V1740.688H6966.586V1573.254L7071.293 1740.688H7266.777V1260.656H7079.273V1428.09L6974.566 1260.656ZM6779.082 1260.656" fill-rule="evenodd"/>
<path d="M7894.223 1260.656V1740.688H8081.727V1584.93H8189.645C8405.16 1584.93 8404.438 1260.656 8189.645 1260.656ZM8081.727 1433.172H8116.91C8188.883 1433.172 8189.91 1528.676 8117.012 1528.676H8081.727ZM8081.727 1433.172" fill-rule="evenodd"/>
<path d="M165.848 1260.656 0 1740.688H198.383L228.184 1654.426H401.082L430.883 1740.688H629.266L463.418 1260.656ZM314.633 1404.203 381.645 1598.172H247.621ZM314.633 1404.203" fill-rule="evenodd"/>
<path d="M11233.203 1740.688 11067.355 1260.656H11265.738L11381.988 1597.137 11498.238 1260.656H11696.621L11530.773 1740.688ZM11233.203 1740.688" fill-rule="evenodd"/>
<path d="M7580.5 1260.656C7436.629 1260.656 7332 1352.801 7332 1500.672 7332 1648.539 7436.629 1740.688 7580.5 1740.688 7724.371 1740.688 7829.004 1653.637 7829 1500.672 7829 1347.703 7724.371 1260.656 7580.5 1260.656ZM7580.5 1404.594C7620.812 1404.594 7641.492 1434.344 7641.492 1500.672 7641.492 1566.996 7620.812 1596.746 7580.5 1596.746 7540.188 1596.746 7519.508 1562.918 7519.508 1500.672 7519.508 1438.422 7540.188 1404.594 7580.5 1404.594ZM7580.5 1404.594" fill-rule="evenodd"/>
<path d="M8664.734 1260.656C8520.863 1260.656 8416.23 1352.801 8416.23 1500.672 8416.23 1639.539 8508.324 1727.156 8633.902 1739.23 8661.996 1822.617 8748.918 1913.195 8913.234 1913.195V1740.684C8829.793 1741.031 8778.574 1737.133 8746.434 1730.242 8846.543 1702.906 8913.234 1622.797 8913.234 1500.672 8913.234 1347.703 8808.605 1260.656 8664.734 1260.656ZM8664.734 1404.594C8705.047 1404.598 8725.727 1434.344 8725.727 1500.672 8725.727 1566.996 8705.047 1596.746 8664.734 1596.746 8624.418 1596.746 8603.738 1562.918 8603.738 1500.672 8603.738 1438.422 8624.418 1404.594 8664.734 1404.594ZM8664.734 1404.594" fill-rule="evenodd"/>
<path d="M11761.84 1260.656 11927.688 1740.688H12225.258L12291.914 1547.754 12358.57 1740.688H12656.141L12821.988 1260.656H12623.609L12507.359 1597.137 12391.105 1260.656H12192.723 12192.727L12076.473 1597.137 11960.223 1260.656ZM11761.84 1260.656" fill-rule="evenodd"/>
<path d="M1495.043 1260.656C1351.172 1260.656 1246.539 1352.801 1246.539 1500.672 1246.539 1648.539 1351.168 1740.688 1495.043 1740.688 1619.449 1740.688 1714.512 1675.598 1737.961 1559.086L1555.531 1517.73C1552.145 1572.121 1531.719 1596.746 1495.043 1596.746 1454.727 1596.746 1434.047 1562.918 1434.047 1500.672 1434.047 1438.422 1454.727 1404.594 1495.043 1404.594 1531.719 1404.594 1552.145 1429.219 1555.531 1483.609L1737.957 1442.258C1714.512 1325.742 1619.449 1260.656 1495.043 1260.656ZM1495.043 1260.656" fill-rule="evenodd"/>
<path d="M3542.34 1260.656C3398.469 1260.656 3293.836 1352.801 3293.836 1500.672 3293.836 1648.539 3398.465 1740.688 3542.34 1740.688 3656.129 1740.688 3677.609 1656.777 3754.98 1740.684L3811.234 1740.688V1500.672H3547.984V1556.926H3595.859C3586.555 1584.102 3568.617 1596.746 3542.34 1596.746 3502.023 1596.746 3481.344 1562.918 3481.344 1500.672 3481.344 1438.422 3502.023 1404.594 3542.34 1404.594 3579.016 1404.598 3599.441 1429.219 3602.828 1483.609L3785.254 1442.258C3761.809 1325.742 3666.746 1260.656 3542.34 1260.656ZM3542.34 1260.656" fill-rule="evenodd"/>
<path d="M8978.453 1260.656V1740.688H9165.957V1584.93H9188.633V1634.68C9188.633 1705.766 9244.883 1740.688 9314.898 1740.688H9441.164V1596.746H9255.93C9246.043 1596.746 9244.883 1591.457 9244.883 1584.93H9273.879C9489.391 1584.93 9488.672 1260.656 9273.879 1260.656ZM9165.957 1433.172H9201.145C9273.117 1433.172 9274.141 1528.676 9201.242 1528.676H9165.957ZM9165.957 1433.172" fill-rule="evenodd"/>
<path d="M9743.367 1260.656C9627.637 1260.656 9506.383 1316.633 9506.383 1420.57 9514.25 1545.113 9645.199 1540.492 9739 1539.734 9768.246 1540.414 9784.008 1555.824 9784.188 1570.453 9784.355 1583.934 9771.293 1596.746 9743.367 1596.746 9706.277 1596.746 9676.512 1576.648 9668.305 1549.391L9506.383 1580.773C9506.383 1657.242 9627.637 1740.688 9743.367 1740.688 9859.828 1740.688 9980.926 1693.805 9980.926 1580.773 9980.926 1456.789 9840.152 1472.777 9748.578 1465.344 9720.301 1465.344 9706.285 1449.859 9705.883 1434.523 9705.484 1419.488 9718.184 1404.594 9743.367 1404.594 9775.672 1404.594 9801.273 1417.246 9823.273 1458.359L9976.336 1390.973C9935.27 1306.98 9859.828 1260.656 9743.367 1260.656ZM9743.367 1260.656" fill-rule="evenodd"/>
<path d="M10046.148 1260.656V1433.172H10149.277V1740.688H10336.785V1433.172H10439.914V1260.656ZM10046.148 1260.656" fill-rule="evenodd"/>
<path d="M10505.133 1260.656V1544.789C10505.133 1685.516 10618.945 1740.688 10753.637 1740.688 10888.328 1740.688 11002.137 1686.531 11002.137 1544.789V1260.656H10814.633V1514.172C10814.633 1575.906 10788.852 1596.746 10753.641 1596.746 10718.43 1596.746 10692.645 1571.828 10692.645 1514.172V1260.656ZM10505.133 1260.656" fill-rule="evenodd"/>
<path d="M12887.211 1260.656 13028.828 1500.672 12887.211 1740.688H13104.922L13137.684 1685.16 13170.449 1740.688H13388.16L13246.539 1500.672 13388.16 1260.656H13170.449L13137.684 1316.184 13104.922 1260.656ZM12887.211 1260.656" fill-rule="evenodd"/>
<path d="M13453.379 1260.656 13610.105 1526.27V1740.688H13797.609V1526.27L13954.332 1260.656H13736.617L13703.855 1316.184 13671.094 1260.656ZM13453.379 1260.656" fill-rule="evenodd"/>
<path d="M14019.551 1260.656V1433.172H14162.73L14019.551 1544.984V1740.688H14413.32V1568.172H14270.145L14413.32 1456.355V1260.656ZM14019.551 1260.656" fill-rule="evenodd"/>
<path d="M149.25 2262.645 80.254 2742.676H137.074L151.082 2645.207H214.738L228.75 2742.676H285.57L216.57 2262.645ZM182.91 2423.766 206.652 2588.945H159.168ZM182.91 2423.766" fill-rule="evenodd"/>
<path d="M7759.078 2262.645 7828.074 2742.676H7895.395L7964.391 2262.645H7907.574L7861.734 2581.555 7815.895 2262.645ZM7759.078 2262.645" fill-rule="evenodd"/>
<path d="M8134.754 2262.645 8203.75 2742.676H8271.07L8311.656 2460.293 8352.246 2742.676H8419.566L8488.562 2262.645H8431.742L8385.906 2581.555 8340.066 2262.645H8283.246L8237.41 2581.555 8191.57 2262.645ZM8134.754 2262.645" fill-rule="evenodd"/>
<path d="M8658.926 2262.645 8740.355 2502.656 8658.926 2742.676H8714.367L8768.078 2584.363 8821.789 2742.676H8877.23L8795.797 2502.656 8877.227 2262.645H8821.785L8768.078 2420.953 8714.367 2262.645ZM8658.926 2262.645" fill-rule="evenodd"/>
<path d="M9047.59 2262.645 9128.613 2501.461V2742.676H9184.863V2501.465L9265.891 2262.645H9210.449L9156.738 2420.953 9103.031 2262.645ZM9047.59 2262.645" fill-rule="evenodd"/>
<path d="M6000.719 2262.645C5890.617 2267.703 5894.109 2424.109 5893.602 2502.656 5893.602 2575.379 5893.754 2718.898 5978.383 2740.047 5987.555 2765.91 6011.035 2807.062 6090.293 2807.062V2754.559C6075.938 2754.559 6047.906 2753.922 6034.883 2736.172 6107.809 2705.449 6107.832 2573.418 6107.832 2502.656 6106.621 2423.844 6111.684 2267.699 6000.719 2262.645ZM6000.719 2315.152C6041.715 2315.152 6055.328 2385.844 6055.328 2502.656 6055.328 2635.383 6039.055 2689.078 6000.719 2690.168 5957.633 2690.008 5946.105 2614.074 5946.105 2502.656 5946.105 2389.07 5959.523 2315.152 6000.719 2315.152ZM6000.719 2315.152" fill-rule="evenodd"/>
<path d="M64.215 6051.969V6531.996H251.723V6376.242H274.395V6425.992C274.395 6497.078 330.648 6531.996 400.66 6531.996H776.004V6051.969H588.5V6388.059H341.695C331.809 6388.059 330.645 6382.766 330.645 6376.242H359.641C575.152 6376.242 574.434 6051.969 359.641 6051.969ZM251.723 6224.48H286.906C358.879 6224.48 359.902 6319.984 287.004 6319.984H251.719ZM251.723 6224.48" fill-rule="evenodd"/>
<path d="M3345.383 20.258V500.285H3532.887V288.398H3648.477V500.285H3835.98V20.258H3648.477V232.145H3532.887V20.258ZM3345.383 20.258" fill="#281845" fill-rule="evenodd"/>
<path d="M3925.984 20.258V500.285H4113.488V288.398H4229.078V500.285H4416.582V20.258H4229.078V232.145H4113.488V20.258ZM3925.984 20.258" fill="#281845" fill-rule="evenodd"/>
<path d="M4732.586 20.258C4588.715 20.254 4484.086 112.402 4484.086 260.27 4484.086 408.141 4588.715 500.289 4732.586 500.285 4876.461 500.285 4981.09 413.238 4981.09 260.27 4981.086 107.305 4876.457 20.258 4732.586 20.258ZM4732.586 164.195C4772.902 164.195 4793.582 193.941 4793.582 260.27 4793.582 326.598 4772.902 356.344 4732.586 356.348 4692.273 356.348 4671.594 322.516 4671.594 260.27 4671.594 198.023 4692.273 164.195 4732.586 164.195ZM4732.586 164.195" fill="#281845" fill-rule="evenodd"/>
<path d="M5274.594 20.258C5130.723 20.254 5026.09 112.402 5026.09 260.27 5026.09 408.141 5130.723 500.289 5274.594 500.285 5418.465 500.285 5523.094 413.238 5523.094 260.27 5523.094 107.305 5418.465 20.258 5274.594 20.258ZM5274.594 164.195C5314.906 164.195 5335.586 193.941 5335.586 260.27 5335.586 326.598 5314.906 356.344 5274.594 356.348 5234.277 356.348 5213.598 322.516 5213.598 260.27 5213.598 198.023 5234.277 164.195 5274.594 164.195ZM5274.594 164.195" fill="#281845" fill-rule="evenodd"/>
<path d="M6176.312 0H6221.316V528.379H6176.312Z" fill="#250657" fill-rule="evenodd"/>
<path d="M6221.316 0H6266.316V528.379H6221.316Z" fill="#250657" fill-rule="evenodd"/>
<path d="M6596.609 0H6641.613V528.379H6596.609Z" fill="#250657" fill-rule="evenodd"/>
<path d="M6641.613 0H6664.113V528.379H6641.613Z" fill="#6f42c1" fill-rule="evenodd"/>
<path d="M1065.141 6051.965V6531.996H1252.645V6376.238H1275.32V6425.988C1275.32 6497.078 1331.574 6531.996 1401.586 6531.996H1681.75L1711.555 6445.738H1884.453L1914.254 6531.996H2112.637L1946.789 6051.965H1649.219L1533.102 6388.055H1342.621C1332.73 6388.055 1331.57 6382.766 1331.57 6376.238H1360.562C1576.078 6376.238 1575.359 6051.965 1360.562 6051.965ZM1798.004 6195.516 1865.016 6389.484H1730.992ZM1252.645 6224.48H1287.832C1359.801 6224.48 1360.828 6319.984 1287.93 6319.984H1252.645ZM1252.645 6224.48" fill-rule="evenodd"/>
<path d="M4074.043 6051.965 3967.797 6359.48H3876.066V6051.965H3688.562V6531.996H4106.574L4136.379 6445.738H4309.273L4339.078 6531.996H4537.461L4371.613 6051.965ZM4222.828 6195.516 4289.84 6389.48H4155.812ZM4222.828 6195.516" fill-rule="evenodd"/>
<path d="M2936.008 6051.965 2829.762 6359.48H2589.277V6320.109H2742.863V6263.855H2589.277V6224.484H2795.539V6051.969H2401.773V6532L2770.16 6531.996H2968.539L2998.344 6445.738H3171.238L3201.043 6531.996H3399.426L3233.578 6051.965ZM3084.793 6195.516 3151.805 6389.48H3017.777ZM3084.793 6195.516" fill-rule="evenodd"/>
<path d="M5360.832 6051.965 5254.586 6359.484H5077.188L5220.363 6247.668V6051.969H4826.598V6224.484H4969.777L4826.598 6336.297V6532H5220.363L5220.367 6531.996H5393.363L5423.168 6445.738H5596.062L5625.867 6531.996H5824.25L5658.402 6051.965ZM5509.617 6195.516 5576.629 6389.48H5442.602ZM5509.617 6195.516" fill-rule="evenodd"/>
<path d="M6188.547 6051.965C6078.613 6056.883 6081.652 6215.242 6081.434 6291.984 6081.434 6370.742 6104.934 6531.996 6212.898 6531.996 6274.531 6531.996 6314.664 6493.582 6342.355 6434.527H6429.016L6443.023 6531.996H6499.844L6430.844 6051.965H6363.527L6341.023 6208.52C6306.203 6450.785 6255.211 6479.488 6213.684 6479.488 6163.082 6479.488 6133.938 6403.141 6133.938 6291.984 6133.938 6177.75 6147.125 6104.473 6188.547 6104.473 6233.625 6105.531 6241.148 6181.055 6241.148 6220.473L6293.527 6216.805C6293.527 6121.77 6259.023 6051.965 6188.547 6051.965ZM6397.184 6213.09 6420.926 6378.27H6363.562C6378.633 6328.891 6388.758 6271.711 6397.184 6213.09ZM6397.184 6213.09" fill-rule="evenodd"/>
<path d="M6796.039 0H6818.539V528.379H6796.039Z" fill="#6f42c1" fill-rule="evenodd"/>
<path d="M6818.539 0H6841.039V528.379H6818.539Z" fill="#6f42c1" fill-rule="evenodd"/>
<path d="M6642.375 6051.965V6531.996H7008.992L6939.996 6051.965H6872.676L6817.688 6434.527H6874.504L6906.332 6213.09 6944.086 6475.742H6698.625V6320.113H6772.684V6263.855H6698.625V6108.223H6792.574V6051.965ZM6642.375 6051.965" fill-rule="evenodd"/>
<path d="M7121.129 6051.965V6531.996H7436.188L7367.191 6051.965H7299.871L7244.883 6434.527H7301.703L7333.531 6213.09 7365.359 6434.527 7371.281 6475.742H7177.383V6051.965ZM7121.129 6051.965" fill-rule="evenodd"/>
<path d="M599.512 3168.344V3366.109H652.016V3648.371H839.523V3168.344ZM599.512 3168.344" fill-rule="evenodd"/>
<path d="M273.164 3168.34C129.293 3168.34 24.66 3260.488 24.66 3408.355 24.66 3556.227 129.293 3648.371 273.164 3648.371 417.035 3648.371 521.664 3561.324 521.664 3408.355 521.664 3255.391 417.035 3168.34 273.164 3168.34ZM273.164 3312.281C313.477 3312.281 334.156 3342.027 334.156 3408.355 334.156 3474.684 313.477 3504.43 273.164 3504.434 232.852 3504.434 212.168 3470.602 212.168 3408.355 212.168 3346.109 232.852 3312.281 273.164 3312.281ZM273.164 3312.281" fill-rule="evenodd"/>
<path d="M1150.34 3168.344C1033.875 3168.344 958.438 3214.664 917.371 3298.66L1070.43 3366.047C1092.43 3324.93 1118.035 3312.281 1150.34 3312.281 1175.52 3312.281 1188.219 3327.172 1187.824 3342.211 1185.816 3418.418 929.855 3389.316 929.855 3563.996V3648.371H1384.223V3475.855L1074.664 3492.43C1163.461 3447.242 1387.32 3460.457 1387.32 3328.254 1387.32 3224.32 1266.07 3168.34 1150.34 3168.344ZM1150.34 3168.344" fill-rule="evenodd"/>
<path d="M1465.168 3168.34V3340.855H1638.387C1649.605 3340.855 1658.695 3349.672 1658.695 3360.543 1658.699 3371.348 1649.711 3380.133 1638.574 3380.23H1576.066V3436.484H1670.121C1681.301 3436.539 1690.336 3445.336 1690.332 3456.172 1690.332 3466.961 1681.383 3475.723 1670.285 3475.855H1465.168V3648.371H1721.832C1798.227 3648.371 1860.156 3588.344 1860.156 3514.301 1860.156 3463.664 1831.199 3419.586 1788.457 3396.773 1813.227 3372.547 1828.52 3339.211 1828.52 3302.41 1828.52 3228.363 1766.59 3168.34 1690.195 3168.34ZM1465.168 3168.34" fill-rule="evenodd"/>
<path d="M2076.293 3168.344 1938.004 3550.363V3606.617H2162.547V3648.371H2350.055V3606.617H2373.969V3550.363H2350.055V3168.344ZM2162.547 3406.617V3550.363H2110.512ZM2162.547 3406.617" fill-rule="evenodd"/>
<path d="M2681.473 3648.371C2565.012 3648.371 2477.969 3592.934 2451.82 3504.797L2625.004 3450.668C2632.352 3485.922 2649.168 3504.434 2681.473 3504.434 2732.648 3504.434 2727.805 3446.074 2691.109 3423.066 2670.395 3410.082 2567.336 3401.535 2507.301 3401.535L2527.648 3168.344H2893.09V3324.281H2566.797L2567.035 3346.77C2676.031 3346.77 2918.457 3323.918 2918.457 3488.457 2918.457 3592.395 2797.203 3648.371 2681.473 3648.371ZM2681.473 3648.371" fill-rule="evenodd"/>
<path d="M3244.805 3168.344C3100.938 3168.34 2996.305 3260.488 2996.305 3408.355 2996.305 3554.008 3097.82 3645.598 3238.355 3648.312V3648.375C3354.082 3648.375 3475.328 3592.391 3475.328 3488.461 3475.328 3350.246 3306.902 3357.902 3188.406 3363.887 3196.551 3330.18 3215.484 3312.281 3244.805 3312.281 3267.758 3312.281 3284.344 3321.922 3294.375 3342.465L3444.32 3253.984C3400.133 3198.312 3329.227 3168.344 3244.805 3168.344ZM3183.84 3412.387C3213.285 3413.738 3237.816 3416.691 3247.992 3423.07 3265.93 3434.316 3276.262 3454.012 3276.148 3471.207 3276.035 3489.188 3264.512 3504.434 3238.355 3504.434V3504.129C3203.125 3500.719 3184.676 3468.719 3183.84 3412.387ZM3183.84 3412.387" fill-rule="evenodd"/>
<path d="M4710.309 3648.371C4854.176 3648.375 4958.809 3556.227 4958.809 3408.359 4958.809 3262.707 4857.293 3171.121 4716.758 3168.402V3168.34C4601.031 3168.34 4511.273 3216.867 4511.273 3328.254 4511.273 3466.469 4648.207 3458.812 4766.707 3452.828 4758.562 3486.539 4739.625 3504.434 4710.309 3504.434 4687.355 3504.434 4670.77 3494.793 4660.738 3474.25L4510.793 3562.73C4554.98 3618.402 4625.887 3648.371 4710.309 3648.371ZM4771.27 3404.328C4741.828 3402.977 4717.293 3400.023 4707.121 3393.645 4689.184 3382.398 4678.848 3362.703 4678.961 3345.508 4679.078 3327.527 4690.598 3312.281 4716.758 3312.281V3312.586C4751.992 3315.996 4770.438 3347.996 4771.27 3404.328ZM4771.27 3404.328" fill-rule="evenodd"/>
<path d="M3553.176 3168.344V3340.855H3728.324L3650.426 3648.371H3837.93L3915.828 3267.227V3168.344ZM3553.176 3168.344" fill-rule="evenodd"/>
<path d="M4213.309 3168.34C4092.008 3168.34 3993.676 3202.582 3993.676 3302.414 3993.676 3353.508 4019.434 3387.422 4060.852 3408.359 4019.434 3429.293 3993.676 3463.207 3993.676 3514.305 3993.676 3614.133 4092.008 3648.379 4213.309 3648.379 4334.613 3648.379 4432.945 3607.109 4432.945 3514.305 4432.945 3464.898 4405.078 3430.102 4360.719 3408.359 4405.078 3386.613 4432.945 3351.816 4432.945 3302.414 4432.945 3209.609 4334.613 3168.34 4213.309 3168.34ZM4213.309 3324.281C4231.051 3324.281 4245.438 3336.809 4245.438 3352.254 4245.438 3367.707 4231.051 3380.23 4213.309 3380.23 4195.566 3380.23 4181.184 3367.707 4181.184 3352.254 4181.184 3336.809 4195.566 3324.281 4213.309 3324.281ZM4213.309 3436.484C4231.051 3436.484 4245.438 3449.012 4245.438 3464.461 4245.438 3479.91 4231.051 3492.434 4213.309 3492.434 4195.566 3492.434 4181.184 3479.91 4181.184 3464.461 4181.184 3449.012 4195.566 3436.484 4213.309 3436.484ZM4213.309 3436.484" fill-rule="evenodd"/>
<path d="M220.301 4467.309 287.816 4190.832H100.309L167.824 4467.309ZM220.301 4467.309"/>
<path d="M287.816 4577.066C287.816 4628.848 245.84 4670.824 194.062 4670.824 142.281 4670.824 100.309 4628.848 100.309 4577.066 100.309 4525.285 142.281 4483.309 194.062 4483.309 245.84 4483.309 287.816 4525.285 287.816 4577.066ZM287.816 4577.066"/>
<path d="M628.273 4190.832C576.496 4190.832 534.52 4232.809 534.52 4284.59 534.52 4336.371 576.496 4378.348 628.273 4378.348 630.734 4378.348 633.172 4378.254 635.586 4378.066 618.336 4398.145 597.742 4411.156 585.285 4417.383L608.754 4464.32C627.008 4455.195 654.535 4437.832 678.43 4408.641 702.324 4379.449 722.027 4337.77 722.027 4284.594 722.027 4232.812 680.051 4190.836 628.273 4190.836ZM847.777 4190.832C796 4190.832 754.023 4232.809 754.023 4284.59 754.023 4336.371 796 4378.348 847.777 4378.348 850.238 4378.348 852.68 4378.254 855.09 4378.066 837.84 4398.145 817.246 4411.156 804.793 4417.383L828.266 4464.32C846.516 4455.195 874.039 4437.832 897.934 4408.641 921.734 4379.562 941.379 4338.094 941.531 4285.215 941.531 4285.008 941.531 4284.797 941.531 4284.59 941.531 4232.809 899.559 4190.832 847.777 4190.832ZM847.777 4190.832"/>
<path d="M1128.254 4190.832 1103.223 4308.59H1062.285V4361.07H1092.07L1062.414 4500.586H1021.48V4553.066H1051.262L1026.234 4670.824H1213.742L1238.77 4553.066H1273.25L1248.223 4670.824H1435.73L1460.758 4553.066H1503.199V4500.586H1471.914L1501.566 4361.07H1544.004V4308.59H1512.723L1537.75 4190.832H1350.242L1325.211 4308.59H1290.73L1315.762 4190.832ZM1279.578 4361.07H1314.059L1284.406 4500.586H1249.922ZM1279.578 4361.07"/>
<path d="M1862.699 4115.219V4191.723C1755.496 4199.414 1651.664 4254.527 1651.664 4350.707 1658.941 4465.945 1771.598 4470.602 1862.699 4470.051V4523.395C1838.16 4516.508 1819.766 4500.047 1813.586 4479.527L1651.664 4510.91C1651.664 4581.672 1755.496 4658.41 1862.699 4669.469V4746.438H1915.172V4670.004C2022.781 4663.328 2126.207 4615.367 2126.207 4510.91 2126.207 4396.207 2005.719 4401.305 1915.172 4396.824V4338.32C1935.52 4344.48 1952.945 4359.32 1968.555 4388.496L2121.613 4321.109C2083.754 4243.672 2016.676 4198.254 1915.172 4191.637V4115.219ZM1862.699 4342.129V4386.332C1855.188 4380.492 1851.371 4372.555 1851.164 4364.66 1850.941 4356.242 1854.82 4347.871 1862.699 4342.129ZM1915.172 4478.188C1924.484 4484.137 1929.371 4492.484 1929.473 4500.59 1929.57 4508.664 1924.922 4516.504 1915.172 4521.488ZM1915.172 4478.188"/>
<path d="M4707.543 4302.832V4396.574H4613.801V4449.078H4707.543V4542.824H4760.047V4449.078H4853.781V4396.574H4760.047V4302.832ZM4707.543 4302.832"/>
<path d="M2339.074 4190.789C2275.566 4190.789 2229.383 4231.465 2229.383 4296.734 2229.383 4362.004 2275.566 4402.68 2339.074 4402.68 2402.578 4402.68 2448.762 4364.254 2448.762 4296.734 2448.762 4229.211 2402.578 4190.789 2339.074 4190.789ZM2614.062 4190.789 2229.383 4670.824H2296.664L2681.34 4190.789ZM2339.074 4254.324C2356.867 4254.324 2365.996 4267.457 2365.996 4296.734 2365.996 4326.012 2356.867 4339.141 2339.074 4339.141 2321.277 4339.141 2312.148 4324.211 2312.148 4296.734 2312.148 4269.258 2321.277 4254.324 2339.074 4254.324ZM2571.652 4458.934C2508.148 4458.934 2461.961 4499.609 2461.961 4564.879 2461.961 4630.148 2508.145 4670.824 2571.652 4670.824 2635.156 4670.824 2681.34 4632.398 2681.34 4564.879 2681.34 4497.359 2635.156 4458.934 2571.652 4458.934ZM2571.652 4522.469C2589.445 4522.473 2598.574 4535.602 2598.574 4564.879 2598.574 4594.156 2589.445 4607.289 2571.652 4607.289 2553.855 4607.289 2544.727 4592.355 2544.727 4564.879 2544.727 4537.402 2553.855 4522.469 2571.652 4522.469ZM2571.652 4522.469" fill-rule="evenodd"/>
<path d="M2944.258 4190.793C2867.867 4190.793 2805.934 4250.816 2805.934 4324.859 2805.934 4361.66 2821.23 4395 2846 4419.227 2803.254 4442.039 2774.297 4486.117 2774.297 4536.754 2774.297 4610.797 2842.031 4670.82 2939.141 4670.82 3019.613 4670.82 3066.836 4655.375 3107.094 4618.133L3152.395 4670.824 3188.188 4637.637 3140.352 4580.93C3150.574 4567.586 3160.836 4552.57 3171.625 4535.766L3138.344 4506.598C3127.219 4519.965 3115.84 4530.406 3104.422 4538.34L2975.949 4386.039C2975.824 4385.039 2975.754 4384.027 2975.754 4382.996 2975.754 4372.125 2984.848 4363.309 2996.066 4363.309H3108.34V4190.793ZM2966.312 4461.848C2969.965 4462.016 2973.383 4463.184 2975.93 4465.57 2975.934 4465.574 2975.93 4465.57 2975.93 4465.57L2977.648 4467.57 3055.633 4558.277C3020.426 4563.395 2988.094 4549.273 2965.777 4529.559 2946.211 4512.266 2931.203 4469.77 2959.613 4462.559 2961.836 4461.992 2964.113 4461.738 2966.305 4461.84ZM2966.312 4461.848" fill-rule="evenodd"/>
<path d="M3379.48 4190.832C3327.699 4190.832 3285.727 4232.809 3285.727 4284.59 3285.727 4336.371 3327.699 4378.348 3379.48 4378.348 3381.938 4378.348 3384.379 4378.254 3386.793 4378.066 3369.539 4398.145 3348.949 4411.156 3336.492 4417.383L3359.957 4464.32C3378.211 4455.195 3405.742 4437.832 3429.637 4408.641 3453.531 4379.449 3473.234 4337.77 3473.234 4284.594 3473.234 4232.812 3431.258 4190.836 3379.48 4190.836ZM3379.48 4190.832"/>
<path d="M3820.645 4120.492C3687.602 4125.105 3587.723 4202.059 3587.723 4430.828 3587.723 4659.598 3687.602 4736.551 3820.645 4741.164V4693.934C3789.73 4693.934 3775.285 4630.93 3775.285 4430.828 3775.285 4230.727 3789.73 4167.723 3820.645 4167.723ZM3820.645 4120.492" fill-rule="evenodd"/>
<path d="M3962.285 4741.164C4095.328 4736.551 4195.203 4659.598 4195.203 4430.828 4195.203 4202.059 4095.328 4125.105 3962.285 4120.492V4167.723C3993.195 4167.723 4007.641 4230.727 4007.641 4430.828 4007.641 4630.93 3993.195 4693.934 3962.285 4693.934ZM3962.285 4741.164" fill-rule="evenodd"/>
<path d="M5223.703 4396.574H5463.687V4449.078H5223.703Z"/>
<path d="M5020.695 4483.309C4968.914 4483.309 4926.941 4525.285 4926.941 4577.066 4926.941 4628.848 4968.914 4670.824 5020.695 4670.824 5023.156 4670.824 5025.594 4670.73 5028.004 4670.543 5010.754 4690.617 4990.164 4703.629 4977.707 4709.859L5001.172 4756.797C5019.426 4747.668 5046.953 4730.305 5070.848 4701.113 5094.742 4671.922 5114.449 4630.246 5114.449 4577.066 5114.449 4525.285 5072.473 4483.309 5020.695 4483.309ZM5020.695 4483.309"/>
<path d="M5761.297 4577.066C5761.297 4628.848 5719.32 4670.824 5667.543 4670.824 5615.762 4670.824 5573.789 4628.848 5573.789 4577.066 5573.789 4525.285 5615.762 4483.309 5667.543 4483.309 5719.32 4483.309 5761.297 4525.285 5761.297 4577.066ZM5761.297 4577.066"/>
<path d="M6261.09 4190.789 5876.414 4670.824H5943.695L6328.371 4190.789ZM6261.09 4190.789" fill-rule="evenodd"/>
<path d="M6577.379 4577.066C6577.379 4628.848 6535.402 4670.824 6483.625 4670.824 6431.848 4670.824 6389.871 4628.848 6389.871 4577.066 6389.871 4525.285 6431.848 4483.309 6483.625 4483.309 6535.402 4483.309 6577.379 4525.285 6577.379 4577.066ZM6577.379 4577.066"/>
<path d="M6577.379 4365.18C6577.379 4416.957 6535.402 4458.938 6483.625 4458.938 6431.848 4458.938 6389.871 4416.957 6389.871 4365.18 6389.871 4313.398 6431.848 4271.418 6483.625 4271.418 6535.402 4271.418 6577.379 4313.398 6577.379 4365.18ZM6577.379 4365.18"/>
<path d="M6775.969 4483.309C6724.191 4483.309 6682.215 4525.285 6682.215 4577.066 6682.215 4628.848 6724.191 4670.824 6775.969 4670.824 6778.43 4670.824 6780.867 4670.73 6783.281 4670.543 6766.031 4690.617 6745.441 4703.629 6732.984 4709.859L6756.449 4756.797C6774.703 4747.668 6802.23 4730.305 6826.125 4701.113 6850.02 4671.922 6869.723 4630.246 6869.723 4577.066 6869.723 4525.285 6827.746 4483.309 6775.969 4483.309ZM6775.969 4483.309"/>
<path d="M6869.723 4365.18C6869.723 4416.957 6827.746 4458.938 6775.969 4458.938 6724.191 4458.938 6682.215 4416.957 6682.215 4365.18 6682.215 4313.398 6724.191 4271.418 6775.969 4271.418 6827.746 4271.418 6869.723 4313.398 6869.723 4365.18ZM6869.723 4365.18"/>
<path d="M7267.777 4288.074 7059.941 4408.074V4453.543L7267.777 4573.539 7294.027 4528.07 7125.574 4430.809 7294.027 4333.547ZM7267.777 4288.074"/>
<path d="M7614.98 4288.074 7822.816 4408.074V4453.543L7614.98 4573.539 7588.73 4528.07 7757.184 4430.809 7588.73 4333.547ZM7614.98 4288.074"/>
<path d="M7325.992 4350.176V4402.68H7565.977V4350.176ZM7325.992 4458.934V4511.438H7565.977V4458.934ZM7325.992 4458.934"/>
<path d="M8169.625 4190.793C8053.168 4190.793 7977.723 4237.117 7936.66 4321.109L8089.719 4388.496C8111.719 4347.383 8137.324 4334.73 8169.625 4334.73 8194.812 4334.73 8207.508 4349.625 8207.113 4364.66 8205.871 4411.703 8136.812 4419.5 8136.812 4458.938H8190.512C8190.512 4417.008 8398.746 4442.43 8406.609 4317.883 8406.609 4213.949 8285.355 4190.793 8169.625 4190.793ZM8169.684 4483.309C8117.902 4483.309 8075.93 4525.285 8075.93 4577.066 8075.93 4628.848 8117.902 4670.824 8169.684 4670.824 8221.461 4670.824 8263.438 4628.848 8263.438 4577.066 8263.438 4525.285 8221.461 4483.309 8169.684 4483.309ZM8169.684 4483.309" fill-rule="evenodd"/>
<path d="M8764.152 4190.793C8693.855 4190.793 8627.855 4206.719 8578.156 4246.008 8528.461 4285.293 8497.895 4348.223 8497.895 4430.805 8497.895 4513.391 8528.461 4576.324 8578.156 4615.609 8627.855 4654.895 8693.855 4670.824 8764.152 4670.824 8789.789 4670.824 8814.762 4668.625 8838.613 4663.953L8828.516 4612.426C8808.418 4616.367 8786.781 4618.316 8764.152 4618.316 8701.895 4618.316 8647.887 4603.797 8610.719 4574.418 8573.555 4545.035 8550.395 4501.086 8550.395 4430.805 8550.395 4360.523 8573.555 4316.574 8610.719 4287.195 8647.887 4257.816 8701.895 4243.293 8764.152 4243.293 8828.156 4243.293 8883.523 4252.352 8919.812 4275.336 8956.105 4298.32 8977.902 4333.293 8977.902 4402.68 8977.902 4443.062 8968.738 4475.539 8952.883 4496.422 8937.031 4517.309 8915.223 4529.301 8878.234 4529.301V4306.059H8767.16C8692.383 4306.059 8636.68 4353.953 8622.605 4430.805 8608.527 4507.66 8655.012 4555.555 8717.68 4555.555 8744.012 4555.555 8767.422 4539.98 8786.215 4519.207V4581.809H8878.23C8928.184 4581.809 8969.332 4561.598 8994.707 4528.168 9020.078 4494.734 9030.402 4450.773 9030.402 4402.68 9030.402 4320.855 8998.473 4263.012 8947.898 4230.98 8897.324 4198.949 8832.695 4190.793 8764.148 4190.793ZM8760.91 4380.871C8781.863 4380.875 8789.777 4396.332 8783.465 4430.805 8777.152 4465.281 8763.574 4480.742 8742.617 4480.742 8721.664 4480.742 8714.133 4463.16 8720.062 4430.805 8725.988 4398.453 8739.953 4380.871 8760.91 4380.871ZM8760.91 4380.871" fill-rule="evenodd"/>
<path d="M9374.43 4120.492H9141.512V4741.164H9374.43V4693.934H9329.074V4167.723H9374.422ZM9374.43 4120.492" fill-rule="evenodd"/>
<path d="M9884.004 4120.492H10116.926V4741.164H9884.004V4693.934H9929.359V4167.723H9884.016ZM9884.004 4120.492" fill-rule="evenodd"/>
<path d="M9481.543 4190.789 9866.223 4670.824H9798.938L9414.262 4190.789ZM9481.543 4190.789" fill-rule="evenodd"/>
<path d="M4350.145 4190.789V4227.582L4324.129 4201.566 4300.004 4225.691 4326.02 4251.703H4289.23V4285.82H4326.023L4300.008 4311.836 4324.129 4335.961 4350.145 4309.945V4346.734H4384.258V4309.945L4410.27 4335.957 4434.391 4311.836 4408.379 4285.82H4445.164V4251.703H4408.383L4434.395 4225.691 4410.27 4201.566 4384.258 4227.582V4190.789ZM4350.145 4190.789"/>
<path d="M10268.785 4190.789 10172.688 4332.957 10217.383 4360.504 10291.133 4240.824 10364.883 4360.504 10409.578 4332.957 10313.48 4190.789ZM10268.785 4190.789" fill-rule="evenodd"/>
<path d="M10399.246 4670.824H10639.23V4723.328H10399.246Z"/>
<path d="M10695.484 4190.789 10829.699 4346.734H10868.594L10809.203 4190.789ZM10695.484 4190.789" fill-rule="evenodd"/>
<path d="M11220.258 4120.492C11138.582 4120.492 11103.805 4162.684 11103.805 4233.613V4346.734C11103.805 4389.258 11088.5 4407.215 11058.449 4407.215V4454.441C11088.5 4454.441 11103.805 4472.395 11103.805 4514.922V4628.043C11103.805 4698.973 11138.582 4741.164 11220.258 4741.164H11336.727V4693.934C11315.426 4693.934 11291.047 4683.691 11291.379 4654.086V4514.922C11291.379 4482.34 11277.965 4451.172 11251.566 4430.828 11277.965 4410.48 11291.379 4379.316 11291.379 4346.734V4207.57C11291.047 4177.965 11315.426 4167.723 11336.727 4167.723V4120.492ZM11220.258 4120.492" fill-rule="evenodd"/>
<path d="M11717.691 4120.492C11799.367 4120.492 11834.145 4162.684 11834.145 4233.613V4346.734C11834.145 4389.258 11849.449 4407.215 11879.5 4407.215V4454.441C11849.449 4454.441 11834.145 4472.395 11834.145 4514.922V4628.043C11834.145 4698.973 11799.367 4741.164 11717.691 4741.164H11601.223V4693.934C11622.523 4693.934 11646.902 4683.691 11646.566 4654.086V4514.922C11646.566 4482.34 11659.984 4451.172 11686.383 4430.828 11659.984 4410.48 11646.566 4379.316 11646.566 4346.734V4207.57C11646.902 4177.965 11622.523 4167.723 11601.223 4167.723V4120.492ZM11717.691 4120.492" fill-rule="evenodd"/>
<path transform="matrix(.999957,0,0,1,0,0)" stroke-width="52.5044" stroke-linecap="butt" stroke-linejoin="round" fill="none" stroke="#281845" d="M11479.568 4115.219V4746.438"/>
<path transform="matrix(.999957,0,0,1,0,0)" stroke-width="52.5044" stroke-linecap="butt" stroke-linejoin="round" fill="none" stroke="#281845" d="M12117.142 4115.219V4746.438"/>
<path d="M12420.871 4190.793 12577.594 4456.406V4458.938H12511.578V4511.441H12577.594V4545.195H12511.578V4597.699H12577.594V4670.824H12765.098V4597.699H12831.117V4545.195H12765.098V4511.441H12831.117V4458.938H12765.098V4456.406L12921.824 4190.793H12704.109L12671.344 4246.316 12638.582 4190.793ZM12420.871 4190.793"/>
<path d="M15541.188 4190.793C15421.391 4190.793 15328.797 4254.68 15301.164 4361.43H15249.777V4413.934H15293.148C15292.84 4419.473 15292.684 4425.098 15292.684 4430.809 15292.684 4436.516 15292.852 4442.145 15293.148 4447.684H15249.777V4500.191H15301.164C15328.801 4606.938 15421.391 4670.824 15541.188 4670.824 15665.594 4670.824 15760.656 4605.734 15784.105 4489.223L15601.676 4447.867C15598.289 4502.258 15577.863 4526.883 15541.188 4526.883 15520.219 4526.883 15504.562 4517.73 15494.363 4500.191H15541.188V4447.684H15480.742C15480.375 4442.316 15480.191 4436.688 15480.191 4430.809 15480.191 4424.926 15480.391 4419.301 15480.742 4413.934H15541.188V4361.43H15494.363C15504.562 4343.883 15520.219 4334.73 15541.188 4334.73 15577.863 4334.734 15598.289 4359.355 15601.676 4413.746L15784.105 4372.395C15760.656 4255.879 15665.594 4190.793 15541.188 4190.793ZM15541.188 4190.793" fill-rule="evenodd"/>
<path d="M13234.969 4284.547C13234.969 4336.328 13192.992 4378.309 13141.215 4378.309 13089.434 4378.309 13047.461 4336.328 13047.461 4284.547 13047.461 4232.766 13089.434 4190.789 13141.215 4190.789 13192.992 4190.789 13234.969 4232.766 13234.969 4284.547ZM13234.969 4284.547"/>
<path d="M13453.738 4284.547C13453.738 4336.328 13411.762 4378.309 13359.984 4378.309 13308.203 4378.309 13266.23 4336.328 13266.23 4284.547 13266.23 4232.766 13308.203 4190.789 13359.984 4190.789 13411.762 4190.789 13453.738 4232.766 13453.738 4284.547ZM13453.738 4284.547"/>
<path d="M13774.969 4190.789 13640.754 4346.734H13601.859L13661.25 4190.789ZM13774.969 4190.789" fill-rule="evenodd"/>
<path d="M13953.32 4190.789 13843.16 4346.734H13932.387L13975.664 4240.828 14018.941 4346.734H14108.168L13998.008 4190.789ZM13953.32 4190.789" fill-rule="evenodd"/>
<path d="M14254.961 4346.734 14144.797 4190.789H14234.027L14277.305 4296.695 14320.578 4190.789H14409.809L14299.648 4346.734ZM14254.961 4346.734" fill-rule="evenodd"/>
<path d="M14578.941 4190.793C14560.441 4190.793 14540.719 4195.242 14525.086 4208.914 14509.461 4222.59 14500.977 4244.453 14500.977 4268.762 14500.977 4293.074 14509.461 4314.934 14525.086 4328.605 14540.719 4342.281 14560.441 4346.734 14578.941 4346.734 14597.543 4346.734 14617.281 4342.133 14632.848 4328.445 14648.418 4314.758 14656.914 4292.957 14656.914 4268.762 14656.914 4244.566 14648.418 4222.77 14632.848 4209.082 14617.281 4195.395 14597.543 4190.793 14578.941 4190.793ZM14578.941 4243.293C14588.902 4243.293 14595.035 4245.746 14598.184 4248.516 14601.332 4251.281 14604.414 4255.344 14604.414 4268.762 14604.414 4282.184 14601.332 4286.242 14598.184 4289.012 14595.035 4291.781 14588.902 4294.227 14578.941 4294.227 14568.883 4294.227 14562.746 4291.789 14559.66 4289.09 14556.57 4286.387 14553.48 4282.391 14553.48 4268.762 14553.48 4255.137 14556.57 4251.141 14559.66 4248.438 14562.746 4245.734 14568.883 4243.293 14578.941 4243.293ZM14578.941 4243.293"/>
<path d="M15933.199 4396.574H16173.184V4449.078H15933.199Z"/>
<path d="M14716.16 4301.91 14757.586 4334.172C14797.414 4275.77 14848.805 4284.211 14889.391 4308.82 14925.305 4330.598 14956.777 4339.078 14984.086 4339.078 15092.879 4339.078 15117.617 4262.031 15137.773 4225.762L15092.434 4199.277C15080.891 4220.711 15063.816 4245.988 15030.895 4245.988 14993.523 4245.988 14944.504 4192.125 14880.094 4190.816 14814.34 4189.48 14775.066 4216.012 14716.16 4301.91ZM14716.16 4301.91" fill-rule="evenodd"/>
<path d="M214.875 5181.367 83.258 5661.398H231.602L255.809 5571.164H390.094L414.301 5661.398H562.645L431.027 5181.367ZM322.965 5331.137 374.672 5514.922H271.23ZM322.965 5331.137"/>
<path d="M834.5 5181.367V5661.398H1098.785C1174.332 5661.398 1226.859 5599.062 1227.512 5527 1227.992 5475.375 1202.566 5427.605 1161.859 5403.938 1182.891 5381.113 1196.047 5349.449 1196.047 5312.285 1196.047 5223.469 1130.676 5181.367 1073.156 5181.367ZM975.586 5311.461H1033.668C1054.477 5311.461 1066.637 5329.152 1066.637 5348.598 1066.668 5368.84 1053.711 5388.203 1033.5 5388.258H975.586ZM975.586 5443.199H1062.246C1083.703 5443.227 1096.203 5465.621 1095.582 5488.785 1095.016 5510.895 1082.258 5531.223 1062.016 5531.309H975.586ZM975.586 5443.199"/>
<path d="M1672.316 5181.367C1540.441 5183.098 1473.852 5298.676 1473.797 5421.398 1473.797 5544.828 1541.488 5661.398 1672.316 5661.398 1777.312 5661.398 1851.332 5594.781 1866.496 5485.695L1730.031 5457.715C1727.848 5505.113 1712.484 5549.082 1672.316 5549.789 1630.984 5549.734 1613.578 5500.918 1613.578 5421.398 1613.578 5340.773 1631.605 5292.977 1672.316 5292.977 1711.945 5293.348 1727.82 5335.984 1730.004 5385.082L1866.438 5357.047C1851.301 5248.129 1777.656 5181.367 1672.316 5181.367ZM1672.316 5181.367"/>
<path d="M2766.395 5181.367V5661.398H3074.051V5530.004H2907.48V5449.52H3032.945V5393.25H2907.48V5312.793H3074.051V5181.367ZM2766.395 5181.367"/>
<path d="M3310.156 5181.367V5661.398H3451.246V5449.52H3576.711V5393.25H3451.246V5312.793H3617.816V5181.367ZM3310.156 5181.367"/>
<path d="M4062.648 5181.367C3930.773 5183.098 3864.215 5298.676 3864.129 5421.398 3864.129 5544.828 3931.852 5661.398 4062.648 5661.398 4155.09 5661.398 4167.93 5590.926 4228.707 5661.398H4275.027V5411.449H4064.688V5467.691H4115.914C4109.875 5517.078 4095.332 5549.789 4062.648 5549.789 4021.316 5549.734 4003.91 5500.918 4003.91 5421.398 4003.91 5340.773 4021.941 5292.977 4062.648 5292.977 4102.277 5293.348 4118.152 5335.984 4120.336 5385.082L4256.801 5357.047C4241.633 5248.129 4167.988 5181.367 4062.648 5181.367ZM4062.648 5181.367"/>
<path d="M4532.68 5181.367V5661.398H4673.793V5449.52H4773.379V5661.398H4914.465V5181.367H4773.379V5393.25H4673.793V5181.367ZM4532.68 5181.367"/>
<path d="M5142.098 5181.367H5283.184V5661.3986H5142.098Z"/>
<path d="M5555.012 5181.367V5530.004H5475.637V5661.398H5555.012C5659.328 5661.398 5697.031 5615.957 5696.184 5530.004V5181.367ZM5555.012 5181.367"/>
<path d="M5937.988 5181.367V5661.398H6079.16V5453.008L6203.039 5661.398H6378.793L6233.371 5423.297 6351.578 5181.367H6189.148L6079.16 5407.508V5181.367ZM5937.988 5181.367"/>
<path d="M6644.41 5181.367V5661.398H6951.984V5530.004H6785.582V5181.367ZM6644.41 5181.367"/>
<path d="M7207.113 5181.367V5661.398H7348.285V5551.691L7380.883 5661.398H7503.914L7536.512 5551.691V5661.398H7677.684V5181.367H7536.23L7442.398 5453.859 7348.566 5181.367ZM7207.113 5181.367"/>
<path d="M7943.586 5181.367V5661.398H8084.758V5460.859L8176.602 5661.398H8323.16V5181.367H8181.988V5381.91L8090.426 5181.367ZM7943.586 5181.367"/>
<path d="M8775.871 5181.367C8643.773 5183.156 8577.438 5298.023 8577.438 5421.398 8577.438 5544.773 8644.906 5661.398 8775.871 5661.398 8906.555 5661.398 8974.305 5548.715 8974.305 5421.398 8974.023 5294.621 8907.973 5183.156 8775.871 5181.367ZM8775.871 5292.977C8816.41 5292.977 8834.551 5337.203 8834.551 5421.398 8834.551 5511.18 8815.559 5549.395 8775.871 5549.789 8734.484 5549.734 8717.191 5501.004 8717.191 5421.398 8717.191 5341 8735.336 5292.977 8775.871 5292.977ZM8775.871 5292.977"/>
<path d="M9215.547 5181.367V5661.398H9356.715V5502.988H9444.027C9542.676 5502.988 9591.152 5421.344 9590.02 5340.293 9588.883 5260.547 9540.977 5181.367 9446.012 5181.367ZM9356.715 5311.461H9391.586C9430.988 5311.547 9449.98 5343.977 9451.398 5377.145 9452.816 5412.102 9433.824 5448.074 9391.586 5448.074H9356.715ZM9356.715 5311.461"/>
<path d="M10029.691 5181.367C9897.59 5183.156 9831.258 5298.023 9831.258 5421.398 9831.258 5536.863 9890.785 5644.25 10001.91 5659.531 10023.172 5722.578 10087.805 5795.688 10221.887 5795.688V5665.598C10162.926 5665.824 10119.836 5663.074 10094.605 5652.355 10185.035 5623.809 10228.125 5525.355 10228.125 5421.398 10227.84 5294.621 10161.789 5183.156 10029.691 5181.367ZM10029.691 5292.977C10070.227 5292.977 10088.371 5337.203 10088.371 5421.398 10088.371 5511.18 10069.379 5549.395 10029.691 5549.789 9988.305 5549.734 9971.012 5501.004 9971.012 5421.398 9971.012 5341 9988.871 5292.977 10029.691 5292.977ZM10029.691 5292.977"/>
<path d="M10470.496 5181.512V5661.543H10611.383V5503.129H10634.348C10634.348 5505.281 10634.348 5543.527 10634.348 5545.68 10634.348 5612.895 10683.105 5661.543 10754.824 5661.543H10848.656V5548.602H10718.539C10695.859 5548.602 10691.324 5527.422 10690.477 5501.738 10691.609 5501.398 10711.453 5501.031 10712.586 5500.605 10803.297 5493.121 10847.238 5414.367 10844.688 5337.371 10842.133 5258.676 10794.512 5181.512 10700.965 5181.512ZM10611.383 5311.574H10646.254C10686.223 5311.688 10705.215 5344.461 10706.348 5377.883 10707.484 5412.668 10688.207 5448.188 10646.535 5448.188H10611.383ZM10611.383 5311.574"/>
<path d="M11280.105 5181.312C11188.262 5181.312 11091.594 5231.887 11090.461 5322.973 11094.145 5428.91 11194.781 5442.207 11270.184 5455.871 11301.367 5468.203 11322.91 5488.586 11322.344 5511.094 11322.062 5531.504 11305.902 5549.762 11279.539 5549.594 11248.922 5549.48 11217.742 5531.336 11210.656 5493.035L11083.375 5520.281C11085.641 5590.328 11178.34 5661.398 11280.105 5661.344 11380.172 5661.316 11470.035 5609.297 11470.035 5521.727 11470.035 5415.391 11365.148 5410.285 11292.297 5392.199 11261.113 5379.441 11239.57 5358.633 11240.137 5332.328 11240.137 5311.094 11256.859 5293.008 11281.523 5293.008 11309.586 5293.008 11335.949 5306.5 11352.676 5349.449L11470.035 5300.461C11440.27 5226.359 11380.742 5181.312 11280.105 5181.312ZM11280.105 5181.312"/>
<path d="M11707.023 5181.367V5312.793H11791.781V5661.398H11932.953V5312.793H12017.711V5181.367ZM11707.023 5181.367"/>
<path d="M12264.621 5181.367V5501.371C12265.754 5612.895 12350.23 5660.238 12457.668 5661.398 12566.238 5661.398 12649.016 5614.906 12650.715 5501.371V5181.367H12509.543V5478.379C12509.543 5528.301 12490.27 5549.789 12457.668 5549.789 12425.07 5549.789 12405.793 5525.836 12405.793 5478.379V5181.367ZM12264.621 5181.367"/>
<path d="M12931.074 5181.367 13062.609 5661.398H13278.902L13410.434 5181.367H13262.176L13170.895 5511.633 13079.332 5181.367ZM12931.074 5181.367"/>
<path d="M13760.246 5181.367 13892.062 5661.398H14108.07L14165.617 5436.848 14222.879 5661.398H14439.172L14570.703 5181.367H14422.445L14331.168 5511.633 14239.602 5181.367H14091.344L14000.066 5511.633 13908.785 5181.367ZM13760.246 5181.367"/>
<path d="M14895.57 5181.367 15016.047 5421.398 14895.57 5661.398H15056.016L15095.988 5569.551 15136.238 5661.398H15296.688L15176.211 5421.398 15296.688 5181.367H15136.238L15095.988 5273.246 15056.016 5181.367ZM14895.57 5181.367"/>
<path d="M15546.43 5181.367 15676.547 5437.5V5661.398H15817.719V5437.5L15947.551 5181.367H15787.102L15747.133 5273.246 15706.879 5181.367ZM15546.43 5181.367"/>
<path d="M16182.836 5181.367V5312.793H16324.859L16182.836 5524.957V5661.398H16506V5530.004H16363.977L16506 5317.84V5181.367ZM16182.836 5181.367"/>
<path transform="matrix(.999957,0,0,1,0,0)" d="M156.917 58.723V538.754H344.433V382.996H367.106V432.746C367.106 503.832 423.362 538.754 493.377 538.754H773.556L803.359 452.492H976.264L1006.066 538.754H1204.458L1038.603 58.723H741.02L624.898 394.812H434.409C424.522 394.812 423.358 389.523 423.358 382.996H452.355C667.876 382.996 667.157 58.723 452.355 58.723ZM889.811 202.27 956.83 396.242H822.797ZM344.433 231.238H379.618C451.593 231.238 452.617 326.742 379.715 326.742H344.433ZM344.433 231.238" fill-rule="evenodd"/>
<path transform="matrix(.999957,0,0,1,0,0)" stroke-width="2.834888" stroke-linecap="butt" stroke-linejoin="bevel" fill="none" stroke="#000000" d="M156.917 58.723V538.754H344.433V382.996H367.106V432.746C367.106 503.832 423.362 538.754 493.377 538.754H773.556L803.359 452.492H976.264L1006.066 538.754H1204.458L1038.603 58.723H741.02L624.898 394.812H434.409C424.522 394.812 423.358 389.523 423.358 382.996H452.355C667.876 382.996 667.157 58.723 452.355 58.723ZM889.811 202.27 956.83 396.242H822.797ZM344.433 231.238H379.618C451.593 231.238 452.617 326.742 379.715 326.742H344.433ZM344.433 231.238"/>
<path transform="matrix(.999957,0,0,1,0,0)" d="M1145.256 58.723 1276.797 538.754H1493.099L1624.636 58.723H1476.372L1385.086 388.988 1293.52 58.723ZM1145.256 58.723"/>
<path transform="matrix(.999957,0,0,1,0,0)" stroke-width="2.834888" stroke-linecap="butt" stroke-miterlimit="4" stroke-linejoin="miter" fill="none" stroke="#000000" d="M1145.256 58.723 1276.797 538.754H1493.099L1624.636 58.723H1476.372L1385.086 388.988 1293.52 58.723ZM1145.256 58.723"/>
<path d="M1841.824 58.723C1709.727 60.508 1643.391 175.379 1643.391 298.754 1643.391 422.129 1710.859 538.754 1841.824 538.754 1972.508 538.754 2040.258 426.066 2040.258 298.754 2039.977 171.977 1973.926 60.508 1841.824 58.723ZM1841.824 170.332C1882.363 170.332 1900.504 214.555 1900.504 298.754 1900.504 388.535 1881.512 426.746 1841.824 427.145 1800.438 427.09 1783.145 378.355 1783.145 298.754 1783.145 218.355 1801.289 170.332 1841.824 170.332ZM1841.824 170.332"/>
<path d="M455.93 2262.645V2742.676L566.254 2742.672C640.273 2742.672 675.617 2676.125 677.398 2607.625 678.785 2554.25 659.789 2499.688 622.828 2474.512 637.043 2454.242 646.25 2425.602 646.25 2387.781 646.25 2271.957 574.641 2262.645 551.613 2262.645ZM512.184 2315.148H534.625C572.98 2315.148 590.73 2349.117 590.77 2384.203 590.809 2421.672 570.648 2460.41 533.801 2460.41H512.184ZM512.184 2512.914H557.48C597.711 2512.914 616.523 2560.172 614.789 2605.871 613.16 2648.695 593.492 2690.168 556.504 2690.168H512.184ZM512.184 2512.914" fill-rule="evenodd"/>
<path d="M4762.902 2262.645V2742.676H4819.156V2481.602L4887.352 2742.676H4944.547V2262.645H4888.297V2523.719L4820.098 2262.645ZM4762.902 2262.645" fill-rule="evenodd"/>
<path d="M1587.668 2262.645V2742.676H1737.867V2686.418H1643.922V2530.789H1717.98V2474.535H1643.922V2318.898H1737.867V2262.645ZM1587.668 2262.645" fill-rule="evenodd"/>
<path d="M1908.23 2262.645V2742.676H1964.48V2530.789H2038.535V2474.535H1964.48V2318.898H2058.426V2262.645ZM1908.23 2262.645" fill-rule="evenodd"/>
<path d="M2611.363 2262.645V2742.676H2667.617V2530.789H2737.93V2742.676H2794.184V2262.645H2737.93V2474.535H2667.617V2262.645ZM2611.363 2262.645" fill-rule="evenodd"/>
<path d="M2964.547 2262.645H3020.797V2742.676H2964.547Z" fill-rule="evenodd"/>
<path d="M3682.078 2262.645V2742.676H3738.332V2513.855L3799.641 2742.676H3857.879L3793.57 2502.66 3857.879 2262.645H3799.641L3738.332 2491.465V2262.645ZM3682.078 2262.645" fill-rule="evenodd"/>
<path d="M4028.242 2262.645V2742.676H4178.438V2686.422H4084.492V2262.645ZM4028.242 2262.645" fill-rule="evenodd"/>
<path d="M4348.801 2262.645V2742.676H4405.051V2553.395L4442.02 2742.676H4499.32L4536.289 2553.395V2742.676H4592.543V2262.645H4535.762L4470.664 2595.941 4405.57 2262.645ZM4348.801 2262.645" fill-rule="evenodd"/>
<path d="M954.941 2262.645C845.012 2267.559 848.051 2425.922 847.832 2502.66 847.832 2581.418 848.035 2742.676 954.941 2742.676 1024.523 2742.676 1060.043 2673.23 1060.043 2577.766L1007.664 2574.238C1007.664 2608.84 1001.539 2688.211 954.941 2690.168 911.797 2690.008 900.336 2613.816 900.336 2502.66 900.336 2388.43 913.52 2315.148 954.941 2315.148 1000.02 2316.211 1007.547 2391.734 1007.547 2431.152L1059.922 2427.48C1059.922 2332.449 1025.418 2262.645 954.941 2262.645ZM954.941 2262.645" fill-rule="evenodd"/>
<path d="M3341.355 2262.645V2686.422C3341.355 2721.199 3324.715 2742.676 3285.105 2742.676H3191.16V2686.422H3285.105V2262.645ZM3341.355 2262.645" fill-rule="evenodd"/>
<path d="M5499.5 2262.645V2742.676H5555.754V2579.414H5605.727C5685.328 2579.414 5723.867 2500.223 5723.234 2421.027 5722.602 2341.84 5686.074 2262.648 5611.398 2262.645ZM5555.754 2315.148H5590.133C5640.023 2315.414 5660.566 2368.812 5660.215 2421.949 5659.867 2474.578 5638.336 2526.906 5590.441 2526.906H5555.754ZM5555.754 2315.148" fill-rule="evenodd"/>
<path d="M6278.195 2262.645V2742.676H6334.445V2579.414H6357.613C6361.297 2663.109 6384.684 2742.676 6501.934 2742.676V2686.422C6432.871 2686.422 6416.383 2647.688 6413.699 2575.48 6473.48 2558.578 6502.473 2489.805 6501.926 2421.027 6501.293 2341.84 6464.766 2262.648 6390.094 2262.645ZM6334.445 2315.148H6368.824C6418.715 2315.414 6439.258 2368.812 6438.91 2421.949 6438.559 2474.578 6417.023 2526.906 6369.133 2526.906H6334.445ZM6334.445 2315.148" fill-rule="evenodd"/>
<path d="M5222.027 2262.645C5111.922 2267.703 5115.414 2424.109 5114.91 2502.656 5114.91 2581.281 5115.086 2742.676 5222.027 2742.676 5329.109 2742.676 5329.141 2583.09 5329.141 2502.656 5327.926 2423.844 5332.992 2267.699 5222.027 2262.645ZM5222.027 2315.152C5263.023 2315.152 5276.637 2385.844 5276.637 2502.656 5276.637 2635.383 5260.359 2689.078 5222.027 2690.168 5178.941 2690.008 5167.414 2614.074 5167.414 2502.656 5167.414 2389.07 5180.828 2315.152 5222.027 2315.152ZM5222.027 2315.152" fill-rule="evenodd"/>
<path d="M6795.434 2262.508C6747.207 2262.508 6695.539 2303.211 6692.145 2370.77 6688.535 2442.645 6733.797 2488.699 6775.309 2528.809 6810.094 2562.422 6842.246 2591.863 6840.785 2628.824 6839.48 2661.852 6817.383 2690.078 6794.371 2689.652 6775.324 2689.301 6741.566 2674.711 6736.68 2616.203L6672.293 2635.91C6678.832 2694.242 6719.402 2742.676 6795.434 2742.539 6866.016 2742.41 6898.164 2681.012 6898.164 2640 6898.164 2565.965 6858.934 2522.293 6820.953 2484.738 6784.395 2448.586 6748.996 2418.105 6750.875 2371.668 6752.188 2339.129 6776.109 2315.219 6799.68 2315.219 6820.02 2315.219 6847.875 2330.242 6854.57 2376.535L6906.691 2361.234C6897.477 2305.219 6867.566 2262.508 6795.434 2262.508ZM6795.434 2262.508" fill-rule="evenodd"/>
<path d="M7077.051 2262.645V2318.898H7128.168V2742.676H7184.418V2318.898H7235.535V2262.645ZM7077.051 2262.645" fill-rule="evenodd"/>
<path d="M7405.895 2262.645V2648.203C7409.059 2706.375 7439.633 2739.367 7497.305 2742.676 7558.43 2742.676 7584.039 2710.184 7588.715 2648.203V2262.645H7532.465V2639.191C7532.465 2667.5 7525.18 2690.172 7497.305 2690.172 7469.656 2690.172 7462.227 2667.961 7462.148 2639.191V2262.645ZM7405.895 2262.645" fill-rule="evenodd"/>
<path d="M9436.25 2262.645V2318.898H9576.117L9436.25 2714.547V2742.676H9630.312V2686.418H9490.441L9630.312 2290.773V2262.645ZM9436.25 2262.645" fill-rule="evenodd"/>
<path d="M1230.406 2262.645V2742.676L1321.828 2742.672C1432.645 2745.934 1464.625 2262.641 1321.828 2262.645ZM1286.66 2315.152H1304.852C1382.785 2315.18 1375.652 2689.785 1303.875 2690.168H1286.66ZM1286.66 2315.152" fill-rule="evenodd"/>
<path d="M2335.902 2262.645C2225.969 2267.559 2229.008 2425.922 2228.789 2502.66 2228.789 2581.418 2228.992 2742.676 2335.902 2742.676 2389.328 2742.676 2386.34 2696.734 2416.797 2742.676H2444.926V2474.535H2331.363V2530.789H2388.672C2388.672 2620.777 2380.297 2690.172 2335.902 2690.172 2292.754 2690.012 2281.293 2613.82 2281.293 2502.664 2281.293 2388.434 2294.477 2315.152 2335.902 2315.152 2380.977 2316.211 2388.504 2391.738 2388.504 2431.156L2440.879 2427.484C2440.879 2332.453 2406.379 2262.645 2335.902 2262.645ZM2335.902 2262.645" fill-rule="evenodd"/>
<path d="M7578.719 6051.965V6531.996H7634.973V6368.738H7658.141C7661.824 6452.43 7685.211 6532 7802.457 6532H7926.215V6051.965H7869.961V6475.746H7802.457C7733.398 6475.746 7716.91 6437.012 7714.227 6364.805 7774.004 6347.902 7803 6279.129 7802.453 6210.352 7801.82 6131.16 7765.293 6051.973 7690.617 6051.969ZM7634.973 6104.473H7669.348C7719.238 6104.738 7739.785 6158.137 7739.434 6211.273 7739.086 6263.898 7717.551 6316.23 7669.656 6316.23H7634.973ZM7634.973 6104.473" fill-rule="evenodd"/>
<path d="M12117.629 4190.793C12007.699 4195.707 12010.738 4354.07 12010.52 4430.809 12010.52 4509.566 12010.715 4670.824 12117.629 4670.824 12187.211 4670.824 12222.73 4601.379 12222.73 4505.914L12170.352 4502.387C12170.352 4536.988 12164.227 4616.359 12117.629 4618.316 12074.484 4618.156 12063.02 4541.965 12063.02 4430.809 12063.02 4316.578 12076.207 4243.297 12117.629 4243.297 12162.707 4244.359 12170.234 4319.883 12170.234 4359.301L12222.609 4355.629C12222.609 4260.598 12188.109 4190.793 12117.629 4190.793ZM12117.629 4190.793" fill-rule="evenodd"/>
<path d="M2122.531 5181.367V5661.398H2322.242C2434.922 5661.969 2515.203 5559.684 2516.535 5421.398 2517.867 5283.367 2440.422 5181.367 2322.242 5181.367ZM2263.617 5292.977H2316.262C2355.605 5292.977 2375.25 5345.652 2375.367 5417.797 2375.48 5492.301 2355.098 5549.707 2315.922 5549.789H2263.617ZM2263.617 5292.977"/>
<path d="M2122.531 5181.367V5661.398H2322.242C2434.922 5661.969 2515.203 5559.684 2516.535 5421.398 2517.867 5283.367 2440.422 5181.367 2322.242 5181.367ZM2263.617 5292.977H2316.262C2355.605 5292.977 2375.25 5345.652 2375.367 5417.797 2375.48 5492.301 2355.098 5549.707 2315.922 5549.789H2263.617ZM2263.617 5292.977"/>
<path transform="matrix(.999957,0,0,1,0,0)" d="M2333.994 58.719H2390.25V538.754H2333.994Z" fill-rule="evenodd"/>
<path transform="matrix(.999957,0,0,1,0,0)" stroke-width="2.834888" stroke-linecap="butt" stroke-linejoin="bevel" fill="none" stroke="#000000" d="M2333.994 58.719H2390.25V538.754H2333.994Z"/>
<path transform="matrix(.999957,0,0,1,0,0)" d="M2107.336 58.723V538.754H2163.592V277.684L2231.791 538.754H2288.992V58.723H2232.736V319.801L2164.534 58.723ZM2107.336 58.723" fill-rule="evenodd"/>
<path transform="matrix(.999957,0,0,1,0,0)" stroke-width="2.834888" stroke-linecap="butt" stroke-linejoin="bevel" fill="none" stroke="#000000" d="M2107.336 58.723V538.754H2163.592V277.684L2231.791 538.754H2288.992V58.723H2232.736V319.801L2164.534 58.723ZM2107.336 58.723"/>
</g>
</svg>
